<?xml version="1.0" encoding="UTF-8"?>
<svg width="1920px" height="480px" viewBox="0 0 1920 480" version="1.1" xmlns="http://www.w3.org/2000/svg" xmlns:xlink="http://www.w3.org/1999/xlink">
    <!-- Generator: Sketch 63.1 (92452) - https://sketch.com -->
    <title>编组 12</title>
    <desc>Created with Sketch.</desc>
    <defs>
        <rect id="path-1" x="0" y="0" width="1920" height="480"></rect>
        <ellipse id="path-3" cx="1330" cy="795.5" rx="1330" ry="795.5"></ellipse>
    </defs>
    <g id="官网web" stroke="none" stroke-width="1" fill="none" fill-rule="evenodd">
        <g id="首页" transform="translate(0.000000, -4659.000000)">
            <g id="编组-12" transform="translate(0.000000, 4659.000000)">
                <mask id="mask-2" fill="white">
                    <use xlink:href="#path-1"></use>
                </mask>
                <use id="矩形备份-20" fill="#F7F7F7" opacity="0" xlink:href="#path-1"></use>
                <g id="编组-11" mask="url(#mask-2)">
                    <g transform="translate(-370.000000, 0.000000)">
                        <mask id="mask-4" fill="white">
                            <use xlink:href="#path-3"></use>
                        </mask>
                        <use id="椭圆形" stroke="none" fill="#FFFFFF" fill-rule="evenodd" xlink:href="#path-3"></use>
                        <path d="M1103.86641,0.0068119763 C1122.28536,-0.250904112 1138.6671,6.88256331 1156.33865,8.06293147 C1157.48183,8.13981914 1159.55891,8.67803285 1159.57599,9.07243814 C1160.71063,35.212823 1180.59166,17.3990883 1190.77775,22.2230779 C1194.65287,24.0569913 1201.71124,20.1428392 1202.84303,26.6968014 C1203.57193,30.9241995 1201.76392,36.1710713 1197.38482,39.3419758 C1195.47146,40.7259539 1194.01936,42.8346696 1191.99638,43.9637793 C1179.51824,50.9363521 1170.3956,55.9753424 1170.71449,75.756832 C1171.02485,95.0997771 1159.21154,114.771631 1156.27601,135.982661 C1154.36835,149.755522 1136.0946,157.877138 1120.02891,160.158139 C1114.80275,160.899963 1109.32604,159.602839 1104.74479,163.53123 C1092.26238,174.231431 1077.84525,181.797747 1063.85094,190.206981 C1056.26156,194.766135 1053.71326,207.639125 1048.76898,216.696208 C1041.10842,230.726784 1025.63923,232.96507 1013.00733,222.341756 C999.528382,211.005096 994.924354,193.859145 985.235111,180.003702 C979.164743,171.323938 988.483841,162.524571 994.330699,153.806363 C983.015668,153.172752 980.154167,149.82529 978.182436,136.932366 C976.244872,124.265834 977.221484,107.967071 965.729923,96.1932906 C954.823474,85.0189489 942.63718,83.4342085 928.353875,83.7759315 C925.610536,83.8414284 922.800285,84.0863299 920,84.2927875 L920,84.2927875 L920,83.6103555 C907.967857,84.4968899 896.123649,84.6591129 890.625112,66.7220889 C886.840775,54.376066 885.488208,51.919953 898.249314,50.7815461 C905.158791,50.1639604 913.238593,53.3116555 917.954066,45.4481097 C919.859048,42.2691084 917.2009,39.3690168 914.763434,37.9517002 C907.251709,33.5830637 901.828631,39.7916504 895.236651,41.6600607 C867.879222,49.4111888 852.924112,68.9078302 841.475708,92.8556427 C839.939478,96.0702192 835.940153,98.1079676 832.806471,100.939755 C864.52201,98.0297021 881.990045,124.823532 907.035298,135.420677 C911.266694,137.212245 911.255304,141.956556 911.615514,146.374998 C912.118099,152.533779 914.337731,156.545241 920,158.951548 L920,158.951548 L920,159 C921.27955,159.549364 922.731045,160.016323 924.380275,160.408106 C932.978911,162.44509 946.121168,166.809642 938.922444,180.857456 C934.717061,189.065262 927.933478,185.577654 920.524034,183.10878 L920,182.936364 L920,182.512302 C918.271563,181.957329 916.513227,181.472083 914.746349,181.217364 C915.492396,184.441902 918.09217,187.361916 920,190.239239 L920,190.239239 L920,191 C922.042372,194.257522 923.226064,197.462777 920,201 L920,201 L920,200.311294 C919.272462,201.065489 918.347022,201.832491 917.165306,202.619414 C910.989062,206.730486 906.518475,213.402974 895.689404,211.644135 C899.317129,217.913911 902.349724,221.828608 903.984194,226.258434 C907.247437,235.108125 912.233423,237.763459 918.758487,230.170285 C919.184189,229.676501 919.595654,229.236791 920,228.826965 L920,228.826965 L920,229.12152 C925.2509,223.789507 928.775089,225.630675 931.743051,232.047815 C941.01917,252.103505 949.35975,272.173379 970.640757,283.945227 C977.053649,287.491392 973.470016,300.57674 966.725935,302.352659 C953.757202,305.768325 942.795417,317.683439 923.801595,309.603857 C931.717575,322.707645 924.597015,342.795959 948.305324,335.154684 C951.26904,334.200056 953.229282,342.032825 949.339936,343.934988 C939.803395,348.598903 933.31266,361.460134 920,357.11821 L920,357.11821 L920,357.234995 C919.083103,356.936164 918.134883,356.560489 917.151069,356.09232 C912.015589,353.650437 906.418813,354.370479 902.235824,361.334683 C893.988018,375.070986 876.437406,380.424344 869.836883,396.880016 C868.26933,400.787598 863.733251,404.470344 864.345465,409.870662 C865.262362,417.974696 861.569145,423.463241 855.391477,428.053867 C843.326588,437.021667 834.171851,446.712356 842.157686,463.75573 C844.455625,468.662264 842.510777,475.555318 842.510777,482.933618 C835.347872,479.93107 827.726518,480.16302 828.055405,470.922002 C828.427005,460.50131 821.817939,456.191016 813.214195,454.833466 C793.660361,451.744114 774.883896,458.607285 757.721968,465.192969 C743.434599,470.677244 746.729165,513.085748 759.681053,522.261308 C768.934029,528.815686 777.052273,526.688288 783.204313,519.078037 C788.751258,512.21629 794.423493,503.605664 803.153951,508.439625 C810.174481,512.325861 807.358296,522.998426 805.09168,529.763409 C802.120306,538.62733 808.323601,542.334268 812.866799,542.801015 C827.184067,544.273828 828.305985,553.329855 828.022658,564.23864 C827.807672,572.494936 827.502988,586.34081 834.445212,585.7403 C844.4841,584.872265 856.642957,594.264122 866.364348,581.169597 C869.493758,576.954645 877.623393,572.379672 887.107016,573.482504 C898.22511,574.774596 909.324694,575.483254 920,577.754376 L920,577.754376 L920,578 C930.858395,580.311592 941.276643,584.238307 950.824567,592.043312 C957.673204,597.643546 965.377922,602.463279 976.103845,602.98741 C986.325523,603.48733 995.444694,610.776748 999.18666,622.326162 C1008.5024,651.082193 1032.30455,661.50216 1058.81169,667.072484 C1065.77428,668.53521 1070.8609,672.417773 1076.20819,675.516987 C1090.85698,684.007066 1093.52778,701.236472 1081.07403,713.122014 C1068.89662,724.742641 1065.06491,737.519776 1062.46534,753.87468 C1058.86296,776.543377 1050.90755,799.459897 1022.99451,805.82354 C1018.37794,806.874652 1014.57473,811.644536 1012.94234,817.56523 C1006.12789,842.279181 995.165507,864.091891 969.444656,874.464857 C968.897677,874.684195 967.758137,874.584496 967.728224,874.771075 C962.972067,903.686625 931.670318,914.777423 920,939 L920,939 L920,938.434416 C918.13773,942.295038 916.759536,946.478683 916.086101,951.134768 C915.67606,953.962286 914.747772,957.94671 916.160136,959.586016 C921.588909,965.881406 917.815962,972.156874 914.676585,975.909348 C902.070669,990.983279 901.106787,1005.23471 916.460548,1019.8732 C895.783372,1027.8947 880.428187,1019.60283 871.85719,1005.00276 C864.867982,993.099293 858.838385,978.29858 870.197093,962.476147 C877.835532,951.834888 878.846397,937.603379 879.247896,923.482864 C880.45951,880.937633 886.320877,838.76356 892.032635,796.583661 L892.776404,791.081871 C894.715557,776.700945 894.218667,761.406448 876.307844,753.824658 C869.099379,750.775151 866.160751,742.792072 863.743217,734.402013 C860.374616,722.706305 857.64528,710.757302 847.019805,701.235951 C828.630601,684.756088 828.519549,654.268128 844.868513,634.207975 C851.325237,626.286086 855.619278,617.814915 852.797398,608.222414 C851.403543,603.483795 850.345694,595.240306 839.792831,597.784646 C827.118797,600.840868 819.853537,591.625546 813.321662,582.48213 L812.691678,581.597922 C798.572312,561.742683 780.15748,549.376737 755.093719,548.392016 C732.498746,547.504058 711.236407,531.223416 704.119062,509.71891 C700.787478,499.6497 692.155259,493.727138 685.151814,486.687515 C679.546496,481.053824 677.645784,499.912957 671.283029,489.883592 C664.954443,479.909725 653.594312,471.407248 658.540432,456.923866 C658.274191,455.441091 658.007949,453.956893 657.741707,452.474118 C640.272248,443.840724 632.773337,426.070193 621.386154,412.032212 C601.053526,386.967338 603.980764,356.265927 603.093765,326.638887 C603.016883,324.074625 608.405791,320.57687 603.724488,319.55515 C578.724796,314.096488 582.605948,285.186645 566.853537,274.132714 C542.017576,256.703704 522.485098,226.736565 489.993613,226.19013 C467.677696,225.814455 443.038213,233.188486 428.474636,255.946663 C423.709332,263.393267 416.475239,270.59796 407.646542,259.184008 C410.148077,255.923895 413.176401,254.529347 416.606224,253.059379 C420.454631,251.410112 422.872165,247.310424 421.499666,242.517731 C420.053132,237.464627 415.601054,239.340152 412.493,239.479607 C408.022413,239.683097 404.54703,238.046638 400.882288,235.951969 C391.185101,230.412196 381.946362,223.402456 382.353556,211.658365 C382.742241,200.390983 395.325377,201.76134 402.538113,197.564888 C397.472397,187.322071 386.173487,194.899592 378.784205,189.048181 C372.01568,183.68913 366.434565,180.823191 376.477724,173.905946 C378.359927,172.609585 380.786003,170.947511 381.308521,169.009373 C388.657938,141.701837 408.45381,126.243694 434.848781,128.504855 C462.052445,130.838589 488.760642,136.809534 516.135156,138.998121 C529.353286,140.055416 542.980033,145.76595 557.191944,145.053023 C559.001535,144.963373 561.635479,145.828562 562.511088,144.922106 C578.448587,128.430859 597.487023,141.872598 614.839734,139.430716 C624.630889,138.05182 631.810879,146.407727 641.750104,147.208881 C642.10889,142.059013 648.058757,137.054291 641.004057,129.749988 C633.804134,122.291999 629.689486,126.909663 623.097506,129.587765 C613.949888,133.30324 604.830745,131.177265 603.389906,119.408984 C602.054425,108.508738 602.343447,96.6379996 616.904177,94.5106017 C627.565245,92.9538303 638.230585,94.887699 647.694276,100.801723 C649.193489,101.738063 650.228558,103.508285 651.784721,104.24825 C667.584116,111.753197 686.000372,103.872576 700.502728,109.907555 C713.669603,115.386139 715.513364,137.438503 734.267048,139.793583 C730.199384,149.747528 723.422316,153.350586 712.223069,152.697425 C725.821341,163.624709 740.464649,161.848794 751.495893,156.89957 C762.440288,151.988767 751.562809,138.175622 758.9706,124.638541 C740.948725,134.682136 731.651613,126.384572 724.027411,117.32143 C722.706168,115.751852 728.657459,104.049029 733.227708,102.355648 C744.055356,98.344187 752.73883,103.748774 757.0286,115.593898 C761.615935,108.713651 762.972772,101.425001 773.979813,100.322169 C780.658642,99.653355 779.820051,88.5851937 772.929082,83.1265326 C769.87513,80.7074179 766.042385,79.2716022 761.003721,76.5479636 C768.914097,70.0761203 777.75276,70.6680919 783.165872,73.9851251 C791.294082,78.9628093 794.059012,72.325897 797.965792,69.4898408 C799.541888,68.3457418 805.984374,63.5715478 800.000337,59.3779413 C797.014725,57.2875416 794.654141,58.006161 791.42222,61.6504861 C781.239533,73.1313199 776.31904,59.6696581 771.253324,55.0818782 C764.192929,48.6868774 763.815634,38.3871408 768.273407,30.4809048 C770.568498,26.4096771 778.185581,28.4716166 783.444928,30.0041969 C792.263659,32.5727275 791.113266,31.8484161 795.9583,23.8667606 C800.569838,16.2707405 812.059531,9.63240519 817.916854,12.0970562 C841.669338,22.0908459 862.016204,6.50890122 884.236729,5.85858627 C896.609149,5.49571906 908.672615,4.07840246 920,5.93827475 L920,5.93827475 L920,6.57501262 C928.973156,8.05011686 937.485054,11.5826783 945.320727,19.3397901 C946.52085,20.5287014 949.321135,22.1419187 949.775273,21.741818 C963.68701,9.4725388 976.946723,17.5770691 990.745993,22.1647002 C997.848495,24.5268604 1003.96015,18.140912 1010.35795,16.4009724 C1040.91053,8.08998454 1071.55564,0.461018784 1103.86641,0.0068119763 Z M2189.69536,926.258195 C2192.95016,917.428549 2199.26395,922.680457 2204,921.43231 C2203.61975,937.121067 2191.28445,946.513519 2183.69513,958.229861 C2180.20339,963.625677 2172.96736,962.871944 2167.90214,958.235561 C2160.8463,951.7754 2168.44981,948.237558 2171.8323,945.665747 C2179.05556,940.178743 2186.59096,934.687464 2189.69536,926.258195 Z M2046.02691,925.701687 C2045.70753,919.430385 2048.22096,917.677804 2054.08516,918.046622 C2059.4064,918.380777 2062.59748,920.603394 2064,925.897188 C2060.24236,928.763158 2062.01425,936.213015 2054.37121,935.995329 C2046.96563,935.785962 2046.32547,931.534843 2046.02691,925.701687 Z M2198,882 C2206.2221,884.010028 2208.93245,891.383918 2215.02268,894.568711 C2219.86209,897.098648 2230.80014,899.23226 2225.65538,910.846386 C2221.31882,920.635151 2214.75515,923.633857 2205.19959,921.193413 C2209.75746,907.422946 2199.0043,896.090082 2198,882 Z M2204.297,921.2085 L2204.42235,921.333824 C2204.53486,921.360935 2204.64617,921.38537 2204.7596,921.414055 C2204.7246,921.514055 2204.6976,921.612055 2204.6626,921.713055 L2204.696,921.608 L2204.73,921.6425 C2204.71322,921.649322 2204.69638,921.65597 2204.67949,921.662453 L2204.6626,921.713055 C2204.6626,921.713055 2204.65136,921.701789 2204.63255,921.682922 C2204.51134,921.724026 2204.39067,921.759581 2204.27,921.7915 C2204.275,921.5955 2204.297,921.4075 2204.297,921.2085 L2204.292,921.340208 C2204.2587,921.306416 2204.23809,921.285229 2204.2406,921.287055 C2204.25854,921.292049 2204.27641,921.296887 2204.29421,921.301596 L2204.297,921.2085 Z M1991.4639,726.199426 C2000.16616,725.126651 2003.6175,728.326482 2002.35665,737.146293 C2001.6843,741.850003 2001.85487,746.273425 2006.04822,750.297046 C2010.48749,754.555425 2015.24943,756.444877 2020.69225,754.852786 C2026.28718,753.21659 2023.33193,747.841328 2023.78254,744.102263 C2024.21325,740.535354 2023.79391,736.874542 2023.93464,733.260682 C2024.09668,729.09336 2026.18625,726.454104 2030.53739,726.367314 C2033.95035,726.297598 2037.88357,725.355718 2038.65969,730.773663 C2038.88428,732.34868 2041.15154,733.569425 2041.57087,735.189971 C2048.43943,761.716275 2067.35073,781.150023 2082.47238,802.494564 C2094.30046,819.188037 2095.67219,835.340855 2089.03106,853.053039 C2084.34304,865.559272 2078.93859,877.968757 2072.31878,889.541647 C2060.79773,909.686784 2028.90127,908.298151 2016.37808,888.382081 C2004.97501,870.248754 1987.48092,860.448648 1966.58525,856.849015 C1961.22203,855.924209 1956.73585,857.884799 1951.77775,861.100281 C1936.25809,871.159333 1917.42356,872.141051 1900.19244,877.635826 C1892.59751,880.05882 1886.13406,872.862401 1886.8121,867.037541 C1889.16322,846.812728 1877.26406,828.907045 1879.16599,807.657831 C1873.72459,789.97268 1888.41553,783.85615 1900.7454,777.338396 C1910.48676,772.187934 1918.55505,766.242138 1926.84509,758.590428 C1944.73577,742.080493 1966.06641,729.330965 1991.4639,726.199426 Z M1773.48025,45.8400524 C1793.68194,22.2872288 1796.50995,22.6219073 1810.08212,52.038014 C1819.06144,49.6739018 1829.74867,40.6390056 1829.80702,61.5072801 C1829.82126,66.3764967 1844.54484,78.4690729 1853.93975,75.7432231 C1866.72628,72.0347001 1876.96945,71.3596464 1882.99837,83.3810144 C1888.37827,94.1063932 1874.65097,98.0712657 1871.11845,105.838656 C1871.89982,106.926717 1872.88756,108.669894 1873.12097,108.574475 C1890.14453,101.591799 1905.78042,99.9554346 1920.02295,115.569968 C1923.68071,119.580414 1928.18247,113.805429 1930.00709,108.889215 C1931.90429,103.772194 1936.16979,100.174756 1941.04444,102.506112 C1945.17188,104.481428 1950.81794,105.965407 1949.35341,114.743953 C1947.86468,123.663492 1972.64357,134.593951 1980.93545,128.501377 C1987.23336,123.872844 1992.54495,121.770778 1998.6308,126.432067 C2014.09305,138.275414 2019.32351,127.481676 2024.15974,115.414734 C2025.46771,112.150551 2026.54227,108.786675 2027.59975,105.429921 C2028.8394,101.497804 2032.04458,101.922205 2034.93805,102.218431 C2039.56791,102.689829 2039.41704,106.102126 2037.45152,108.614352 C2033.69413,113.415208 2038.57874,114.071748 2040.27526,116.705027 C2048.68528,129.75749 2061.39923,118.629072 2069.79644,122.232207 C2078.28901,125.878067 2081.51411,137.324073 2095.93026,132.865015 C2108.44068,128.995562 2124.88356,124.96233 2133.61808,143.091937 C2136.1956,148.436824 2142.30564,144.741119 2146.72627,145.5828 C2157.42061,147.61793 2169.84706,140.660889 2178.89897,152.008627 C2179.79135,153.126596 2184.20202,153.123748 2185.5043,151.971599 C2210.07824,130.231736 2228.656,149.70433 2248.02936,161.23721 C2256.42799,166.23745 2262.56507,175.616993 2273.86715,174.557415 C2281.31504,173.859575 2285.03686,178.876905 2288.17656,183.721911 C2290.95476,188.00722 2285.99471,192.598725 2283.76304,194.205181 C2278.85423,197.741381 2272.45812,203.641692 2265.98942,198.339529 C2247.56538,183.234846 2236.955,188.216572 2229.67789,209.728569 C2227.35229,216.605856 2216.76042,214.251713 2211.25385,218.319126 C2195.90261,229.658319 2178.3069,231.807383 2160.07214,232.915382 C2150.63168,233.487896 2146.89706,240.476269 2147.5788,249.333144 C2149.2497,271.067311 2137.2175,285.088205 2121.66985,297.562457 C2115.47442,302.532789 2111.4651,303.011308 2108.48054,294.655738 C2102.91703,279.076809 2109.15374,258.560303 2122.67324,247.021726 C2126.69536,243.588067 2129.89911,239.103375 2133.08009,234.805248 C2134.92036,232.318657 2139.41643,226.740207 2135.38861,226.714572 C2129.14337,226.67612 2128.25383,215.07488 2120.81305,221.285659 C2114.35004,226.681816 2107.16545,230.804771 2102.60249,238.762999 C2098.30853,246.255526 2092.55003,250.847031 2082.24708,242.932951 C2070.82403,234.157253 2039.2676,240.390819 2029.66062,250.821396 C2024.81586,256.083681 2019.67506,260.958595 2015.32416,266.830423 C2012.05352,271.242483 2003.81145,272.97569 2006.60388,280.344315 C2009.12731,286.99516 2016.04576,282.567435 2020.91329,283.430478 C2037.36898,286.347166 2048.53584,311.865336 2040.44605,327.512625 C2038.3866,331.497436 2038.34533,336.529007 2037.13698,342.202876 C2026.80699,332.649584 2034.11684,320.884566 2030.47899,310.445444 C2021.05562,327.823093 2015.22738,346.688993 2000.41983,360.697069 C1995.03138,365.795576 1990.96229,369.96268 1983.34645,370.750243 C1972.3518,371.885302 1961.89798,388.592169 1964.39722,399.602381 C1965.3081,403.615675 1965.81051,407.751447 1966.14498,411.858736 C1966.67585,418.348651 1965.67103,424.436952 1957.56702,424.869898 C1950.87487,425.225939 1949.88713,420.255606 1947.70812,414.658642 C1939.58702,393.797488 1937.82503,386.313507 1910.46009,397.366443 C1929.15598,401.026545 1933.8698,408.467801 1918.3862,420.279817 C1912.1253,425.053615 1917.80124,428.797742 1919.17896,432.615925 C1932.26152,468.849505 1920.46985,494.159747 1884.47286,509.503689 C1877.64835,512.413256 1866.05308,513.219333 1867.98444,526.388577 C1868.52243,530.06292 1865.00699,533.15478 1861.2069,533.512245 C1856.57989,533.945191 1857.7555,529.76527 1857.35841,527.075024 C1856.53719,521.533602 1851.68958,522.007849 1849.32982,523.624275 C1845.96667,525.931421 1842.62202,529.762422 1845.65498,534.916471 C1849.55328,541.543106 1853.70491,548.048687 1857.19047,554.890371 C1864.58286,569.408298 1862.42093,580.355847 1847.55075,590.115642 C1838.40064,596.121342 1834.06683,597.703588 1828.95592,587.143412 C1825.91584,580.862849 1819.98371,572.978677 1813.9306,575.231705 C1806.43147,578.023066 1808.08529,591.388845 1810.86064,594.207265 C1826.40971,609.992699 1829.1139,628.610794 1828.48909,649.244082 C1828.34961,653.828465 1832.62507,659.255954 1836.17325,663.079834 C1841.4094,668.723796 1837.11117,676.086724 1840.7362,681.702202 C1832.23794,684.78979 1826.40402,682.385801 1821.03977,674.300822 C1810.01096,657.677981 1802.42073,638.628363 1787.08088,624.974903 C1784.38523,622.578036 1784.53325,619.977512 1786.4518,617.02522 C1789.66551,612.084795 1792.57749,615.965642 1795.24752,617.378413 C1799.28388,619.513235 1803.01708,622.22057 1807.06624,624.804004 C1812.06187,621.759141 1811.50395,615.521303 1809.67934,613.778126 C1796.4089,601.095946 1801.31486,584.705243 1798.72454,569.694555 C1797.30128,561.442949 1798.53382,549.884434 1783.30213,547.201309 C1772.87394,545.364138 1773.25964,529.792329 1767.66055,520.92406 C1759.40567,507.844538 1750.65691,511.466187 1742.8347,517.107301 C1739.43596,519.558287 1736.15251,522.258502 1733,525.133889 L1733,525.133889 L1733,524.614781 C1723.58017,533.206945 1715.36056,543.353042 1708.92851,552.999661 C1703.42081,561.25884 1689.05073,580.581961 1706.87361,595.596193 C1710.51128,598.661367 1710.76299,605.457687 1706.87503,608.438904 C1702.30732,611.938098 1700.05902,607.085616 1696.45975,603.599229 C1673.23724,581.09567 1666.50228,552.362151 1660.72865,522.111697 C1658.99799,513.034284 1644.325,509.093956 1636.51922,501.136456 C1619.65624,483.943588 1595.71985,490.441075 1574.93478,486.079534 C1575.07414,487.084182 1575.10259,488.226863 1575.6771,488.682228 C1595.00028,503.97964 1594.52388,523.523328 1572.52152,536.276389 C1552.67075,547.784311 1535.52762,565.664495 1510.27439,566.060093 C1506.2812,566.122706 1505.26868,568.644288 1505.59007,572.036756 C1505.96976,576.062466 1508.48115,579.291287 1512.0079,579.940182 C1518.44422,581.121284 1524.61318,579.880415 1531.18175,577.771507 C1541.65819,574.410345 1548.54673,579.638503 1544.76685,591.00697 C1539.80238,605.940089 1533.96902,620.636988 1521.74628,631.911536 C1510.91148,641.906794 1501.09488,653.004888 1490.7763,663.56366 C1480.45913,674.121008 1482.09879,687.968367 1485.06666,699.351064 C1488.85507,713.890009 1486.28964,728.016279 1487.74016,742.219392 C1488.8053,752.65863 1480.14912,756.385507 1474.11525,761.68766 C1464.07112,770.517469 1452.77272,778.473546 1462.11577,794.451158 C1463.1681,796.249849 1463.30747,800.175948 1462.10439,801.463776 C1443.20926,821.68482 1438.35998,852.780544 1412.56493,867.255453 C1400.3621,874.103001 1386.10862,869.482472 1372.77097,869.392822 C1371.54514,869.384283 1369.16885,866.804357 1369.29257,865.626101 C1371.5423,844.249569 1348.33827,832.945138 1348.36103,812.718402 C1348.3852,792.261138 1333.90562,775.182112 1335.41871,754.384747 C1335.85671,748.355433 1336.81519,742.839827 1338.89426,737.031079 C1347.88321,711.897788 1344.62808,687.96979 1326.55491,668.093116 C1318.98377,659.765632 1321.46245,651.394035 1321.26336,642.908596 C1321.03014,632.907647 1316.57904,629.037046 1308.94107,621.857935 C1291.79367,605.739444 1276.7993,615.972345 1260.99434,617.8863 C1257.30689,618.333127 1253.1459,619.546959 1249.14417,620.362346 C1218.69894,626.578076 1205.39115,606.819512 1190.09103,585.52267 C1175.21042,564.812109 1179.68285,543.697412 1179.47238,521.790096 C1179.23916,497.359774 1192.39479,480.764573 1207.22705,463.692661 C1218.30645,450.942447 1221.58149,432.828889 1235.30453,420.993673 C1242.7107,414.605758 1232.90691,409.710587 1229.03744,407.706981 C1206.98956,396.291555 1226.80762,379.93542 1224.42564,366.218978 C1222.83576,357.061877 1235.84065,355.186343 1245.5065,355.470946 C1251.12371,355.637439 1258.18574,358.65423 1262.33536,353.325039 C1265.81518,348.856772 1261.03558,344.3202 1258.64649,340.438215 C1247.81453,322.836942 1247.71357,322.898132 1269.57515,311.919571 C1250.12399,309.304069 1237.1518,303.375789 1249.79833,280.001344 C1252.81455,274.424548 1244.31196,269.335847 1241.95558,263.818817 C1239.93481,259.090138 1232.84007,251.671961 1243.19705,247.728786 C1250.5179,244.9411 1259.77988,246.211852 1260.92323,254.287463 C1263.57967,273.058454 1281.06126,285.598062 1280.66592,305.153135 C1292.44214,298.682685 1299.06901,285.11566 1314.09041,282.55281 C1320.89789,281.39163 1317.89304,272.923267 1316.97153,268.64853 C1315.15554,260.231396 1318.36232,254.651754 1325.56372,255.0317 C1331.94031,255.368954 1332.21335,261.500726 1329.25827,267.559924 C1326.21076,273.804114 1330.53103,277.266309 1335.85102,280.085302 C1344.66647,284.755637 1378.2289,275.948597 1382.17374,266.997833 C1385.29377,259.921179 1387.97723,253.648529 1395.65502,249.601474 C1402.02024,246.248851 1402.88913,238.995743 1399.05805,232.42426 C1388.77075,214.780297 1388.69254,214.825833 1391.33049,195.010349 C1379.46468,205.108063 1367.8449,211.091842 1374.30255,230.928671 C1378.12793,242.67566 1367.62163,256.843198 1357.5775,265.825268 C1350.46428,272.184723 1341.8792,270.723286 1338.73215,259.28936 C1335.16558,246.331386 1327.9585,242.440863 1315.91209,250.019841 C1310.14841,253.647106 1306.57758,251.045834 1303.56135,245.545881 C1294.9393,229.822988 1297.98539,216.926203 1312.43511,206.587999 C1331.62319,192.863019 1349.48447,177.504418 1363.62275,158.475861 C1383.03125,132.352151 1411.83399,124.199698 1440.99509,138.219242 C1460.47753,147.585527 1484.08258,149.684474 1496.15032,172.550903 C1499.82212,179.509446 1506.77181,168.415621 1507.53973,166.325212 C1510.85459,157.314681 1516.13761,158.132915 1522.83274,160.681534 C1524.93031,161.481269 1528.12002,163.567409 1528.98038,162.854478 C1547.34365,147.616833 1570.10967,167.157676 1589.66323,152.840722 C1591.71813,147.545683 1577.97518,145.08529 1582.80313,137.001141 C1588.05486,139.620912 1598.77305,134.885118 1596.69539,147.366383 C1608.08623,148.887586 1619.45004,150.758851 1630.89064,151.643966 C1633.26409,151.826112 1632.31983,147.8559 1631.64577,145.692917 C1627.77345,133.272842 1637.65973,125.622713 1642.8887,116.909592 C1644.18848,114.745186 1649.08469,105.9353 1657.23461,110.770705 C1665.46132,115.651647 1665.82964,122.83645 1665.33049,130.792527 C1666.5677,131.158242 1667.8049,131.523957 1669.04069,131.891094 C1676.33736,131.457075 1683.7279,137.617307 1690.6207,127.317524 C1696.13551,119.07969 1708.79484,125.118966 1712.32016,136.824688 C1713.33553,140.198656 1710.35059,146.652029 1717.85631,144.793572 C1725.64075,142.866809 1720.62509,137.563232 1719.89414,133.627173 C1717.69135,121.760651 1724.92118,113.155679 1733,104 L1733,104 L1733,104.179505 C1733.35297,103.780739 1733.70451,103.381973 1734.0589,102.980359 C1753.40237,81.0824138 1776.60999,79.0273452 1802.72104,82.2032308 C1810.01665,83.090485 1816.28609,76.9879424 1819.47845,71.4280063 C1824.37161,62.9072333 1810.17036,62.1282156 1810.37246,54.5602083 C1797.07641,55.0316066 1783.34626,57.8799345 1773.48025,45.8400524 Z M1533.71374,732.743558 C1536.9538,730.770379 1539.14268,728.179781 1542.73028,731.854418 C1545.50646,734.698244 1545.27239,736.931763 1544.44961,741.06164 C1540.39103,761.439305 1528.44653,779.482445 1527.62801,800.840298 C1527.36131,807.774167 1520.03999,811.145785 1514.72312,809.650608 C1505.68531,807.105534 1500.64649,799.926973 1502.31758,790.136475 C1500.64365,763.921784 1512.34273,745.756299 1533.71374,732.743558 Z M1974.37072,655.186228 C1977.28292,650.635215 1985.68355,654.001834 1993.30645,657.908356 C2007.52004,665.188564 2024.94034,665.454275 2040.48065,672.639788 C2057.19327,680.36803 2059.46784,696.151001 2068,707.059299 C2067.65974,715.097067 2064.84476,715.306244 2060.0011,711.959412 C2050.72124,705.545592 2042.30202,701.21365 2029.94126,708.517885 C2025.53508,711.119877 2010.45226,708.308708 2009.87182,696.013905 C2009.27994,683.501445 1999.25237,680.38075 1991.59087,674.741451 C1989.90102,673.499109 1985.97377,674.749931 1984.79288,673.393108 C1979.99497,667.878184 1969.19682,663.269223 1974.37072,655.186228 Z M1841.13622,682 C1854.02032,685.647033 1870.39615,676.563298 1879.93366,692.491212 C1881.58419,695.246936 1885.88411,697.066222 1883.0654,701.277374 C1880.48431,705.13172 1877.28285,704.243232 1873.6716,702.574849 C1866.17591,699.109745 1858.57351,696.782752 1849.91107,696.863139 C1839.44442,696.960449 1836.482,691.179635 1841.13622,682 Z M1916.39361,643.558082 C1918.99222,636.339558 1926.39877,637.997367 1932.09328,638.597485 C1936.24197,639.035101 1944.19411,642.249511 1937.2763,646.552971 C1920.72558,656.853337 1925.58182,667.874985 1936.33574,681.227259 C1924.61285,681.260044 1913.21531,686.599813 1909.01831,678.584458 C1902.88762,666.875739 1912.29606,654.948924 1916.39361,643.558082 Z M1899.07393,607 C1903.02056,608.708131 1910.19469,610.025347 1907.34948,616.781389 C1902.84717,627.474915 1906.19832,639.057915 1901.98309,649.519157 C1898.67742,657.721304 1899.15494,670.556367 1886.92282,669.981324 C1873.73424,669.360958 1859.71285,666.461667 1854.59801,650.734395 C1852.89685,645.500941 1850.97257,639.538061 1857.98327,637.060846 C1872.63993,631.878381 1884.93316,624.293768 1892.01776,609.764737 C1892.75819,608.247814 1896.21878,608.05094 1899.07393,607 Z M1941.69129,594.182106 C1944.66493,593.256063 1948.07342,595.946987 1947.9988,600.318353 C1944.3291,603.122783 1946.08717,610.767829 1938.10484,609.937297 C1932.72731,609.379456 1934.01034,605.581157 1933.27554,602.569095 C1931.58493,595.659069 1938.08044,595.307477 1941.69129,594.182106 Z M1915.48773,533.528183 C1916.63167,530.686325 1918.15833,529.671581 1920.54538,530.090683 C1923.70763,530.647573 1926.50951,533.096163 1925.93684,536.213596 C1924.06659,546.425626 1929.08094,555.680323 1930,566 C1913.87309,558.240866 1909.67165,547.97286 1915.48773,533.528183 Z M1463.39564,477.286724 C1461.52845,478.252951 1459.66268,479.219178 1457.7955,480.185406 C1473.7384,505.29166 1474.19204,538.418026 1498.5835,559.148509 C1500.14636,558.340237 1501.71206,557.530541 1503.27777,556.720846 C1489.98278,530.244228 1476.68921,503.764764 1463.39564,477.286724 Z M818,503.967336 C825.811482,490.664848 834.330773,491.277774 842.405196,496.308632 C847.368387,499.403333 852.611574,501.827825 857.486644,504.865243 C861.753396,507.523163 871.359984,508.733261 866.800443,516.583863 C862.365977,524.215358 854.835913,517.053582 851.613819,514.405686 C842.338395,506.784216 832.083693,503.940127 818,503.967336 Z M1540.29726,462.941309 C1545.61441,487.751576 1551.70516,491.55245 1574.09007,485.642668 C1564.67165,475.051167 1545.67271,480.17829 1540.29726,462.941309 Z M2018.43116,391.680688 C2020.45292,387.92441 2020.83802,380.401894 2027.26292,382.302799 C2034.18335,384.351678 2031.73401,391.17416 2030.8548,396.275014 C2027.33088,416.718273 2018.09845,429.518074 1994.37673,427.760876 C1989.2756,427.382402 1979.49384,431.350682 1977.14928,440.712921 C1976.33802,443.948442 1973.16238,446.586373 1969.98675,451 C1966.92862,445.694257 1963.43442,442.332104 1964.0772,440.274688 C1966.67377,431.971037 1971.17177,423.515144 1980.1083,421.646964 C1998.13284,417.880727 2009.96609,407.415793 2018.43116,391.680688 Z M1328.34246,370.058273 C1324.26679,361.861706 1318.2514,362.595982 1310.33044,364.277986 C1285.36446,369.578717 1278.80158,391.396383 1264.10015,413.67226 C1279.16279,403.543239 1291.23764,407.001166 1302.94844,406.528725 C1318.52729,405.899752 1333.61267,403.018147 1337.53334,426.835149 C1339.44603,438.448375 1356.08575,442.606425 1367.74962,447.436138 C1375.92513,450.820068 1376.60204,442.021566 1380.59239,438.751477 C1387.12541,433.399518 1394.67095,433.709735 1400.57967,437.506339 C1414.62552,446.529677 1430.5414,444.009518 1445.44334,445.394111 C1459.72668,446.721784 1460.57708,431.566674 1461.6351,422.324192 C1462.73721,412.70461 1452.53239,417.764852 1447.73431,417.609743 C1430.51723,417.050498 1414.98815,415.764092 1414.72365,392.648636 C1414.66819,387.801847 1410.88973,383.724909 1404.75489,384.789324 C1396.79553,386.172495 1398.9841,390.911135 1400.49862,396.280171 C1401.81546,400.941968 1401.3803,406.466112 1396.09729,408.84397 C1389.95392,411.608889 1389.21302,404.503775 1385.89105,402.544283 C1375.77013,396.574735 1381.72721,378.456908 1365.22685,377.492103 C1364.92395,382.715992 1365.02776,388.012453 1364.19585,393.158076 C1363.39664,398.100207 1356.31612,401.146882 1355.7544,398.091669 C1352.7908,381.953255 1334.37064,382.175246 1328.34246,370.058273 Z M1555.64858,339.137579 C1552.87837,333.973458 1547.31806,331.683827 1542.00376,335.33386 C1536.09503,339.390876 1527.30233,342.976874 1530.68261,352.542381 C1535.11522,365.086258 1543.61497,376.847478 1535.45509,387.525782 C1532.69342,406.434806 1546.34109,401.977923 1553.22963,403.546085 C1562.08774,405.561075 1560.14945,396.829455 1560.09683,391.669602 C1559.99018,380.99272 1565.98992,368.875747 1551.44777,361.450455 C1548.12579,359.755644 1545.07544,350.723768 1554.86644,348.229222 C1562.38638,346.313844 1556.49756,340.719972 1555.64858,339.137579 Z M1453.4667,354.648443 C1450.10491,349.263754 1449.90013,338.43461 1439.88871,345.76456 C1432.18106,351.408238 1428.31301,360.138435 1429.44783,370.796818 C1430.21433,377.998697 1433.80933,379.185491 1438.71976,376.64114 C1451.42033,370.061119 1464.09388,368.169932 1476.44603,374.640381 C1481.00805,372.801846 1489.99558,370.617518 1486.77884,369.713903 C1476.80724,366.910564 1480.43353,340.256069 1461.70905,355.358528 C1460.06798,356.681932 1454.39105,356.129802 1453.4667,354.648443 Z M2033.80673,350.000127 L2034.09226,350.003883 C2037.91784,350.125059 2047.15908,354.88194 2050,363.014854 C2045.89247,370.284033 2039.13579,373.042911 2031.33148,373.881283 C2025.67253,374.488574 2021.42903,372.896372 2023.56008,366.061174 C2025.59238,359.541598 2026.97206,349.777029 2034.09226,350.003883 Z M1596.4124,348.183686 C1596.37116,344.532229 1596.812,340.81816 1591.07393,341.16253 C1583.48146,341.615049 1580.7141,347.492101 1579.46836,352.96217 C1578.38616,357.722156 1583.05484,359.811142 1587.75053,359.372853 C1594.49829,358.742457 1596.71673,354.388031 1596.4124,348.183686 Z M813.436301,335.05456 C817.982347,349.801198 817.982347,349.801198 834.238767,345.048349 C828.697518,339.767564 821.642818,338.360209 813.436301,335.05456 Z M812.671745,328.713633 C806.558146,324.137237 799.909216,326.539276 790.949534,327.253626 C799.564668,334.57216 806.13102,334.673193 812.882461,333.302836 C813.157245,333.247339 813.491827,329.32695 812.671745,328.713633 Z M965.477947,313.940735 C976.322001,310.551129 986.820758,309.82765 991,326.907483 C981.734041,326.907483 974.51133,326.68829 967.310021,326.990576 C963.089401,327.168222 959.017173,324.81011 959,321.9735 C958.984356,319.215684 962.599992,314.840427 965.477947,313.940735 Z M1230.59493,269.01196 C1233.02963,268.753504 1236.6497,272.739465 1238.50593,275.60258 C1241.94123,280.899485 1241.93697,286.075778 1237.81091,291.942723 C1233.54699,298.004944 1227.55334,300.934109 1219.61392,308 C1219.61392,296.513081 1217.87139,288.166398 1220.25777,281.281425 C1221.72171,277.06429 1224.32413,269.679637 1230.59493,269.01196 Z M866.587877,144.52651 C857.707925,135.817697 847.320217,135.91873 838.356263,138.660868 C829.896318,141.249321 836.493993,151.348413 835.443263,158.010939 C834.31565,165.155866 837.560385,173.755107 827.255255,176.757655 C820.006925,178.870823 821.121724,183.572444 825.035623,187.219615 C831.287326,193.046835 826.39246,198.346119 823.392611,201.115294 C820.082384,204.171917 814.011498,205.653269 809.791491,199.565638 C805.145783,192.86469 794.174336,194.434269 793.209031,197.350013 C789.500152,208.546245 778.649725,213.038684 773.287868,222.30247 C769.934928,228.092692 769.940623,231.776861 773.290716,238.24159 C780.762576,252.660936 795.198015,254.620419 807.217344,261.210372 C818.638697,267.473033 837.298414,266.243554 835.672487,287.190241 C835.577096,288.421143 838.930036,291.069363 840.638541,291.035538 C843.525913,290.97829 844.995227,289.324754 844.998075,285.25068 C845.006617,269.406902 869.22894,256.084695 849.918568,237.924259 C849.165402,237.2156 850.398373,234.540344 850.486646,232.770121 C851.464764,213.410089 862.234038,204.66997 883.365392,206.077325 C876.676596,201.619039 871.848647,203.050586 867.208634,203.071931 C862.00339,203.096122 857.719315,202.50842 856.9932,195.847316 C856.193051,188.501746 860.563975,188.318177 865.809084,188.433441 C870.723882,188.540167 872.772663,184.927148 875.15318,181.254363 C883.158947,168.898379 879.502748,157.189863 866.587877,144.52651 Z M1169.9141,179.144079 C1177.89968,179.562558 1185.72341,169.571915 1194.00711,179.205494 C1197.08209,182.783273 1199.38052,186.635276 1197.0395,190.27447 C1191.09398,199.518136 1178.82245,196.798739 1171.0839,204 C1165.41804,198.645472 1155.92053,199.331035 1154.28367,189.945971 C1152.26917,178.387104 1161.46004,182.227682 1166.82351,180.755151 C1167.92658,180.452361 1168.91892,179.091234 1169.9141,179.144079 Z M1398.52114,185.875737 L1398.68284,186.022707 C1399.16187,186.46362 1399.59008,186.9417 1399.9465,187.215389 C1400.30982,190.554606 1398.78387,191.99172 1396.54665,192.727836 C1395.26884,193.148874 1394.42978,193.052896 1393.89036,192.635366 C1394.37845,193.436302 1395.31669,193.780998 1397.02733,193.220196 C1399.30265,192.474536 1400.85698,191.018792 1400.48582,187.636285 C1399.96167,187.235657 1399.28561,186.402676 1398.52114,185.875737 Z M796.956351,102.402608 C793.723006,100.212597 789.212554,100.283748 787.384454,106.270345 C784.890038,114.436992 776.411584,115.589629 769.349765,118.014435 C772.383785,127.012119 783.323909,130.186851 781.017427,140.556315 C780.106225,144.65458 784.011582,145.674877 786.893259,144.929221 C799.689958,141.620726 804.57201,149.477157 808.350652,160.031612 C811.773357,150.434841 824.656905,140.673002 802.126001,136.591813 C789.54856,134.313576 788.500677,121.42681 794.780855,110.398493 C796.374036,107.599435 801.752977,105.649913 796.956351,102.402608 Z M1627.24907,73.4591566 C1630.02066,71.5154279 1634.82104,71.0152036 1636.35368,75.1184721 C1637.82644,79.0588104 1637.06368,82.4131716 1631.10277,84.03104 C1620.5197,86.9066151 1609.8853,89.5835297 1599.59593,94.0269507 C1577.95645,103.373999 1572.59577,115.446555 1582.93504,136.718951 C1570.59406,145.351393 1560.41447,143.640626 1552.91094,129.812997 C1544.51206,114.337487 1556.13162,102.379267 1564.4749,95.180325 C1577.15235,84.2411342 1593.56659,76.181806 1612.10371,77.3894904 L1612.57992,77.417092 C1617.80635,77.6827831 1622.64523,76.6871167 1627.24907,73.4591566 Z M2016.96327,86.0617066 C2021.53402,85.5506145 2024.75267,88.2373393 2023.84693,93.2686645 C2022.97017,98.1519685 2020.50654,101.813399 2013.70694,101.955835 C2009.02895,102.457152 2009.76369,98.5960322 2009.17387,95.1789762 C2008.10581,89.0011847 2012.11283,86.6049166 2016.96327,86.0617066 Z M682.505055,52.0217985 C685.491622,51.6737213 688.203826,55.5665029 686.649096,58.5272901 C680.008628,71.1717266 689.5142,74.9707405 697.743693,79.4517015 C700.923172,81.1835631 704.714255,82.4593725 703.884018,86.8820839 C703.189534,90.5788057 699.194107,89.6297626 696.684819,90.854426 C690.375874,93.928871 682.980905,93.2369788 676.98062,97.9878772 C671.434751,102.379333 647.184968,91.4710199 647.004916,84.6089268 C646.794856,76.6500353 653.353872,74.362671 659.447041,76.6628218 C666.121805,79.1846055 671.553356,80.3922203 677.970903,73.4576703 C672.0092,71.575212 661.236124,75.3301835 665.257272,63.9956537 C667.6551,57.2386941 674.891452,52.9083298 682.505055,52.0217985 Z M725.292326,76.4296387 C736.339207,72.0623858 748.512087,68.8509195 749.97934,86.5289113 C750.437227,92.0519509 743.183032,99.0165253 738.238429,96.4519014 C729.79056,92.0675889 714.709091,94.171604 715.004269,78.9956842 C715.13818,72.1945975 719.55722,71.4795167 725.292326,76.4296387 Z M644.972563,62.3532979 C646.626379,61.4672983 649.855259,62.1422768 649.983233,65.5865458 C650.099956,68.6853761 649.68369,71.4069701 646.269177,72.9477132 C637.921342,76.7128499 629.708512,80.7930729 624.281576,83.3889214 C616.109529,85.402294 613.139409,82.1213495 611.502469,78.1986697 C609.207376,72.694777 615.404969,73.6429265 617.410362,71.3202491 C624.79769,62.7608866 636.249244,67.0275597 644.972563,62.3532979 Z M1348.79193,43.8374872 C1369.50488,46.2049657 1389.26481,33.0562884 1410.28262,40.0956674 C1413.28272,41.1002694 1417.56777,38.5851818 1418.77294,44.0252231 C1420.0707,49.8894615 1415.53066,50.6318064 1412.13026,52.6281124 C1402.52167,58.2673544 1392.11534,51.819845 1382.34578,54.7290346 L1382.34578,54.7290346 L1382.28309,59.2447275 C1390.32325,54.9697951 1393.10825,62.4863959 1397.72664,66.086339 C1400.51306,68.2560499 1399.6797,70.3340425 1397.51581,71.5493099 C1392.63387,74.2922601 1387.43569,75.7067281 1382.66203,71.1566409 C1376.40255,65.1877863 1370.18154,73.5843095 1369.71857,74.6949607 C1366.22557,83.0585226 1359.77663,81.446287 1354.75937,79.1819916 C1347.9132,76.0915244 1351.0209,71.6999022 1354.02644,66.665304 L1354.26647,66.261177 C1357.91759,60.0759245 1352.31626,58.5339107 1347.52978,58.5296114 C1340.60931,58.523879 1336.65476,53.3675912 1337.02372,48.5824758 C1337.42402,43.3602654 1343.9855,43.2871774 1348.79193,43.8374872 Z M704.250366,55.7886255 C702.848344,48.5350034 707.537026,45.0869539 713.262547,48.0771476 C720.256904,51.7286885 729.055703,48.3823848 734.755446,54.5535455 C738.856969,58.9936157 742.465851,59.5532172 746.421301,54.5450667 C750.789194,49.0112299 754.267755,51.7470593 758.074267,55.5695896 C761.206261,58.713815 764.630403,62.4360127 762.147148,66.2656086 C759.280092,70.6830687 755.102667,65.2495645 751.128601,65.4064225 C738.603488,65.9024329 726.002474,64.6574609 713.488818,65.2608696 C705.847153,65.6296978 703.723354,62.6875507 704.250366,55.7886255 Z M1504.39696,33.954691 C1508.82327,32.5802621 1512.26137,28.0111761 1521.26515,30.9879185 C1528.13421,35.6296428 1540.3408,31.0249498 1550.9688,34.9645046 C1554.01902,36.0939576 1560.97364,34.9958387 1559.8856,41.3452731 C1559.1512,45.6181092 1555.0215,49.143199 1550.44403,47.6519792 C1535.86172,42.9005855 1520.91293,44.6837824 1506.08962,44.094131 C1502.76418,43.9616731 1500.39274,41.584552 1500.012,38.9453636 C1499.7981,37.455568 1502.49039,34.5457667 1504.39696,33.954691 Z M1589.55328,35.9470904 C1594.837,34.3241253 1597.76703,25.8800447 1605.10134,30.2332043 C1607.95737,31.9304703 1607.18324,34.7145693 1605.44714,36.3142243 C1599.9215,41.4001949 1596.27142,50.0161873 1586.69298,47.5729984 C1581.01223,48.6015562 1575.79539,46.4730535 1575.09241,41.3040407 C1574.14752,34.3445216 1580.67782,37.2976188 1584.22544,36.5487821 C1585.96866,36.1801913 1587.86983,36.4642831 1589.55328,35.9470904 Z" id="形状结合" stroke="none" fill="#F7F7F7" fill-rule="evenodd" mask="url(#mask-4)"></path>
                    </g>
                </g>
            </g>
        </g>
    </g>
</svg>