<?xml version="1.0" encoding="UTF-8"?>
<svg width="1607px" height="582px" viewBox="0 0 1607 582" version="1.1" xmlns="http://www.w3.org/2000/svg" xmlns:xlink="http://www.w3.org/1999/xlink">
    <!-- Generator: Sketch 63.1 (92452) - https://sketch.com -->
    <title>形状结合</title>
    <desc>Created with Sketch.</desc>
    <g id="官网web&amp;移动端" stroke="none" stroke-width="1" fill="none" fill-rule="evenodd">
        <g id="关于黑顿" transform="translate(-157.000000, -800.000000)" fill="#EFEFEF">
            <g id="编组-5" transform="translate(0.000000, 800.000000)">
                <path d="M157,113 L326.312263,152.561171 L326.312263,469.072833 L811.683285,593.413675 L811.683285,271.253602 L981,310.819231 L981,1136 L811.683285,1096.43437 L811.683285,768.621428 L326.312263,644.280586 L326.312263,977.746398 L157,938.180769 L157,113 Z M1764,142 L1760.21931,307.453744 L1477.94102,375.697118 L1477.94102,1019.44282 L1308.57138,1059 L1308.57138,414.817495 L1015.38297,482.624069 L1015,312.70872 L1764,142 Z M992.175673,-95 L1764,96.2989033 L997.93529,276 L157,67.3111012 L992.175673,-95 Z M997.152516,-53.1431536 L359.987601,66.030911 L551.700584,111.428423 L783.49072,68.0765296 L816.714151,179.529168 L980.233917,219.250872 L947.037172,107.883281 L1205.7752,173.85336 L1414.40678,128.455847 L998.188802,27.9206351 L1188.86105,-7.74564145 L997.152516,-53.1431536 Z" id="形状结合"></path>
            </g>
        </g>
    </g>
</svg>