<?xml version="1.0" encoding="UTF-8"?>
<svg width="144px" height="40px" viewBox="0 0 144 40" version="1.1" xmlns="http://www.w3.org/2000/svg" xmlns:xlink="http://www.w3.org/1999/xlink">
    <!-- Generator: Sketch 63.1 (92452) - https://sketch.com -->
    <title>编组</title>
    <desc>Created with Sketch.</desc>
    <g id="官网web" stroke="none" stroke-width="1" fill="none" fill-rule="evenodd">
        <g id="首页" transform="translate(-320.000000, -20.000000)" fill="#FFFFFF">
            <g id="编组" transform="translate(320.000000, 20.000000)">
                <path d="M76.5634368,20.3857329 L71.0269747,20.3857329 L71.0269747,25.585444 L75.2412708,25.585444 C76.1218484,25.643639 76.5634368,25.123639 76.5634368,24.025444 L76.5634368,20.3857329 Z M63.8378051,25.585444 L69.3744116,25.585444 L69.3744116,20.3857329 L63.8378051,20.3857329 L63.8378051,25.585444 Z M62.1850975,26.7119422 L62.1850975,19.2589458 L78.1335451,19.2589458 L78.1335451,24.112231 C78.1878412,25.9037112 77.3342671,26.7702816 75.5718123,26.7119422 L71.0269747,26.7119422 L71.0269747,28.7919422 L78.5466859,28.7919422 L78.5466859,29.8317978 L71.0269747,29.8317978 L71.0269747,32.0852274 L79.7861083,32.0852274 L79.7861083,33.2117256 L60.6149892,33.2117256 L60.6149892,32.0852274 L69.3742671,32.0852274 L69.3742671,29.8317978 L61.7718123,29.8317978 L61.7718123,28.7919422 L69.3742671,28.7919422 L69.3742671,26.7119422 L62.1850975,26.7119422 Z" id="Fill-1"></path>
                <path d="M91.1071047,20.4723177 L91.1071047,19.3456751 L100.857863,19.3456751 L100.857863,20.4723177 L96.4783682,20.4723177 C96.4783682,20.6456029 96.4499206,20.9055307 96.3956245,21.2522455 C96.3956245,22.062065 96.3401733,22.6388159 96.230426,22.9853863 L100.19678,22.9853863 L100.19678,33.2984549 L98.7920144,33.2984549 L98.7920144,24.1123177 L93.1729531,24.1123177 L93.1729531,33.2984549 L91.685444,33.2984549 L91.685444,22.9853863 L94.742917,22.9853863 C94.9082599,22.1188159 94.9910036,21.2819928 94.9910036,20.4723177 L91.1071047,20.4723177 Z M85.405444,37.6315957 L85.405444,30.9585271 L82.3478267,30.9585271 L82.3478267,23.3321011 L83.6699928,23.3321011 L83.6699928,29.8317401 L85.405444,29.8317401 L85.405444,21.3388881 L81.769343,21.3388881 L81.769343,20.2988881 L85.405444,20.2988881 L85.405444,18.3923177 L86.810065,18.3923177 L86.810065,20.2988881 L90.2808231,20.2988881 L90.2808231,21.3388881 L86.810065,21.3388881 L86.810065,29.8317401 L87.3059495,29.8317401 C88.1863827,29.8902238 88.5996679,29.3985271 88.5453718,28.3586715 L88.5453718,23.3321011 L89.9502816,23.3321011 L89.9502816,28.2718845 C90.0044332,30.121704 89.1781516,31.016722 87.4712924,30.9585271 L86.810065,30.9585271 L86.810065,37.6011264 L85.405444,37.6315957 Z" id="Fill-3"></path>
                <path d="M131.349863,22.1188736 L131.349863,20.9055884 L136.060043,20.9055884 L136.060043,18.3057329 L137.795206,18.3057329 L137.795206,20.9055884 L143.001271,20.9055884 L143.001271,22.1188736 L137.795206,22.1188736 L137.795206,25.7587292 L142.257588,25.7587292 L142.257588,26.9720144 C141.265964,29.9767798 139.832751,32.3451552 137.960549,34.0784404 C138.952173,34.9450108 140.714628,35.9564188 143.249069,37.111509 L143.249069,38.2381516 C140.659177,37.3133863 138.539032,36.2449386 136.886325,35.0316534 C135.178022,36.1867437 132.974267,37.2849386 130.275639,38.3247942 L130.275639,37.111509 C132.864375,36.0716534 134.70943,35.0614007 135.812101,34.0784404 C134.21369,32.5184404 132.946975,30.4967798 132.010946,28.0120144 L133.746253,28.0120144 C134.572534,30.0349747 135.618455,31.7385126 136.886325,33.125083 C138.37369,31.623278 139.557805,29.57187 140.439538,26.9720144 L124.149574,26.9720144 L124.149574,25.7587292 L136.060043,25.7587292 L136.060043,22.1188736 L131.349863,22.1188736 Z M126.639682,38.3632058 L126.639682,23.072231 L124.160693,23.072231 L124.160693,21.8589458 L126.639682,21.8589458 L126.639682,18.3923755 L128.29239,18.3923755 L128.29239,21.8589458 L130.440838,21.8589458 L130.440838,23.072231 L128.29239,23.072231 L128.29239,38.3590181 L126.639682,38.3632058 Z" id="Fill-5"></path>
                <polygon id="Fill-7" points="103.273357 20.6238267 110.644765 20.6238267 110.644765 19.4111191 103.273357 19.4111191"></polygon>
                <polygon id="Fill-9" points="119.285199 31.391769 119.285199 18.305704 117.632635 18.305704 117.632635 31.391769 111.021661 31.391769 111.021661 32.6050542 117.632635 32.6050542 117.632635 38.2382671 119.285199 38.2382671 119.285199 32.6050542 122.177473 32.6050542 122.177473 31.391769"></polygon>
                <path d="M107.805054,25.1712491 C107.803177,25.1647509 107.801011,25.1585415 107.798989,25.1520433 L110.608664,25.1520433 L110.608664,23.9387581 L107.798989,23.9387581 L107.798989,20.6456173 C108.900361,20.5305271 109.836534,20.3856895 110.608664,20.2122599 L107.22065,19.4323321 L103.254152,19.4323321 L103.254152,20.6456173 L106.146426,20.6456173 L106.146426,23.9387581 L103.006354,23.9387581 L103.006354,25.1520433 L106.063682,25.1520433 C106.062094,25.1585415 106.060072,25.1647509 106.058195,25.1712491 L106.152924,25.1712491 L106.152924,38.2382527 L107.778628,38.2382527 L107.778628,25.1712491 L107.805054,25.1712491 Z" id="Fill-10"></path>
                <polygon id="Fill-11" points="103.988014 33.3566787 105.354368 33.3566787 105.354368 27.2890975 103.988014 27.2890975"></polygon>
                <polygon id="Fill-12" points="62.7583682 37.7526787 61.317213 37.7386715 62.4526643 34.4377329 63.9709314 34.4178051"></polygon>
                <polygon id="Fill-13" points="73.9755235 24.7165199 72.5343682 24.7025126 73.6698195 21.401574 75.188231 21.3816462"></polygon>
                <polygon id="Fill-14" points="67.8353069 37.7526787 69.2764621 37.7386715 68.1410108 34.4377329 66.6227437 34.4178051"></polygon>
                <polygon id="Fill-15" points="66.6226715 24.7165199 68.0636823 24.7025126 66.9283755 21.401574 65.4099639 21.3816462"></polygon>
                <polygon id="Fill-16" points="72.6859639 37.7526787 74.1271191 37.7386715 72.9916679 34.4377329 71.4734007 34.4178051"></polygon>
                <polygon id="Fill-17" points="77.8398123 37.7526787 79.2809675 37.7386715 78.1455162 34.4377329 76.6271047 34.4178051"></polygon>
                <polygon id="Fill-18" points="111.719711 22.7458484 116.267292 22.7458484 116.267292 21.5331408 111.719711 21.5331408"></polygon>
                <polygon id="Fill-19" points="111.719711 27.5965343 116.267292 27.5965343 116.267292 26.3839711 111.719711 26.3839711"></polygon>
                <polygon id="Fill-20" points="85.4958845 37.6300361 92.6202166 37.6300361 92.6202166 36.4183394 85.4958845 36.4183394"></polygon>
                <polygon id="Fill-21" points="95.1971119 32.7504693 96.561444 32.7504693 96.561444 25.4745126 95.1971119 25.4745126"></polygon>
                <polygon id="Fill-22" points="99.2672924 37.0205054 98.0350903 37.606065 95.1750181 31.587148 96.4072202 31.0015884"></polygon>
                <polygon id="Fill-23" points="96.5422238 31.7784404 95.4079278 31.0204621 91.4606354 36.9281877 92.5100217 37.6294152 92.6329097 37.6294152"></polygon>
                <polygon id="Fill-24" points="52.1156823 7.7067148 27.8273069 13.2374007 27.8397256 18.7423827 37.3471625 16.5455596 37.3471625 37.4160289 42.8394368 36.1344404 42.8394368 15.2781227 51.993083 13.067148"></polygon>
                <polygon id="Fill-25" points="21.2366354 11.9686787 21.2366354 22.4039134 5.49223105 18.3763321 5.49223105 8.12405776 0.000101083032 6.84261372 0.000101083032 33.5714224 5.49223105 34.8530108 5.49223105 24.0515668 21.2366354 28.079148 21.2366354 38.6974874 26.7289097 39.9790758 26.7289097 13.2502671"></polygon>
                <path d="M25.6510469,6.54512635 L26.7288809,10.1379061 L21.4197112,8.85646209 L20.3410108,5.26093863 L12.8152347,6.65949458 L6.59068592,5.19494585 L27.2781949,1.35032491 L33.5025993,2.81487365 L27.3118412,3.96548736 L40.8256318,7.20880866 L34.051769,8.6733574 L25.6510469,6.54512635 Z M27.1166065,0 L7.22021661e-05,5.23624549 L27.3036101,11.9686643 L52.1762455,6.17140794 L27.1166065,0 Z" id="Fill-26"></path>
                <path d="M69.076491,13.0995957 L69.076491,8.40833213 C69.076491,8.22349458 68.9267437,8.07374729 68.7419061,8.07374729 L63.770065,8.07374729 C63.5853718,8.07374729 63.4356245,8.22349458 63.4356245,8.40833213 L63.4356245,13.0995957 L62.0702816,13.0995957 L62.0702816,2.38782671 L63.4356245,2.38782671 L63.4356245,6.7039278 C63.4356245,6.88876534 63.5853718,7.03851264 63.770065,7.03851264 L68.7419061,7.03851264 C68.9267437,7.03851264 69.076491,6.88876534 69.076491,6.7039278 L69.076491,2.38782671 L70.4416895,2.38782671 L70.4416895,13.0995957 L69.076491,13.0995957 Z" id="Fill-27"></path>
                <path d="M84.2725776,13.0845776 C83.8075957,13.0845776 83.4474513,12.9345415 83.2224693,12.6645054 C82.997343,12.4094874 82.892361,12.0645054 82.892361,11.6593069 L82.892361,3.78291697 C82.892361,3.34797112 83.0273791,3.00284477 83.2525054,2.77786282 C83.5375596,2.50782671 83.9424693,2.37280866 84.4376318,2.37280866 L90.7986426,2.37280866 L90.4714224,3.42291697 L84.6777762,3.42291697 C84.4526498,3.42291697 84.2275235,3.61800722 84.2275235,3.85800722 L84.2275235,7.00862094 L90.3186426,7.00862094 L89.9914224,8.05872924 L84.2275235,8.05872924 L84.2275235,11.5993791 C84.2275235,11.8543971 84.4826859,12.0494874 84.7226859,12.0494874 L90.7986426,12.0494874 L90.4714224,13.0845776 L84.2725776,13.0845776 Z" id="Fill-28"></path>
                <path d="M96.7990903,3.76710469 L96.7990903,13.0995235 L95.4338917,13.0995235 L95.4338917,3.76710469 C95.4338917,3.57706859 95.2798123,3.42298917 95.0899206,3.42298917 L91.3710758,3.42298917 L91.698296,2.35771841 L100.459884,2.35771841 L100.132664,3.42298917 L97.1432058,3.42298917 C96.9531697,3.42298917 96.7990903,3.57706859 96.7990903,3.76710469" id="Fill-29"></path>
                <path d="M102.784679,13.0845776 C102.319697,13.0845776 101.959552,12.9345415 101.73457,12.6645054 C101.509444,12.4094874 101.404462,12.0645054 101.404462,11.6593069 L101.404462,3.78291697 C101.404462,3.34797112 101.53948,3.00284477 101.764606,2.77786282 C102.049661,2.50782671 102.45457,2.37280866 102.949733,2.37280866 L109.310744,2.37280866 L108.983523,3.42291697 L103.189877,3.42291697 C102.964751,3.42291697 102.739625,3.61800722 102.739625,3.85800722 L102.739625,7.00862094 L108.830744,7.00862094 L108.503523,8.05872924 L102.739625,8.05872924 L102.739625,11.5993791 C102.739625,11.8543971 102.994787,12.0494874 103.234787,12.0494874 L109.310744,12.0494874 L108.983523,13.0845776 L102.784679,13.0845776 Z" id="Fill-30"></path>
                <polygon id="Fill-31" points="115.851856 13.1491552 112.08348 9.33601444 112.040736 9.36402888 112.040736 13.0996245 110.66052 13.0996245 110.66052 2.37283755 112.040736 2.37283755 112.040736 7.51868592 115.772722 2.35189892 117.618065 2.35189892 113.070773 8.40489531 117.741097 13.1491552"></polygon>
                <polygon id="Fill-32" points="72.5758989 12.8413863 72.5761877 12.8413863 72.6082455 12.7651408"></polygon>
                <polygon id="Fill-33" points="81.9180361 13.0995957 77.2972419 2.38782671 75.9018628 2.38782671 71.4462671 13.0995957 72.9316101 13.0995957 74.1056173 10.2710036 74.0991191 10.27187 74.6871336 8.86883755 74.6868448 8.86883755 74.7269892 8.77367509 75.0182527 8.07880144 75.0196968 8.0808231 76.6071336 4.32313357 78.4516101 8.557213 79.047278 9.91909025 79.0526209 9.91909025 79.2287942 10.3343971 79.2656173 10.4184404 79.2646065 10.418296 80.402657 13.0995957"></polygon>
                <line x1="72.8704116" y1="13.1583971" x2="73.1050686" y2="12.6030181" id="Fill-34"></line>
            </g>
        </g>
    </g>
</svg>