<?xml version="1.0" encoding="UTF-8"?>
<svg width="143px" height="40px" viewBox="0 0 143 40" version="1.1" xmlns="http://www.w3.org/2000/svg" xmlns:xlink="http://www.w3.org/1999/xlink">
    <!-- Generator: Sketch 63.1 (92452) - https://sketch.com -->
    <title>形状结合</title>
    <desc>Created with Sketch.</desc>
    <g id="官网web" stroke="none" stroke-width="1" fill="none" fill-rule="evenodd">
        <g id="首页交互" transform="translate(-320.000000, -20.000000)" fill="#000000">
            <path d="M320.000029,26.846195 L325.482612,28.1283097 L325.482612,38.3859499 L341.19965,42.4156391 L341.19965,31.9749428 L346.682377,33.2572021 L346.682377,60 L341.19965,58.7177408 L341.19965,48.093844 L325.482612,44.0641549 L325.482612,54.8712521 L320.000029,53.5889929 L320.000029,26.846195 Z M457.555617,38.3153137 L457.555617,40.91653 L462.752633,40.91653 L462.752633,42.1304502 L457.555617,42.1304502 L457.555617,45.7722108 L462.010243,45.7722108 L462.010243,46.986131 C461.020342,49.992469 459.589621,52.362084 457.720673,54.0962764 C458.710574,54.9633003 460.469965,55.9752376 463,57.1309324 L463,58.2581647 C460.41461,57.3329153 458.298151,56.2639084 456.648316,55.0499882 C454.942982,56.205683 452.743058,57.3044528 450.049121,58.3448526 L450.049121,57.1309324 C452.633358,56.0905326 454.475205,55.0797511 455.575959,54.0962764 C453.980326,52.5354599 452.715813,50.5127411 451.781411,48.0266753 L453.513702,48.0266753 C454.338547,50.0506944 455.38265,51.7551239 456.648316,53.14242 C458.133095,51.6398289 459.315153,49.5873473 460.195353,46.986131 L448.069,46.986 L448.069319,58.3790943 L446.419484,58.3832843 L446.419,46.986 L448.069,46.986 L448.069,45.772 L455.823471,45.7722108 L455.823471,42.1304502 L451.121478,42.1304502 L451.121478,40.91653 L455.823471,40.91653 L455.823471,38.3153137 L457.555617,38.3153137 Z M430.45237,39.4212785 L430.45237,40.6346208 L427.809,40.634 L427.61154,40.6564228 L427.61154,43.9512872 L430.416331,43.9512872 L430.416331,45.1652074 L427.61154,45.1652074 L427.614621,45.1748153 L427.617595,45.1844232 L427.591215,45.1844232 L427.591215,58.2582658 L425.968336,58.2582658 L425.968336,45.1844232 L425.873772,45.1844232 L425.876619,45.1748153 L425.876619,45.1748153 L425.87925,45.1652074 L422.827235,45.1652074 L422.827235,43.9512872 L425.961849,43.9512872 L425.961849,40.6564228 L423.074602,40.6564228 L423.074602,39.4425026 L423.093,39.442 L423.093775,39.4212785 L430.45237,39.4212785 Z M439.077784,38.3152848 L439.077784,51.4081987 L441.965031,51.4081987 L441.965031,52.6221189 L439.077784,52.6221189 L439.077784,58.2582802 L437.428093,58.2582802 L437.428093,52.6221189 L430.82861,52.6221189 L430.82861,51.4081987 L437.428093,51.4081987 L437.428093,38.3152848 L439.077784,38.3152848 Z M396.493839,54.4358186 L398.009611,54.4557568 L399.143089,57.7584231 L397.704439,57.7724376 L396.493839,54.4358186 Z M391.349093,54.4358186 L392.864721,54.4557568 L393.998199,57.7584231 L392.559549,57.7724376 L391.349093,54.4358186 Z M386.506867,54.4358186 L388.022496,54.4557568 L389.155973,57.7584231 L387.717323,57.7724376 L386.506867,54.4358186 Z M383.859665,54.4358186 L382.649209,57.7724376 L381.210559,57.7584231 L382.344037,54.4557568 L383.859665,54.4358186 Z M406.659099,38.4019438 L406.659099,40.3095121 L410.123824,40.3095121 L410.123824,41.3500564 L406.659099,41.3500564 L406.659099,49.8473534 L407.154122,49.8473534 C408.033024,49.9058677 408.445591,49.4139136 408.39139,48.3735138 L408.39139,43.3443126 L409.793857,43.3443126 L409.793857,48.2866814 C409.847915,50.137469 409.023069,51.0329555 407.319177,50.9747301 L406.659099,50.9747301 L406.659,56.437 L411.641,56.437 L415.031,51.352 L415.031568,45.4878454 L416.393528,45.4878454 L416.393,51.342 L419.094673,57.0398812 L417.864613,57.6257472 L415.63,52.912 L412.471823,57.6491096 L405.347203,57.6497309 L405.25692,57.6512912 L405.25692,50.9747301 L402.204617,50.9747301 L402.204617,43.3443126 L403.524485,43.3443126 L403.524485,49.8473534 L405.25692,49.8473534 L405.25692,41.3500564 L401.627139,41.3500564 L401.627139,40.3095121 L405.25692,40.3095121 L405.25692,38.4019438 L406.659099,38.4019438 Z M372.025022,27.7107483 L371.902636,33.0739871 L362.764901,35.286119 L362.764901,56.1533524 L357.282173,57.4356116 L357.282173,36.5542192 L347.791262,38.752192 L347.778865,33.2443289 L372.025022,27.7107483 Z M425.171168,47.30338 L425.171168,53.3741369 L423.80719,53.3741369 L423.80719,47.30338 L425.171168,47.30338 Z M420.682479,39.3558002 L420.682479,40.4830325 L416.310597,40.4830325 C416.310597,40.6564084 416.282199,40.9164722 416.227997,41.2633685 C416.227997,42.0736118 416.172642,42.6506646 416.063086,42.9974163 L420.022545,42.9974163 L420.022545,53.3158826 L418.620221,53.3158826 L418.620221,44.1249376 L413.010927,44.1249376 L413.010927,53.3158826 L411.526004,53.3158826 L411.526004,42.9974163 L414.578162,42.9974163 C414.743218,42.1303924 414.825818,41.2931313 414.825818,40.4830325 L410.94867,40.4830325 L410.94867,39.3558002 L420.682479,39.3558002 Z M397.997661,39.2690256 L397.997661,44.1248509 C398.051862,45.9172686 397.199772,46.7842926 395.440381,46.7259227 L390.903443,46.7259227 L390.903443,48.8070113 L398.410083,48.8070113 L398.410083,49.8474112 L390.903443,49.8474112 L390.903443,52.1020202 L399.647351,52.1020202 L399.647351,53.2291079 L380.509556,53.2291079 L380.509556,52.1020202 L389.253608,52.1020202 L389.253608,49.8474112 L381.664368,49.8474112 L381.664368,48.8070113 L389.253608,48.8070113 L389.253608,46.7259227 L382.076935,46.7259227 L382.076935,39.2690256 L397.997661,39.2690256 Z M436.065124,46.3977799 L436.065124,47.6109777 L431.525447,47.6109777 L431.525447,46.3977799 L436.065124,46.3977799 Z M446.419,45.772 L446.419,46.986 L443.933704,46.986131 L443.933704,45.7722108 L446.419,45.772 Z M448.069319,38.4020016 L448.069319,41.8703864 L450.214032,41.8703864 L450.214032,43.0843066 L448.069319,43.0843066 L448.069,45.772 L446.419,45.772 L446.419484,43.0843066 L443.944804,43.0843066 L443.944804,41.8703864 L446.419484,41.8703864 L446.419484,38.4020016 L448.069319,38.4020016 Z M396.430282,40.3964023 L390.903443,40.3964023 L390.903443,45.5988349 L395.110414,45.5988349 C395.989461,45.6570603 396.430282,45.1367882 396.430282,44.0380184 L396.430282,40.3964023 Z M389.253752,40.3964023 L383.72677,40.3964023 L383.72677,45.5988349 L389.253752,45.5988349 L389.253752,40.3964023 Z M385.296196,41.3928369 L386.811968,41.4127751 L387.945301,44.7154414 L386.506795,44.729456 L385.296196,41.3928369 Z M395.057466,41.3928369 L393.846867,44.729456 L392.408216,44.7154414 L393.541694,41.4127751 L395.057466,41.3928369 Z M436.065124,41.5444108 L436.065124,42.7577531 L431.525447,42.7577531 L431.525447,41.5444108 L436.065124,41.5444108 Z M437.413548,22.3531299 L432.87416,28.4092942 L437.536367,33.1560372 L435.650409,33.1560372 L431.888584,29.3409007 L431.845914,29.3689298 L431.845914,33.1064806 L430.468097,33.1064806 L430.468097,22.3740794 L431.845914,22.3740794 L431.845914,27.522621 L435.571413,22.3531299 L437.413548,22.3531299 Z M383.325288,22.3890765 L383.325288,26.7074365 C383.325288,26.8923708 383.474775,27.0421964 383.659147,27.0421964 L388.622346,27.0421964 C388.806863,27.0421964 388.95635,26.8923708 388.95635,26.7074365 L388.95635,22.3890765 L390.319175,22.3890765 L390.319175,33.1064517 L388.95635,33.1064517 L388.95635,28.4127329 C388.95635,28.2277986 388.806863,28.0779729 388.622346,28.0779729 L383.659147,28.0779729 C383.474775,28.0779729 383.325288,28.2277986 383.325288,28.4127329 L383.325288,33.1064517 L381.962319,33.1064517 L381.962319,22.3890765 L383.325288,22.3890765 Z M420.285192,22.3589524 L419.958541,23.4247807 L416.974279,23.4247807 C416.784573,23.4247807 416.630761,23.5789408 416.630761,23.7690763 L416.630761,33.1063795 L415.267936,33.1063795 L415.267936,23.7690763 C415.267936,23.5789408 415.114124,23.4247807 414.924563,23.4247807 L411.212182,23.4247807 L411.538833,22.3589524 L420.285192,22.3589524 Z M397.162811,22.3890765 L401.775574,33.1064517 L400.262829,33.1064517 L399.126756,30.4237487 L399.127765,30.4238932 L399.091006,30.3398059 L398.915139,29.9242817 L398.909805,29.9242817 L398.315173,28.5616917 L396.473902,24.3253962 L394.889225,28.0850524 L394.887783,28.0830297 L394.597026,28.778267 L394.556952,28.8734793 L394.55724,28.8734793 L393.970247,30.2772461 L393.976734,30.2763792 L392.804768,33.1064517 L391.322007,33.1064517 L395.769858,22.3890765 L397.162811,22.3890765 Z M410.640744,22.3740505 L410.314092,23.4247084 L404.530517,23.4247084 C404.305782,23.4247084 404.081047,23.6199008 404.081047,23.8600264 L404.081047,27.0122891 L410.161578,27.0122891 L409.834927,28.062947 L404.081047,28.062947 L404.081047,31.6054499 C404.081047,31.8606014 404.335765,32.0557938 404.575348,32.0557938 L410.640744,32.0557938 L410.314092,33.0914258 L404.126022,33.0914258 C403.661849,33.0914258 403.30233,32.9413112 403.077739,32.6711337 C402.853004,32.4159822 402.748205,32.0708197 402.748205,31.6654091 L402.748205,23.7848969 C402.748205,23.3497234 402.882988,23.0044164 403.107723,22.7793167 C403.392282,22.5091393 403.796488,22.3740505 404.29079,22.3740505 L410.640744,22.3740505 Z M429.120667,22.3740505 L428.794015,23.4247084 L423.01044,23.4247084 C422.785705,23.4247084 422.56097,23.6199008 422.56097,23.8600264 L422.56097,27.0122891 L428.641501,27.0122891 L428.31485,28.062947 L422.56097,28.062947 L422.56097,31.6054499 C422.56097,31.8606014 422.815689,32.0557938 423.055272,32.0557938 L429.120667,32.0557938 L428.794015,33.0914258 L422.605946,33.0914258 C422.141772,33.0914258 421.782253,32.9413112 421.557663,32.6711337 C421.332928,32.4159822 421.228128,32.0708197 421.228128,31.6654091 L421.228128,23.7848969 C421.228128,23.3497234 421.362911,23.0044164 421.587646,22.7793167 C421.872205,22.5091393 422.276411,22.3740505 422.770713,22.3740505 L429.120667,22.3740505 Z M347.0694,20 L372.08548,26.1746379 L347.256079,31.9749284 L320,25.238986 L347.0694,20 Z M347.230708,21.3510316 L326.579158,25.1976648 L332.792887,26.66298 L340.305582,25.2636921 L341.382407,28.8610974 L346.682348,30.1432121 L345.606388,26.5485519 L353.992508,28.6778968 L360.754596,27.2125816 L347.264295,23.9675628 L353.444293,22.8163469 L347.230708,21.3510316 Z" id="形状结合"></path>
        </g>
    </g>
</svg>