<?xml version="1.0" encoding="UTF-8"?>
<svg width="20px" height="20px" viewBox="0 0 20 20" version="1.1" xmlns="http://www.w3.org/2000/svg" xmlns:xlink="http://www.w3.org/1999/xlink">
    <!-- Generator: Sketch 57.1 (83088) - https://sketch.com -->
    <title>形状结合</title>
    <desc>Created with Sketch.</desc>
    <g id="切图" stroke="none" stroke-width="1" fill="none" fill-rule="evenodd">
        <g id="画板" transform="translate(0.000000, -40.000000)" fill="#999999">
            <path d="M10,40 C15.5232308,40 20,44.4771406 20,50.0002392 C20,55.5233379 15.5232308,60 10,60 C4.47676922,60 0,55.5233379 0,50.0002392 C0,44.4771406 4.47676922,40 10,40 Z M10,40.4761905 C4.74834619,40.4761905 0.476190476,44.7487205 0.476190476,50.0002412 C0.476190476,55.251762 4.74834619,59.5238095 10,59.5238095 C15.2516538,59.5238095 19.5238095,55.251762 19.5238095,50.0002412 C19.5238095,44.7487205 15.2516538,40.4761905 10,40.4761905 Z M15.7142857,48.0952381 L15.7142857,53.1397935 C15.7142857,54.0357982 14.9837956,54.7619048 14.0812806,54.7619048 L5.91871942,54.7619048 C5.01669727,54.7619048 4.28571429,54.0357982 4.28571429,53.1397935 L4.28571429,48.1814112 L9.66728691,51.2674864 C9.85212752,51.3727547 10.075415,51.3531699 10.2361031,51.2356611 C10.2434967,51.2327234 10.2494116,51.2278272 10.2572981,51.2239102 L15.7142857,48.0952381 Z M14.0895294,45.7142857 C14.9295462,45.7142857 15.6214989,46.3422346 15.7142857,47.1533148 L9.92794216,50.4761905 L4.28571429,47.2348156 C4.34099154,46.3859308 5.04972485,45.7142857 5.91639316,45.7142857 L14.0895294,45.7142857 Z" id="形状结合"></path>
        </g>
    </g>
</svg>