<?xml version="1.0" encoding="UTF-8"?>
<svg width="20px" height="20px" viewBox="0 0 20 20" version="1.1" xmlns="http://www.w3.org/2000/svg" xmlns:xlink="http://www.w3.org/1999/xlink">
    <!-- Generator: Sketch 57.1 (83088) - https://sketch.com -->
    <title>编组</title>
    <desc>Created with Sketch.</desc>
    <defs>
        <polygon id="path-1" points="0 0.000142857143 19.7242381 0.000142857143 19.7242381 19.7243333 0 19.7243333"></polygon>
    </defs>
    <g id="切图" stroke="none" stroke-width="1" fill="none" fill-rule="evenodd">
        <g id="画板">
            <g id="编组">
                <mask id="mask-2" fill="white">
                    <use xlink:href="#path-1"></use>
                </mask>
                <g id="Clip-2"></g>
                <path d="M9.86233333,19.7243333 C4.41566667,19.7243333 -4.76190476e-05,15.3090952 -4.76190476e-05,9.86242857 C-4.76190476e-05,4.4157619 4.41566667,4.76190476e-05 9.86233333,4.76190476e-05 C15.309,4.76190476e-05 19.7242381,4.4157619 19.7242381,9.86242857 C19.7242381,15.3090952 15.309,19.7243333 9.86233333,19.7243333 M9.86233333,19.2314762 C15.036619,19.2314762 19.231381,15.0367143 19.231381,9.86242857 C19.231381,4.68766667 15.036619,0.492904762 9.86233333,0.492904762 C4.68804762,0.492904762 0.492809524,4.68766667 0.492809524,9.86242857 C0.492809524,15.0367143 4.68804762,19.2314762 9.86233333,19.2314762 M7.86471429,8.2462381 C8.43995238,7.67052381 8.94090476,7.3157619 7.92185714,6.04671429 C6.90185714,4.77719048 6.22138095,5.75195238 5.6637619,6.31004762 C5.02090476,6.95385714 5.62995238,9.35242857 8.00090476,11.723381 C10.3718571,14.0943333 12.7709048,14.7043333 13.4147143,14.0600476 C13.9728095,13.5029048 14.946619,12.823381 13.6780476,11.8029048 C12.4094762,10.7829048 12.0547143,11.2843333 11.4785238,11.8600476 C11.0756667,12.261 10.059,11.4214762 9.17995238,10.5438571 C8.30185714,9.6657619 7.46185714,8.64814286 7.86471429,8.2462381" id="Fill-1" fill="#999999" mask="url(#mask-2)"></path>
            </g>
        </g>
    </g>
</svg>