<?xml version="1.0" encoding="UTF-8"?>
<svg width="80px" height="78px" viewBox="0 0 80 78" version="1.1" xmlns="http://www.w3.org/2000/svg" xmlns:xlink="http://www.w3.org/1999/xlink">
    <!-- Generator: Sketch 63.1 (92452) - https://sketch.com -->
    <title>编组 3</title>
    <desc>Created with Sketch.</desc>
    <defs>
        <linearGradient x1="5.17879199%" y1="50%" x2="95.2452076%" y2="50%" id="linearGradient-1">
            <stop stop-color="#0C66FF" offset="0%"></stop>
            <stop stop-color="#D8D8D8" stop-opacity="0" offset="100%"></stop>
        </linearGradient>
    </defs>
    <g id="官网web" stroke="none" stroke-width="1" fill="none" fill-rule="evenodd">
        <g id="研究方向" transform="translate(-918.000000, 0.000000)">
            <g id="编组-3" transform="translate(920.000000, 0.000000)">
                <rect id="矩形备份-30" fill="url(#linearGradient-1)" x="14" y="38" width="40" height="16" rx="8"></rect>
                <rect id="矩形备份" stroke="#444444" stroke-width="2" x="14" y="19" width="48" height="38"></rect>
                <path d="M15,28 L31.9100542,47.8509331 C34.7751592,51.2143174 39.8243474,51.6182524 43.1877316,48.7531473 C43.5120107,48.4769096 43.8137081,48.1752122 44.0899458,47.8509331 L61,28 L61,28" id="路径备份-2" stroke="#444444" stroke-width="2" stroke-linecap="round" stroke-linejoin="round" transform="translate(38.000000, 41.500000) scale(1, -1) translate(-38.000000, -41.500000) "></path>
                <path d="M15,21 L32.9049484,35.7910444 C35.8623546,38.234119 40.1376454,38.234119 43.0950516,35.7910444 L61,21 L61,21" id="路径备份-3" stroke="#444444" stroke-width="2" fill="#FFFFFF" stroke-linecap="round" stroke-linejoin="round"></path>
                <polyline id="路径-41备份-2" stroke="#444444" stroke-width="2" stroke-linecap="round" stroke-linejoin="round" points="24 18 24 10 16 10"></polyline>
                <polyline id="路径-41备份-3" stroke="#444444" stroke-width="2" stroke-linecap="round" stroke-linejoin="round" transform="translate(56.000000, 62.000000) scale(-1, -1) translate(-56.000000, -62.000000) " points="60 66 60 58 52 58"></polyline>
                <circle id="椭圆形备份-18" stroke="#444444" stroke-width="2" fill="#FFFFFF" transform="translate(64.000000, 66.000000) scale(-1, -1) translate(-64.000000, -66.000000) " cx="64" cy="66" r="4"></circle>
                <circle id="椭圆形备份-19" stroke="#444444" stroke-width="2" fill="#FFFFFF" transform="translate(42.000000, 73.000000) scale(-1, -1) translate(-42.000000, -73.000000) " cx="42" cy="73" r="4"></circle>
                <circle id="椭圆形备份-20" stroke="#444444" stroke-width="2" fill="#FFFFFF" transform="translate(3.000000, 68.000000) scale(-1, -1) translate(-3.000000, -68.000000) " cx="3" cy="68" r="4"></circle>
                <circle id="椭圆形备份-21" stroke="#444444" stroke-width="2" fill="#FFFFFF" transform="translate(52.000000, 66.000000) scale(-1, -1) translate(-52.000000, -66.000000) " cx="52" cy="66" r="3"></circle>
                <circle id="椭圆形备份-22" stroke="#444444" stroke-width="2" fill="#FFFFFF" transform="translate(31.000000, 68.000000) scale(-1, -1) translate(-31.000000, -68.000000) " cx="31" cy="68" r="3"></circle>
                <polyline id="路径-43备份-2" stroke="#444444" stroke-width="2" stroke-linecap="round" stroke-linejoin="round" transform="translate(15.500000, 63.500000) scale(-1, -1) translate(-15.500000, -63.500000) " points="7 69 7 58 24 58"></polyline>
                <circle id="椭圆形备份-23" stroke="#444444" stroke-width="2" fill="#FFFFFF" cx="12" cy="10" r="4"></circle>
                <circle id="椭圆形备份-24" stroke="#444444" stroke-width="2" fill="#FFFFFF" cx="34" cy="3" r="4"></circle>
                <circle id="椭圆形备份-25" stroke="#444444" stroke-width="2" fill="#FFFFFF" cx="73" cy="7" r="4"></circle>
                <circle id="椭圆形备份-26" stroke="#444444" stroke-width="2" fill="#FFFFFF" cx="24" cy="10" r="3"></circle>
                <circle id="椭圆形备份-27" stroke="#444444" stroke-width="2" fill="#FFFFFF" cx="45" cy="7" r="3"></circle>
                <polyline id="路径-43备份-3" stroke="#444444" stroke-width="2" stroke-linecap="round" stroke-linejoin="round" points="52 18 52 7 69 7"></polyline>
                <circle id="椭圆形备份-28" stroke="#444444" stroke-width="2" fill="#FFFFFF" cx="2" cy="32" r="3"></circle>
                <circle id="椭圆形备份-29" stroke="#444444" stroke-width="2" fill="#FFFFFF" cx="74" cy="32" r="3"></circle>
                <circle id="椭圆形备份-30" stroke="#444444" stroke-width="2" fill="#FFFFFF" cx="5" cy="45" r="3"></circle>
                <circle id="椭圆形备份-31" stroke="#444444" stroke-width="2" fill="#FFFFFF" cx="71" cy="45" r="3"></circle>
                <line x1="42" y1="69" x2="42" y2="58" id="路径-42备份-4" stroke="#444444" stroke-width="2" stroke-linecap="round" stroke-linejoin="round" transform="translate(42.000000, 63.500000) scale(-1, -1) translate(-42.000000, -63.500000) "></line>
                <line x1="31" y1="65" x2="31" y2="57" id="路径-42备份-5" stroke="#444444" stroke-width="2" stroke-linecap="round" stroke-linejoin="round" transform="translate(31.000000, 61.000000) scale(-1, -1) translate(-31.000000, -61.000000) "></line>
                <line x1="34" y1="18" x2="34" y2="7" id="路径-42备份-6" stroke="#444444" stroke-width="2" stroke-linecap="round" stroke-linejoin="round"></line>
                <line x1="45" y1="18" x2="45" y2="10" id="路径-42备份-7" stroke="#444444" stroke-width="2" stroke-linecap="round" stroke-linejoin="round"></line>
                <line x1="13" y1="32" x2="4" y2="32" id="路径-44备份-4" stroke="#444444" stroke-width="2" transform="translate(8.500000, 32.000000) scale(1, -1) translate(-8.500000, -32.000000) "></line>
                <line x1="14" y1="45" x2="9" y2="45" id="路径-44备份-5" stroke="#444444" stroke-width="2" transform="translate(11.500000, 45.000000) scale(1, -1) translate(-11.500000, -45.000000) "></line>
                <line x1="71" y1="32" x2="62" y2="32" id="路径-44备份-6" stroke="#444444" stroke-width="2" transform="translate(66.500000, 32.000000) scale(1, -1) translate(-66.500000, -32.000000) "></line>
                <line x1="68" y1="45" x2="63" y2="45" id="路径-44备份-7" stroke="#444444" stroke-width="2" transform="translate(65.500000, 45.000000) scale(1, -1) translate(-65.500000, -45.000000) "></line>
            </g>
        </g>
    </g>
</svg>