<?xml version="1.0" encoding="UTF-8"?>
<svg width="81px" height="81px" viewBox="0 0 81 81" version="1.1" xmlns="http://www.w3.org/2000/svg" xmlns:xlink="http://www.w3.org/1999/xlink">
    <!-- Generator: Sketch 63.1 (92452) - https://sketch.com -->
    <title>编组 4备份</title>
    <desc>Created with Sketch.</desc>
    <defs>
        <circle id="path-1" cx="36" cy="36" r="36"></circle>
        <linearGradient x1="5.17879199%" y1="50%" x2="95.2452076%" y2="50%" id="linearGradient-3">
            <stop stop-color="#0C66FF" offset="0%"></stop>
            <stop stop-color="#D8D8D8" stop-opacity="0" offset="100%"></stop>
        </linearGradient>
    </defs>
    <g id="官网web" stroke="none" stroke-width="1" fill="none" fill-rule="evenodd">
        <g id="研究方向" transform="translate(-432.000000, 0.000000)">
            <g id="编组-4备份" transform="translate(432.000000, 0.000000)">
                <line x1="58" y1="58" x2="79.5098476" y2="78.9123518" id="路径-17备份" stroke="#0C66FF" stroke-width="2" stroke-linecap="round" transform="translate(68.754924, 68.456176) rotate(1.000000) translate(-68.754924, -68.456176) "></line>
                <g id="编组备份">
                    <mask id="mask-2" fill="white">
                        <use xlink:href="#path-1"></use>
                    </mask>
                    <circle stroke="#0C66FF" stroke-width="2" cx="36" cy="36" r="35"></circle>
                    <rect id="矩形备份-23" fill="url(#linearGradient-3)" mask="url(#mask-2)" x="3" y="20" width="40" height="16" rx="8"></rect>
                    <g id="编组-27" mask="url(#mask-2)" stroke="#0C66FF" stroke-width="2">
                        <g transform="translate(-5.000000, 10.666667)">
                            <path d="M14.3333333,14.90625 C24.7777778,15.1270833 29.5555556,20.20625 28.6666667,30.14375 C27.7777778,40.08125 30.6666667,45.4916667 37.3333333,46.375" id="路径-12" stroke-linecap="round" stroke-linejoin="round"></path>
                            <path d="M26.6666667,7.61875 C30.4444444,10.26875 32.3333333,13.4708333 32.3333333,17.225 C32.3333333,22.85625 28.6666667,27.825 28.6666667,32.4625 C28.6666667,37.1 40.6666667,38.09375 46.6666667,36.76875" id="路径-13" stroke-linecap="round" stroke-linejoin="round"></path>
                            <path d="M-2.13162821e-14,36.76875 C4,30.3645833 8.11111111,26.2791667 12.3333333,24.5125 C18.6666667,21.8625 25.3333333,25.175 28.6666667,31.8 C32,38.425 41.3333333,28.81875 42,20.86875 C42.4444444,15.56875 42.1111111,11.59375 41,8.94375" id="路径-14" stroke-linecap="round" stroke-linejoin="round"></path>
                            <path d="M42,22.85625 C44.2222222,22.85625 46,22.525 47.3333333,21.8625" id="路径-15" stroke-linecap="round" stroke-linejoin="round"></path>
                            <path d="M20,45.05 C15.1111111,36.2166667 15.5555556,29.48125 21.3333333,24.84375" id="路径-16" stroke-linecap="round" stroke-linejoin="round"></path>
                            <ellipse id="椭圆形" cx="10" cy="13.9125" rx="3.66666667" ry="3.6375"></ellipse>
                            <ellipse id="椭圆形备份-40" cx="23.3333333" cy="4.6375" rx="3.66666667" ry="3.6375"></ellipse>
                            <ellipse id="椭圆形备份-41" cx="39.3333333" cy="4.6375" rx="3.66666667" ry="3.6375"></ellipse>
                            <ellipse id="椭圆形备份-42" cx="51.3333333" cy="21.2" rx="3.66666667" ry="3.6375"></ellipse>
                            <ellipse id="椭圆形备份-43" cx="50.6666667" cy="37.1" rx="3.66666667" ry="3.6375"></ellipse>
                            <ellipse id="椭圆形备份-44" cx="41.3333333" cy="48.3625" rx="3.66666667" ry="3.6375"></ellipse>
                            <ellipse id="椭圆形备份-45" cx="22.6666667" cy="48.3625" rx="3.66666667" ry="3.6375"></ellipse>
                        </g>
                    </g>
                </g>
            </g>
        </g>
    </g>
</svg>