<?xml version="1.0" encoding="UTF-8"?>
<svg width="70px" height="80px" viewBox="0 0 70 80" version="1.1" xmlns="http://www.w3.org/2000/svg" xmlns:xlink="http://www.w3.org/1999/xlink">
    <!-- Generator: Sketch 63.1 (92452) - https://sketch.com -->
    <title>编组 6备份</title>
    <desc>Created with Sketch.</desc>
    <defs>
        <linearGradient x1="5.17879199%" y1="50%" x2="95.2452076%" y2="50%" id="linearGradient-1">
            <stop stop-color="#0C66FF" offset="0%"></stop>
            <stop stop-color="#D8D8D8" stop-opacity="0" offset="100%"></stop>
        </linearGradient>
    </defs>
    <g id="页面-1" stroke="none" stroke-width="1" fill="none" fill-rule="evenodd">
        <g id="研究方向" transform="translate(-925.000000, 0.000000)">
            <g id="编组-6备份" transform="translate(920.000000, 0.000000)">
                <rect id="矩形备份-6" fill="url(#linearGradient-1)" x="23.5897436" y="27.6923077" width="31.7948718" height="13.3333333"></rect>
                <ellipse id="椭圆形" stroke="#444444" stroke-width="2" cx="39.4871795" cy="41.5384615" rx="9.76923077" ry="23.1025641"></ellipse>
                <ellipse id="椭圆形" stroke="#444444" stroke-width="2" transform="translate(39.451276, 41.333333) rotate(-60.000000) translate(-39.451276, -41.333333) " cx="39.4512764" cy="41.3333333" rx="9.66666667" ry="23"></ellipse>
                <ellipse id="椭圆形" stroke="#444444" stroke-width="2" transform="translate(39.451276, 41.333333) rotate(60.000000) translate(-39.451276, -41.333333) " cx="39.4512764" cy="41.3333333" rx="9.66666667" ry="23"></ellipse>
                <path d="M42.5,2.59807621 C41.7264973,2.15149422 40.8632487,1.92820323 40,1.92820323 C39.1367513,1.92820323 38.2735027,2.15149422 37.5,2.59807621 L8.85898385,19.1339746 C8.08548116,19.5805566 7.46048116,20.2165064 7.02885683,20.9641016 C6.5972325,21.7116969 6.35898385,22.5709376 6.35898385,23.4641016 L6.35898385,56.5358984 C6.35898385,57.4290624 6.5972325,58.2883031 7.02885683,59.0358984 C7.46048116,59.7834936 8.08548116,60.4194434 8.85898385,60.8660254 L37.5,77.4019238 C39.0470054,78.2950878 40.9529946,78.2950878 42.5,77.4019238 L71.1410162,60.8660254 C72.6880215,59.9728614 73.6410162,58.3222263 73.6410162,56.5358984 L73.6410162,23.4641016 C73.6410162,22.5709376 73.4027675,21.7116969 72.9711432,20.9641016 C72.5395188,20.2165064 71.9145188,19.5805566 71.1410162,19.1339746 L42.5,2.59807621 Z" id="多边形备份" stroke="#444444" stroke-width="2"></path>
            </g>
        </g>
    </g>
</svg>