<?xml version="1.0" encoding="UTF-8"?>
<svg width="20px" height="20px" viewBox="0 0 20 20" version="1.1" xmlns="http://www.w3.org/2000/svg" xmlns:xlink="http://www.w3.org/1999/xlink">
    <!-- Generator: Sketch 57.1 (83088) - https://sketch.com -->
    <title>形状结合</title>
    <desc>Created with Sketch.</desc>
    <g id="切图" stroke="none" stroke-width="1" fill="none" fill-rule="evenodd">
        <g id="画板" transform="translate(0.000000, -60.000000)" fill="#999999">
            <path d="M10.0002392,60 C15.5228594,60 20,64.4771406 20,70.0002392 C20,75.5233379 15.5228594,80 10.0002392,80 C4.4771406,80 0,75.5233379 0,70.0002392 C0,64.4771406 4.4771406,60 10.0002392,60 Z M10.0002392,60.5555157 C4.79198067,60.5555157 0.555515682,64.7924591 0.555515682,70.0002392 C0.555515682,75.2080193 4.79198067,79.4444843 10.0002392,79.4444843 C15.2075409,79.4444843 19.4444843,75.2080193 19.4444843,70.0002392 C19.4444843,64.7924591 15.2075409,60.5555157 10.0002392,60.5555157 Z M9.94809524,64.7619048 C12.282381,64.7619048 14.1819048,66.657619 14.1819048,68.9880952 C14.1819048,69.5542857 13.9638095,70.2480952 13.5333333,71.0495238 C13.1180952,71.822381 12.4942857,72.7204762 11.677619,73.7180952 L11.6709524,73.7261905 L10.4561905,75.1157143 C10.3304762,75.2609524 10.1480952,75.3442857 9.95619048,75.3457143 L9.94809524,75.3457143 C9.76333333,75.3457143 9.58714286,75.2704762 9.45952381,75.1371429 C9.35952381,75.032381 8.45190476,74.0757143 7.55,72.8638095 C6.33190476,71.2285714 5.71428571,69.9242857 5.71428571,68.9885714 C5.71428571,66.657619 7.61380952,64.7619048 9.94809524,64.7619048 Z M9.94809524,67.0095238 C8.8552381,67.0095238 7.96619048,67.8971429 7.96619048,68.9880952 C7.96619048,70.0790476 8.8552381,70.9666667 9.94809524,70.9666667 C11.0409524,70.9666667 11.93,70.0790476 11.93,68.9880952 C11.93,67.8971429 11.0409524,67.0095238 9.94809524,67.0095238 Z" id="形状结合"></path>
        </g>
    </g>
</svg>