<?xml version="1.0" encoding="UTF-8"?>
<svg width="120px" height="120px" viewBox="0 0 120 120" version="1.1" xmlns="http://www.w3.org/2000/svg" xmlns:xlink="http://www.w3.org/1999/xlink">
    <!-- Generator: Sketch 63.1 (92452) - https://sketch.com -->
    <title>编组 13</title>
    <desc>Created with Sketch.</desc>
    <defs>
        <linearGradient x1="0%" y1="50%" x2="100%" y2="50%" id="linearGradient-1">
            <stop stop-color="#0C66FF" offset="0%"></stop>
            <stop stop-color="#FFFFFF" stop-opacity="0.301382212" offset="100%"></stop>
        </linearGradient>
    </defs>
    <g id="官网web" stroke="none" stroke-width="1" fill="none" fill-rule="evenodd">
        <g id="首页" transform="translate(-400.000000, -3361.000000)">
            <g id="编组-13" transform="translate(400.000000, 3361.000000)">
                <rect id="矩形" fill="url(#linearGradient-1)" x="27" y="65" width="44" height="16" rx="8"></rect>
                <rect id="矩形备份-8" fill="#444444" x="40" y="60" width="16" height="2" rx="1"></rect>
                <rect id="矩形备份-9" fill="#444444" x="64" y="60" width="16" height="2" rx="1"></rect>
                <path d="M41,60 L55,60 C55.5522847,60 56,60.4477153 56,61 C56,61.5522847 55.5522847,62 55,62 L41,62 C40.4477153,62 40,61.5522847 40,61 C40,60.4477153 40.4477153,60 41,60 Z" id="矩形备份-10" fill="#444444" transform="translate(48.000000, 61.000000) rotate(90.000000) translate(-48.000000, -61.000000) "></path>
                <ellipse id="椭圆形备份-47" stroke="#444444" stroke-width="2" cx="60" cy="60" rx="27" ry="59"></ellipse>
                <path d="M46.4251231,36.6873856 C30.4547998,45.7826858 17.5503669,56.6778914 9.60903014,66.9536361 C5.62491686,72.1089056 2.8943494,77.098478 1.68873058,81.6170307 C0.580422862,85.7708701 0.766856348,89.5149635 2.55021413,92.5618976 C4.3364335,95.6137209 7.5355197,97.6473409 11.7434184,98.779326 C16.3165788,100.009572 22.0667262,100.172443 28.5897285,99.3459517 C41.5832401,97.6996202 57.6028484,92.1231714 73.5748769,83.0269001 C89.5452002,73.9315999 102.449633,63.0363943 110.39097,52.7606496 C114.375083,47.6053801 117.105651,42.6158077 118.311269,38.097255 C119.419577,33.9434156 119.233144,30.1993222 117.449786,27.1523881 C115.663566,24.1005648 112.46448,22.0669448 108.256582,20.9349597 C103.683421,19.7047139 97.9332738,19.5418427 91.4102715,20.368334 C78.4167599,22.0146655 62.3971516,27.5911143 46.4251231,36.6873856 Z" id="椭圆形备份-48" stroke="#444444" stroke-width="2"></path>
                <path d="M2.55021413,26.2952452 C0.766856348,29.3421794 0.580422862,33.0862728 1.68873058,37.2401121 C2.8943494,41.7586649 5.62491686,46.7482373 9.60903014,51.9035068 C17.5503669,62.1792515 30.4547998,73.0744571 46.4251231,82.1697573 C62.3971516,91.2660286 78.4167599,96.8424774 91.4102715,98.4888088 C97.9332738,99.3153001 103.683421,99.1524289 108.256582,97.9221832 C112.46448,96.790198 115.663566,94.756578 117.449786,91.7047548 C119.233144,88.6578206 119.419577,84.9137272 118.311269,80.7598879 C117.105651,76.2413351 114.375083,71.2517627 110.39097,66.0964932 C102.449633,55.8207485 89.5452002,44.9255429 73.5748769,35.8302427 C57.6028484,26.7339714 41.5832401,21.1575226 28.5897285,19.5111912 C22.0667262,18.6846999 16.3165788,18.8475711 11.7434184,20.0778168 C7.5355197,21.209802 4.3364335,23.243422 2.55021413,26.2952452 Z" id="椭圆形备份-49" stroke="#444444" stroke-width="2"></path>
            </g>
        </g>
    </g>
</svg>