<?xml version="1.0" encoding="UTF-8"?>
<svg width="120px" height="120px" viewBox="0 0 120 120" version="1.1" xmlns="http://www.w3.org/2000/svg" xmlns:xlink="http://www.w3.org/1999/xlink">
    <!-- Generator: Sketch 63.1 (92452) - https://sketch.com -->
    <title>编组 8</title>
    <desc>Created with Sketch.</desc>
    <defs>
        <linearGradient x1="0%" y1="50%" x2="100%" y2="50%" id="linearGradient-1">
            <stop stop-color="#0C66FF" offset="0%"></stop>
            <stop stop-color="#FFFFFF" stop-opacity="0.301382212" offset="100%"></stop>
        </linearGradient>
    </defs>
    <g id="官网web" stroke="none" stroke-width="1" fill="none" fill-rule="evenodd">
        <g id="首页" transform="translate(-900.000000, -3361.000000)">
            <g id="编组-8" transform="translate(900.000000, 3361.000000)">
                <rect id="矩形" fill="url(#linearGradient-1)" x="37" y="76" width="44" height="16" rx="8"></rect>
                <circle id="椭圆形" stroke="#444444" stroke-width="2" cx="60" cy="66" r="53"></circle>
                <circle id="椭圆形" stroke="#444444" stroke-width="2" fill="#FFFFFF" cx="60" cy="14" r="13"></circle>
                <circle id="椭圆形备份-34" stroke="#444444" stroke-width="2" fill="#FFFFFF" cx="14" cy="38" r="13"></circle>
                <circle id="椭圆形备份-35" stroke="#444444" stroke-width="2" fill="#FFFFFF" cx="106" cy="38" r="13"></circle>
                <circle id="椭圆形备份-36" stroke="#444444" stroke-width="2" fill="#FFFFFF" cx="106" cy="88" r="13"></circle>
                <circle id="椭圆形备份-37" stroke="#444444" stroke-width="2" fill="#FFFFFF" cx="14" cy="88" r="13"></circle>
                <path d="M58,6 C62.6666667,6 66,8 68,12" id="路径-4" stroke="#444444" stroke-width="2" stroke-linecap="round" stroke-linejoin="round"></path>
                <path d="M12,30 C16.6666667,30 20,32 22,36" id="路径-4备份" stroke="#444444" stroke-width="2" stroke-linecap="round" stroke-linejoin="round"></path>
                <path d="M104,30 C108.666667,30 112,32 114,36" id="路径-4备份-2" stroke="#444444" stroke-width="2" stroke-linecap="round" stroke-linejoin="round"></path>
                <path d="M104,80 C108.666667,80 112,82 114,86" id="路径-4备份-3" stroke="#444444" stroke-width="2" stroke-linecap="round" stroke-linejoin="round"></path>
                <path d="M12,80 C16.6666667,80 20,82 22,86" id="路径-4备份-4" stroke="#444444" stroke-width="2" stroke-linecap="round" stroke-linejoin="round"></path>
                <g id="编组-7" transform="translate(37.000000, 47.000000)" stroke="#444444" stroke-linecap="round" stroke-width="2">
                    <polyline id="路径-5" stroke-linejoin="round" points="0 38 16.32 0 34 38"></polyline>
                    <line x1="7" y1="24.5" x2="27" y2="24.5" id="路径-6" stroke-linejoin="round"></line>
                    <line x1="44.5" y1="0" x2="44.5" y2="38" id="路径-7"></line>
                </g>
            </g>
        </g>
    </g>
</svg>