<?xml version="1.0" encoding="UTF-8"?>
<svg width="120px" height="120px" viewBox="0 0 120 120" version="1.1" xmlns="http://www.w3.org/2000/svg" xmlns:xlink="http://www.w3.org/1999/xlink">
    <!-- Generator: Sketch 63.1 (92452) - https://sketch.com -->
    <title>编组 9</title>
    <desc>Created with Sketch.</desc>
    <defs>
        <linearGradient x1="0%" y1="50%" x2="100%" y2="50%" id="linearGradient-1">
            <stop stop-color="#0C66FF" offset="0%"></stop>
            <stop stop-color="#FFFFFF" stop-opacity="0.301382212" offset="100%"></stop>
        </linearGradient>
    </defs>
    <g id="官网web" stroke="none" stroke-width="1" fill="none" fill-rule="evenodd">
        <g id="首页" transform="translate(-1400.000000, -3361.000000)">
            <g id="编组-9" transform="translate(1400.000000, 3361.000000)">
                <rect id="矩形备份-2" fill="url(#linearGradient-1)" transform="translate(34.000191, 60.000000) rotate(28.000000) translate(-34.000191, -60.000000) " x="12.0001913" y="52" width="44" height="16" rx="8"></rect>
                <path d="M59.5120384,0.127241853 L0.512038391,33.1272419 C-0.175518287,33.5118075 -0.169070877,34.5034391 0.523428212,34.8790319 L59.5234282,66.8790319 C59.8208082,67.0403227 60.1795743,67.0403227 60.4769543,66.8790319 L119.476954,34.8790319 C120.169453,34.5034391 120.175901,33.5118075 119.488344,33.1272419 L60.4883441,0.127241853 C60.1850201,-0.042413951 59.8153624,-0.042413951 59.5120384,0.127241853 Z M60.0001913,2.146 L116.927191,33.986 L60.0001913,64.862 L3.07219125,33.986 L60.0001913,2.146 Z" id="路径-8备份" fill="#444444" fill-rule="nonzero"></path>
                <path d="M118.523428,50.1209681 C119.008904,49.8576592 119.615914,50.0377611 119.879223,50.523237 C120.123724,50.974036 119.985897,51.5296272 119.57626,51.8175173 L119.476954,51.8790319 L60.4769543,83.8790319 C60.2167468,84.0201614 59.9095406,84.0378025 59.6375834,83.9319554 L59.5234282,83.8790319 L0.523428212,51.8790319 C0.0379523239,51.6157229 -0.142149559,51.0087128 0.121159397,50.523237 C0.365660571,50.0724379 0.90651626,49.8849461 1.37123308,50.0712814 L1.47695429,50.1209681 L60.0001913,81.862 L118.523428,50.1209681 Z" id="路径备份-8" fill="#444444" fill-rule="nonzero"></path>
                <path d="M118.523428,68.1209681 C119.008904,67.8576592 119.615914,68.0377611 119.879223,68.523237 C120.123724,68.974036 119.985897,69.5296272 119.57626,69.8175173 L119.476954,69.8790319 L60.4769543,101.879032 C60.2167468,102.020161 59.9095406,102.037803 59.6375834,101.931955 L59.5234282,101.879032 L0.523428212,69.8790319 C0.0379523239,69.6157229 -0.142149559,69.0087128 0.121159397,68.523237 C0.365660571,68.0724379 0.90651626,67.8849461 1.37123308,68.0712814 L1.47695429,68.1209681 L60.0001913,99.862 L118.523428,68.1209681 Z" id="路径备份-9" fill="#444444" fill-rule="nonzero"></path>
                <path d="M118.523428,86.1209681 C119.008904,85.8576592 119.615914,86.0377611 119.879223,86.523237 C120.123724,86.974036 119.985897,87.5296272 119.57626,87.8175173 L119.476954,87.8790319 L60.4769543,119.879032 C60.2167468,120.020161 59.9095406,120.037803 59.6375834,119.931955 L59.5234282,119.879032 L0.523428212,87.8790319 C0.0379523239,87.6157229 -0.142149559,87.0087128 0.121159397,86.523237 C0.365660571,86.0724379 0.90651626,85.8849461 1.37123308,86.0712814 L1.47695429,86.1209681 L60.0001913,117.862 L118.523428,86.1209681 Z" id="路径备份-10" fill="#444444" fill-rule="nonzero"></path>
            </g>
        </g>
    </g>
</svg>