<?xml version="1.0" encoding="UTF-8"?>
<svg width="40px" height="40px" viewBox="0 0 40 40" version="1.1" xmlns="http://www.w3.org/2000/svg" xmlns:xlink="http://www.w3.org/1999/xlink">
    <!-- Generator: Sketch 63.1 (92452) - https://sketch.com -->
    <title>编组 5</title>
    <desc>Created with Sketch.</desc>
    <g id="官网web" stroke="none" stroke-width="1" fill="none" fill-rule="evenodd">
        <g id="首页交互" transform="translate(-500.000000, -1427.000000)">
            <g id="编组-5" transform="translate(500.000000, 1427.000000)">
                <circle id="椭圆形" stroke="#FFFFFF" cx="20" cy="20" r="19.5"></circle>
                <path d="M20.0040746,22.9945896 C19.7810198,22.9947678 19.5671063,22.9170451 19.4095129,22.7785977 L14.2450158,18.2481242 C13.9203111,17.9567239 13.926371,17.4896066 14.258608,17.2047834 C14.5854354,16.924525 15.1075856,16.924525 15.4344473,17.2047834 L20.0054037,21.2142922 L24.5763723,17.2047834 C24.9085408,16.9199601 25.441099,16.9252758 25.7658038,17.216676 C26.0852703,17.5033913 26.0852703,17.9614089 25.7658038,18.2481242 L20.5989786,22.7791983 C20.441214,22.9175256 20.2271294,22.9950381 20.0040746,22.9945896" id="Fill-1" fill="#FFFFFF" transform="translate(20.005404, 19.994590) scale(-1, 1) rotate(90.000000) translate(-20.005404, -19.994590) "></path>
            </g>
        </g>
    </g>
</svg>