<?xml version="1.0" encoding="UTF-8"?>
<svg width="30px" height="22px" viewBox="0 0 30 22" version="1.1" xmlns="http://www.w3.org/2000/svg" xmlns:xlink="http://www.w3.org/1999/xlink">
    <!-- Generator: Sketch 63.1 (92452) - https://sketch.com -->
    <title>编组 20</title>
    <desc>Created with Sketch.</desc>
    <defs>
        <linearGradient x1="100%" y1="50%" x2="0%" y2="50%" id="linearGradient-1">
            <stop stop-color="#0C66FF" stop-opacity="0" offset="0%"></stop>
            <stop stop-color="#0C66FF" stop-opacity="0.16" offset="100%"></stop>
        </linearGradient>
        <linearGradient x1="100%" y1="50%" x2="0.744298986%" y2="50%" id="linearGradient-2">
            <stop stop-color="#0C66FF" stop-opacity="0" offset="0%"></stop>
            <stop stop-color="#0C66FF" stop-opacity="0.16" offset="100%"></stop>
        </linearGradient>
        <linearGradient x1="100%" y1="50%" x2="0%" y2="50%" id="linearGradient-3">
            <stop stop-color="#0C66FF" stop-opacity="0" offset="0%"></stop>
            <stop stop-color="#0C66FF" stop-opacity="0.101289336" offset="100%"></stop>
        </linearGradient>
        <linearGradient x1="90.8778553%" y1="35.2534107%" x2="46.4339744%" y2="97.8760515%" id="linearGradient-4">
            <stop stop-color="#0C66FF" stop-opacity="0.18" offset="0%"></stop>
            <stop stop-color="#0C66FF" stop-opacity="0" offset="100%"></stop>
        </linearGradient>
        <linearGradient x1="28.5078048%" y1="29.8537651%" x2="87.0862831%" y2="79.9155097%" id="linearGradient-5">
            <stop stop-color="#0C66FF" stop-opacity="0.101289336" offset="0%"></stop>
            <stop stop-color="#0C66FF" stop-opacity="0.33907889" offset="100%"></stop>
        </linearGradient>
        <linearGradient x1="50%" y1="4.77377898%" x2="50%" y2="93.4993693%" id="linearGradient-6">
            <stop stop-color="#0C66FF" stop-opacity="0.0750655594" offset="0%"></stop>
            <stop stop-color="#0C66FF" stop-opacity="0.399038462" offset="100%"></stop>
        </linearGradient>
        <linearGradient x1="81.0327947%" y1="17.3017977%" x2="7.13280758%" y2="73.5302474%" id="linearGradient-7">
            <stop stop-color="#0C66FF" stop-opacity="0.308621066" offset="0%"></stop>
            <stop stop-color="#0C66FF" stop-opacity="0.101289336" offset="100%"></stop>
        </linearGradient>
        <filter x="-155.9%" y="-137.5%" width="411.7%" height="374.9%" filterUnits="objectBoundingBox" id="filter-8">
            <feGaussianBlur stdDeviation="2" in="SourceGraphic"></feGaussianBlur>
        </filter>
    </defs>
    <g id="官网web" stroke="none" stroke-width="1" fill="none" fill-rule="evenodd">
        <g id="首页交互" transform="translate(-834.000000, -436.000000)">
            <g id="编组-7" transform="translate(814.000000, 68.000000)">
                <g id="编组-20" transform="translate(20.000000, 368.000000)">
                    <circle id="椭圆形" fill="url(#linearGradient-1)" cx="15" cy="11" r="11"></circle>
                    <circle id="椭圆形备份-12" fill="url(#linearGradient-2)" cx="6" cy="16" r="6"></circle>
                    <circle id="椭圆形备份-14" fill="url(#linearGradient-3)" cx="6" cy="9" r="5"></circle>
                    <circle id="椭圆形备份-13" fill="url(#linearGradient-4)" cx="22" cy="10" r="8"></circle>
                    <g id="编组-18" transform="translate(6.512195, 2.414634)">
                        <circle id="椭圆形" fill="#0C66FF" cx="7.64634146" cy="2.81707317" r="1"></circle>
                        <circle id="椭圆形备份-19" fill="#0C66FF" cx="14.3536585" cy="9.25609756" r="1"></circle>
                        <circle id="椭圆形备份-17" fill="#0C66FF" cx="4.96341463" cy="13.2804878" r="1"></circle>
                        <path d="M12.3189177,0.852133449 C11.1900371,0.306114404 9.9234499,0 8.58536585,0 C3.84379922,0 0,3.84379922 0,8.58536585 C0,10.8486512 0.875781142,12.9073868 2.30694544,14.4411749 M5.00264393,16.3897445 C6.09305209,16.8911377 7.30655764,17.1707317 8.58536585,17.1707317 C13.3269325,17.1707317 17.1707317,13.3269325 17.1707317,8.58536585 C17.1707317,6.42734738 16.3745223,4.45529357 15.0598428,2.94694372" id="形状" stroke="#0C66FF" stroke-width="0.5" stroke-linecap="round"></path>
                        <circle id="椭圆形" stroke="#0C66FF" cx="14.7560976" cy="2.68292683" r="1"></circle>
                        <circle id="椭圆形备份-16" stroke="#0C66FF" cx="2.68292683" cy="14.7560976" r="1"></circle>
                        <circle id="椭圆形" stroke="#0C66FF" stroke-width="0.5" cx="4.73335437" cy="4.3163325" r="1"></circle>
                        <circle id="椭圆形备份-15" stroke="#0C66FF" stroke-width="0.5" cx="7.81112763" cy="14.4064738" r="1"></circle>
                        <circle id="椭圆形备份-18" stroke="#0C66FF" stroke-width="0.5" cx="14.031235" cy="6.13435384" r="1"></circle>
                        <path d="M4.34649878,4.47795228 C3.31675499,5.54044328 2.68292683,6.98888532 2.68292683,8.58536585 C2.68292683,10.2982788 3.41257729,11.8407728 4.57802373,12.9189932 M8.22896208,14.4772217 C8.34686479,14.4842437 8.46569945,14.4878049 8.58536585,14.4878049 C11.4184507,14.4878049 13.7853416,12.4917916 14.3564871,9.82931655 M13.8065603,5.83002438 C12.8167738,3.95832282 10.8500122,2.68292683 8.58536585,2.68292683 C8.41782309,2.68292683 8.25191074,2.68990748 8.08790379,2.70359379" id="形状" stroke="#0C66FF" stroke-width="0.5" stroke-linecap="round"></path>
                    </g>
                    <circle id="椭圆形" fill="#0C66FF" cx="3.03844713" cy="19.7385174" r="1"></circle>
                    <circle id="椭圆形备份-5" fill-opacity="0.5" fill="#0C66FF" cx="7.31707317" cy="4.56097561" r="1"></circle>
                    <circle id="椭圆形备份-6" fill-opacity="0.2" fill="#0C66FF" cx="6.7804878" cy="8.85365854" r="1"></circle>
                    <circle id="椭圆形备份-3" fill-opacity="0.8" fill="#0C66FF" cx="3.60982526" cy="19.3229697" r="1"></circle>
                    <circle id="椭圆形备份-4" fill="#0C66FF" cx="25.8292683" cy="3.2195122" r="1"></circle>
                    <g id="编组-19" transform="translate(11.609756, 7.512195)" stroke="#0C66FF" stroke-width="0.5">
                        <path d="M2.75850117,0.719555131 C2.52759327,0.586240396 2.2698942,0.519583029 2.01219512,0.519583029 C1.75449605,0.519583029 1.49679697,0.586240396 1.26588908,0.719555131 C1.03498118,0.852869866 0.848404669,1.04271513 0.719555131,1.26588908 C0.590705593,1.48906302 0.519583029,1.74556565 0.519583029,2.01219512 C0.519583029,2.54545406 0.804073287,3.03820564 1.26588908,3.30483511 C1.72770486,3.57146458 2.29668538,3.57146458 2.75850117,3.30483511 C2.98940906,3.17152038 3.17598557,2.98167511 3.30483511,2.75850117 C3.43368465,2.53532722 3.50480721,2.27882459 3.50480721,2.01219512 C3.50480721,1.74556565 3.43368465,1.48906302 3.30483511,1.26588908 C3.17598557,1.04271513 2.98940906,0.852869866 2.75850117,0.719555131 Z" id="多边形" fill="url(#linearGradient-5)"></path>
                        <path d="M5.97801336,0.719555131 C5.74710547,0.586240396 5.48940639,0.519583029 5.23170732,0.519583029 C4.97400824,0.519583029 4.71630916,0.586240396 4.48540127,0.719555131 C4.25449338,0.852869866 4.06791686,1.04271513 3.93906733,1.26588908 C3.81021779,1.48906302 3.73909522,1.74556565 3.73909522,2.01219512 C3.73909522,2.54545406 4.02358548,3.03820564 4.48540127,3.30483511 C4.94721706,3.57146458 5.51619757,3.57146458 5.97801336,3.30483511 C6.20892126,3.17152038 6.39549777,2.98167511 6.52434731,2.75850117 C6.65319685,2.53532722 6.72431941,2.27882459 6.72431941,2.01219512 C6.72431941,1.74556565 6.65319685,1.48906302 6.52434731,1.26588908 C6.39549777,1.04271513 6.20892126,0.852869866 5.97801336,0.719555131 Z" id="多边形备份" fill="url(#linearGradient-6)"></path>
                        <path d="M4.36825727,3.67077464 C4.13734937,3.53745991 3.8796503,3.47080254 3.62195122,3.47080254 C3.36425214,3.47080254 3.10655307,3.53745991 2.87564517,3.67077464 C2.41382938,3.93740411 2.12933913,4.43015569 2.12933913,4.96341463 C2.12933913,5.49667357 2.41382938,5.98942515 2.87564517,6.25605462 C3.10655307,6.38936936 3.36425214,6.45602673 3.62195122,6.45602673 C3.8796503,6.45602673 4.13734937,6.38936936 4.36825727,6.25605462 C4.59916516,6.12273989 4.78574167,5.93289463 4.91459121,5.70972068 C5.04344075,5.48654673 5.11456331,5.2300441 5.11456331,4.96341463 C5.11456331,4.43015569 4.83007305,3.93740411 4.36825727,3.67077464 Z" id="多边形备份-2" fill="url(#linearGradient-7)"></path>
                    </g>
                    <polygon id="路径-37" fill-opacity="0.4" fill="#0C66FF" filter="url(#filter-8)" points="18.0617728 11.0034396 18.4103867 11.6267612 16.9611736 12.3650064 16.9611736 14.187356 14.9627737 15.3682304 14.5609756 15.0695007 16.3056183 14.0437662 16.3637925 11.9903655"></polygon>
                </g>
            </g>
        </g>
    </g>
</svg>