<?xml version="1.0" encoding="UTF-8"?>
<svg width="20px" height="20px" viewBox="0 0 20 20" version="1.1" xmlns="http://www.w3.org/2000/svg" xmlns:xlink="http://www.w3.org/1999/xlink">
    <!-- Generator: Sketch 63.1 (92452) - https://sketch.com -->
    <title>形状</title>
    <desc>Created with Sketch.</desc>
    <g id="官网web" stroke="none" stroke-width="1" fill="none" fill-rule="evenodd">
        <g id="首页" transform="translate(-1493.000000, -30.000000)" fill="#FFFFFF" fill-rule="nonzero">
            <path d="M1511.986,40.5 L1506.996,40.5 C1506.924,44.09 1506.096,47.181 1504.903,48.799 C1508.86189,47.9406836 1511.76038,44.5445761 1511.986,40.5 L1511.986,40.5 Z M1511.986,39.5 C1511.76038,35.4554239 1508.86189,32.0593164 1504.903,31.201 C1506.097,32.819 1506.924,35.911 1506.995,39.5 L1511.986,39.5 L1511.986,39.5 Z M1494.014,39.5 L1499.004,39.5 C1499.076,35.91 1499.904,32.819 1501.097,31.201 C1497.13811,32.0593164 1494.23962,35.4554239 1494.014,39.5 L1494.014,39.5 Z M1494.014,40.5 C1494.23962,44.5445761 1497.13811,47.9406836 1501.097,48.799 C1499.903,47.181 1499.076,44.089 1499.005,40.5 L1494.014,40.5 L1494.014,40.5 Z M1505.994,40.5 L1500.006,40.5 C1500.106,45.278 1501.641,49 1503,49 C1504.36,49 1505.894,45.278 1505.995,40.5 L1505.994,40.5 Z M1505.994,39.5 C1505.895,34.722 1504.36,31 1503,31 C1501.64,31 1500.106,34.722 1500.005,39.5 L1505.995,39.5 L1505.994,39.5 Z M1503,50 C1497.477,50 1493,45.523 1493,40 C1493,34.477 1497.477,30 1503,30 C1508.523,30 1513,34.477 1513,40 C1513,45.523 1508.523,50 1503,50 Z" id="形状"></path>
        </g>
    </g>
</svg>