<?xml version="1.0" encoding="UTF-8"?>
<svg width="22px" height="28px" viewBox="0 0 22 28" version="1.1" xmlns="http://www.w3.org/2000/svg" xmlns:xlink="http://www.w3.org/1999/xlink">
    <!-- Generator: Sketch 63.1 (92452) - https://sketch.com -->
    <title>Fill 1</title>
    <desc>Created with Sketch.</desc>
    <g id="官网web&amp;移动端" stroke="none" stroke-width="1" fill="none" fill-rule="evenodd">
        <g id="关于黑顿" transform="translate(-981.000000, -1487.000000)" fill="#444444">
            <path d="M992,1493.68278 C989.974949,1493.68261 988.333064,1495.34909 988.332903,1497.40544 C988.33258,1499.46146 989.973981,1501.12859 991.999032,1501.12892 L992,1501.12892 C994.025051,1501.12859 995.666452,1499.46146 995.66629,1497.40544 C995.665968,1495.34958 994.024728,1493.68294 992,1493.68278 M992,1487 C998.074829,1487 1003,1492.04693 1003,1498.27185 C1003,1502.32394 999.504239,1507.82955 992.513361,1514.78721 C992.228125,1515.07093 991.771714,1515.07093 991.486639,1514.78721 L991.156713,1514.45729 C984.385894,1507.65542 981,1502.26055 981,1498.27185 C981,1492.04693 985.92501,1487 992,1487" id="Fill-1"></path>
        </g>
    </g>
</svg>