<?xml version="1.0" encoding="UTF-8"?>
<svg width="247px" height="247px" viewBox="0 0 247 247" version="1.1" xmlns="http://www.w3.org/2000/svg" xmlns:xlink="http://www.w3.org/1999/xlink">
    <!-- Generator: Sketch 63.1 (92452) - https://sketch.com -->
    <title>编组 18备份</title>
    <desc>Created with Sketch.</desc>
    <defs>
        <linearGradient x1="0%" y1="5.74662978%" x2="100%" y2="87.8486548%" id="linearGradient-1">
            <stop stop-color="#EEEEEE" stop-opacity="0.262155813" offset="0%"></stop>
            <stop stop-color="#C7C3C3" offset="100%"></stop>
        </linearGradient>
        <linearGradient x1="79.412903%" y1="88.3061312%" x2="34.6498186%" y2="16.6737055%" id="linearGradient-2">
            <stop stop-color="#EEEEEE" stop-opacity="0.336101399" offset="0.409100507%"></stop>
            <stop stop-color="#C7C3C3" offset="100%"></stop>
        </linearGradient>
    </defs>
    <g id="官网web" stroke="none" stroke-width="1" fill="none" fill-rule="evenodd">
        <g id="首页" transform="translate(-714.000000, -3338.000000)">
            <g id="编组-18备份" transform="translate(837.500000, 3461.500000) scale(-1, 1) translate(-837.500000, -3461.500000) translate(714.000000, 3338.000000)">
                <path d="M247,232.628759 L247,232.950188 L0,232.950188 L0,232.628759 L247,232.628759 Z M247,214.155075 L247,214.476504 L0,214.476504 L0,214.155075 L247,214.155075 Z M247,194.260338 L247,194.581767 L0,194.581767 L0,194.260338 L247,194.260338 Z M247,174.365602 L247,174.68703 L0,174.68703 L0,174.365602 L247,174.365602 Z M247,154.470865 L247,154.792293 L0,154.792293 L0,154.470865 L247,154.470865 Z M247,134.576128 L247,134.897556 L0,134.897556 L0,134.576128 L247,134.576128 Z M247,116.102444 L247,116.423872 L0,116.423872 L0,116.102444 L247,116.102444 Z M247,96.2077068 L247,96.5291353 L0,96.5291353 L0,96.2077068 L247,96.2077068 Z M247,76.3129699 L247,76.6343985 L0,76.6343985 L0,76.3129699 L247,76.3129699 Z M247,56.4182331 L247,56.7396617 L0,56.7396617 L0,56.4182331 L247,56.4182331 Z M247,36.5234962 L247,36.8449248 L0,36.8449248 L0,36.5234962 L247,36.5234962 Z M247,18.049812 L247,18.3712406 L0,18.3712406 L0,18.049812 L247,18.049812 Z" id="形状结合" fill="url(#linearGradient-1)"></path>
                <path d="M247,230.624913 L247,230.944854 L1,230.944854 L1,230.624913 L247,230.624913 Z M247,210.691139 L247,211.011079 L1,211.011079 L1,210.691139 L247,210.691139 Z M247,190.757364 L247,191.077304 L1,191.077304 L1,190.757364 L247,190.757364 Z M247,172.24743 L247,172.567371 L1,172.567371 L1,172.24743 L247,172.24743 Z M247,152.313655 L247,152.633596 L1,152.633596 L1,152.313655 L247,152.313655 Z M247,132.37988 L247,132.699821 L1,132.699821 L1,132.37988 L247,132.37988 Z M247,113.869947 L247,114.189887 L1,114.189887 L1,113.869947 L247,113.869947 Z M247,93.9361718 L247,94.2561122 L1,94.2561122 L1,93.9361718 L247,93.9361718 Z M247,74.0023969 L247,74.3223374 L1,74.3223374 L1,74.0023969 L247,74.0023969 Z M247,55.4924632 L247,55.8124036 L1,55.8124036 L1,55.4924632 L247,55.4924632 Z M247,35.5586883 L247,35.8786288 L1,35.8786288 L1,35.5586883 L247,35.5586883 Z M247,15.6249135 L247,15.944854 L1,15.944854 L1,15.6249135 L247,15.6249135 Z" id="形状结合" fill="url(#linearGradient-2)" transform="translate(124.000000, 123.284884) rotate(90.000000) translate(-124.000000, -123.284884) "></path>
            </g>
        </g>
    </g>
</svg>