<?xml version="1.0" encoding="UTF-8"?>
<svg width="30px" height="23px" viewBox="0 0 30 23" version="1.1" xmlns="http://www.w3.org/2000/svg" xmlns:xlink="http://www.w3.org/1999/xlink">
    <!-- Generator: Sketch 63.1 (92452) - https://sketch.com -->
    <title>编组 14</title>
    <desc>Created with Sketch.</desc>
    <defs>
        <linearGradient x1="100%" y1="50%" x2="0%" y2="50%" id="linearGradient-1">
            <stop stop-color="#0C66FF" stop-opacity="0" offset="0%"></stop>
            <stop stop-color="#0C66FF" stop-opacity="0.101289336" offset="100%"></stop>
        </linearGradient>
        <linearGradient x1="56.3860134%" y1="12.2002559%" x2="34.8444502%" y2="89.4689693%" id="linearGradient-2">
            <stop stop-color="#0C66FF" stop-opacity="0" offset="0%"></stop>
            <stop stop-color="#0C66FF" stop-opacity="0.101289336" offset="100%"></stop>
        </linearGradient>
        <linearGradient x1="0%" y1="52.4037685%" x2="100%" y2="52.4037685%" id="linearGradient-3">
            <stop stop-color="#0C66FF" stop-opacity="0.3046875" offset="0%"></stop>
            <stop stop-color="#0C66FF" stop-opacity="0" offset="100%"></stop>
        </linearGradient>
        <linearGradient x1="56.7335973%" y1="12.2002559%" x2="34.0195497%" y2="89.4689693%" id="linearGradient-4">
            <stop stop-color="#0C66FF" stop-opacity="0" offset="0%"></stop>
            <stop stop-color="#0C66FF" stop-opacity="0.101289336" offset="100%"></stop>
        </linearGradient>
        <linearGradient x1="50%" y1="0%" x2="50%" y2="100%" id="linearGradient-5">
            <stop stop-color="#0C66FF" stop-opacity="0.1" offset="0%"></stop>
            <stop stop-color="#0C66FF" stop-opacity="0.178267045" offset="100%"></stop>
        </linearGradient>
        <linearGradient x1="50%" y1="0%" x2="50%" y2="100%" id="linearGradient-6">
            <stop stop-color="#0C66FF" stop-opacity="0.2" offset="0%"></stop>
            <stop stop-color="#0C66FF" stop-opacity="0.178267045" offset="100%"></stop>
        </linearGradient>
        <filter x="-223.6%" y="-172.0%" width="547.3%" height="444.1%" filterUnits="objectBoundingBox" id="filter-7">
            <feGaussianBlur stdDeviation="2" in="SourceGraphic"></feGaussianBlur>
        </filter>
    </defs>
    <g id="官网web" stroke="none" stroke-width="1" fill="none" fill-rule="evenodd">
        <g id="首页交互" transform="translate(-834.000000, -268.000000)">
            <g id="编组-7" transform="translate(814.000000, 68.000000)">
                <g id="编组-14" transform="translate(20.000000, 200.000000)">
                    <rect id="矩形" fill="#0C66FF" opacity="0.1" x="15.9282228" y="14" width="14" height="8"></rect>
                    <circle id="椭圆形" fill="#0C66FF" cx="5.13553988" cy="19.7439024" r="1"></circle>
                    <path d="M4.69651549,3.76829268 C4.84468945,3.76829268 4.96480817,3.64817396 4.96480817,3.5 C4.96480817,3.35182604 4.84468945,3.23170732 4.69651549,3.23170732 C4.54834153,3.23170732 4.42822281,3.35182604 4.42822281,3.5 C4.42822281,3.64817396 4.54834153,3.76829268 4.69651549,3.76829268 Z" id="椭圆形备份-5" fill-opacity="0.5" fill="#0C66FF"></path>
                    <circle id="椭圆形备份-6" fill-opacity="0.2" fill="#0C66FF" cx="5.07456427" cy="8.92682927" r="1"></circle>
                    <circle id="椭圆形备份-3" fill-opacity="0.8" fill="#0C66FF" cx="4.19651549" cy="18.2682927" r="1"></circle>
                    <rect id="矩形备份-11" fill="url(#linearGradient-1)" x="18.2209057" y="12.6829268" width="10.7317073" height="5.36585366"></rect>
                    <path d="M22.4282228,2.5 C22.5763968,2.5 22.6965155,2.37988127 22.6965155,2.23170732 C22.6965155,2.08353336 22.5763968,1.96341463 22.4282228,1.96341463 C22.2800488,1.96341463 22.1599301,2.08353336 22.1599301,2.23170732 C22.1599301,2.37988127 22.2800488,2.5 22.4282228,2.5 Z" id="椭圆形备份-4" fill="#0C66FF"></path>
                    <path d="M16.0148955,-0.567216437 L23.0148955,3.44497868 C24.2586319,4.15785198 25.0257838,5.48179283 25.0257838,6.91534386 L25.0257838,14.8844848 C25.0257838,16.3207369 24.2557631,17.64674 23.0083363,18.3586013 L15.6903433,22.5347151 C14.423014,23.2579341 12.8624178,23.2336687 11.6181861,22.471398 L4.93617911,18.3777087 C3.74932562,17.6505904 3.02578378,16.3587866 3.02578378,14.9669093 L3.02578378,6.91534386 C3.02578378,5.48179283 3.79293564,4.15785198 5.03667204,3.44497868 L12.036672,-0.567216437 C13.2687303,-1.2733962 14.7828372,-1.2733962 16.0148955,-0.567216437 Z" id="多边形" fill="url(#linearGradient-2)" transform="translate(14.025784, 11.000000) rotate(-270.000000) translate(-14.025784, -11.000000) "></path>
                    <polyline id="路径" stroke-opacity="0.2" stroke="#0C66FF" stroke-width="0.5" stroke-linecap="round" stroke-linejoin="round" transform="translate(3.448811, 10.551189) rotate(-270.000000) translate(-3.448811, -10.551189) " points="13.8976216 8.03060117 4 13.7036282 -7 7.39875016"></polyline>
                    <polyline id="路径备份-8" stroke-opacity="0.2" stroke="#0C66FF" stroke-width="0.5" stroke-linecap="round" stroke-linejoin="round" transform="translate(24.448811, 10.801189) scale(-1, 1) rotate(-270.000000) translate(-24.448811, -10.801189) " points="35.1476216 8.28060117 24.75 13.9536282 13.75 7.64875016"></polyline>
                    <path d="M12.5623691,4.36585366 L13.9282228,4.36585366 L13.9282228,4.36585366 L13.9282228,16.7073171 L12.5623691,16.7073171 C10.3532301,16.7073171 8.56236915,14.9164561 8.56236915,12.7073171 L8.56236915,8.36585366 C8.56236915,6.15671466 10.3532301,4.36585366 12.5623691,4.36585366 Z" id="矩形" fill="url(#linearGradient-3)"></path>
                    <polygon id="路径" stroke="#0C66FF" stroke-width="0.5" fill-rule="nonzero" points="15.5379789 5.6097561 15.5379789 6.6097561 10.1721252 6.6097561 10.1721252 5.6097561"></polygon>
                    <polygon id="路径" stroke="#0C66FF" stroke-width="0.5" fill-rule="nonzero" points="16.6111496 7.6097561 16.6111496 8.6097561 10.1721252 8.6097561 10.1721252 7.6097561"></polygon>
                    <polygon id="路径" stroke="#0C66FF" stroke-width="0.5" fill-rule="nonzero" points="12.8550521 9.6097561 12.8550521 10.6097561 10.1721252 10.6097561 10.1721252 9.6097561"></polygon>
                    <polygon id="路径" stroke="#0C66FF" stroke-width="0.5" fill-rule="nonzero" points="15.0013935 11.6097561 15.0013935 12.6097561 10.1721252 12.6097561 10.1721252 11.6097561"></polygon>
                    <polygon id="路径" stroke="#0C66FF" stroke-width="0.5" fill-rule="nonzero" points="16.1721252 13.6097561 16.1721252 14.6097561 10.1721252 14.6097561 10.1721252 13.6097561"></polygon>
                    <polygon id="路径" stroke="#0C66FF" stroke-width="0.5" fill-rule="nonzero" points="13.9282228 15.6097561 13.9282228 16.6097561 10.1721252 16.6097561 10.1721252 15.6097561"></polygon>
                    <path d="M17.147735,18.2926829 C15.3591171,18.2926829 12.6761903,18.2926829 9.09895451,18.2926829 C8.20991077,18.2926829 7.48919842,17.5519775 7.48919842,16.6382712 L7.48919842,4.94709469 C7.48919842,4.0333883 8.20991077,3.29268293 9.09895451,3.29268293 L18.7574911,3.29268293 C19.6465348,3.29268293 20.3672472,4.0333883 20.3672472,4.94709469 C20.3672472,8.22414625 20.3672472,10.6819349 20.3672472,12.3204607" id="路径" stroke="#0C66FF" stroke-width="0.5" stroke-linecap="round" fill-rule="nonzero"></path>
                    <path d="M5.71116697,1.27577195 L9.0038499,3.12790609 C9.31872688,3.3050244 9.51358866,3.63820832 9.51358866,3.99948163 L9.51358866,7.65905495 C9.51358866,8.02032827 9.31872688,8.35351219 9.0038499,8.53063049 L5.71116697,10.3827646 C5.40675343,10.5539973 5.03505804,10.5539973 4.73064449,10.3827646 L1.43796157,8.53063049 C1.12308459,8.35351219 0.928222807,8.02032827 0.928222807,7.65905495 L0.928222807,3.99948163 C0.928222807,3.63820832 1.12308459,3.3050244 1.43796157,3.12790609 L4.73064449,1.27577195 C5.03505804,1.10453933 5.40675343,1.10453933 5.71116697,1.27577195 Z" id="多边形备份" fill="url(#linearGradient-4)" transform="translate(5.220906, 5.829268) rotate(-270.000000) translate(-5.220906, -5.829268) "></path>
                    <path d="M20.9922472,13.8282663 C20.7988715,13.7166208 20.5830594,13.6607981 20.3672472,13.6607981 C20.151435,13.6607981 19.9356229,13.7166208 19.7422472,13.8282663 L18.6511127,14.4582331 C18.2643613,14.6815241 18.0261127,15.0941829 18.0261127,15.5407649 L18.0261127,16.8006985 C18.0261127,17.2472805 18.2643613,17.6599393 18.6511127,17.8832303 L19.7422472,18.5131971 C19.9356229,18.6248426 20.151435,18.6806653 20.3672472,18.6806653 C20.5830594,18.6806653 20.7988715,18.6248426 20.9922472,18.5131971 L22.0833817,17.8832303 C22.4701331,17.6599393 22.7083817,17.2472805 22.7083817,16.8006985 L22.7083817,15.5407649 C22.7083817,15.3174739 22.6488195,15.1026637 22.5409135,14.9157649 C22.4330074,14.7288661 22.2767574,14.5698786 22.0833817,14.4582331 L20.9922472,13.8282663 Z" id="多边形" stroke="#0C66FF" stroke-width="0.5" fill="url(#linearGradient-5)"></path>
                    <path d="M18.0867594,14.5609756 C18.3090203,14.5609756 18.4891984,14.7411537 18.4891984,14.9634146 C18.4891984,15.1856756 18.3090203,15.3658537 18.0867594,15.3658537 C17.8644985,15.3658537 17.6843204,15.1856756 17.6843204,14.9634146 C17.6843204,14.7411537 17.8644985,14.5609756 18.0867594,14.5609756 Z" id="路径" stroke="#0C66FF" stroke-width="0.5" fill="#FFFFFF" fill-rule="nonzero"></path>
                    <path d="M22.647735,14.5609756 C22.8699959,14.5609756 23.050174,14.7411537 23.050174,14.9634146 C23.050174,15.1856756 22.8699959,15.3658537 22.647735,15.3658537 C22.4254741,15.3658537 22.245296,15.1856756 22.245296,14.9634146 C22.245296,14.7411537 22.4254741,14.5609756 22.647735,14.5609756 Z" id="路径备份-6" stroke="#0C66FF" stroke-width="0.5" fill="#FFFFFF" fill-rule="nonzero"></path>
                    <path d="M20.5013935,18.3170732 C20.7236545,18.3170732 20.9038326,18.4972513 20.9038326,18.7195122 C20.9038326,18.9417731 20.7236545,19.1219512 20.5013935,19.1219512 C20.2791326,19.1219512 20.0989545,18.9417731 20.0989545,18.7195122 C20.0989545,18.4972513 20.2791326,18.3170732 20.5013935,18.3170732 Z" id="路径备份-7" stroke="#0C66FF" stroke-width="0.5" fill="#FFFFFF" fill-rule="nonzero"></path>
                    <path d="" id="多边形" stroke="#0C66FF" stroke-width="0.5" fill="url(#linearGradient-6)"></path>
                    <polygon id="路径-25" fill-opacity="0.371803977" fill="#0C66FF" filter="url(#filter-7)" points="22.4885766 15.902439 23.050174 15.9351953 22.9999472 18.0687628 20.4333928 19.3902439 20.3672472 18.7521442 22.4078032 17.5502961 22.4885766 17.2128537"></polygon>
                    <polyline id="路径-9" stroke="#0C66FF" stroke-width="0.5" stroke-linecap="round" stroke-linejoin="round" points="19.8306618 15.902439 20.3672472 16.1707317 20.9038326 15.902439"></polyline>
                    <line x1="20.3672472" y1="16.1707317" x2="20.3672472" y2="16.7073171" id="路径-10" stroke="#0C66FF" stroke-width="0.5" stroke-linecap="round"></line>
                </g>
            </g>
        </g>
    </g>
</svg>