<?xml version="1.0" encoding="UTF-8"?>
<svg width="30px" height="22px" viewBox="0 0 30 22" version="1.1" xmlns="http://www.w3.org/2000/svg" xmlns:xlink="http://www.w3.org/1999/xlink">
    <!-- Generator: Sketch 63.1 (92452) - https://sketch.com -->
    <title>编组 11</title>
    <desc>Created with Sketch.</desc>
    <defs>
        <linearGradient x1="100%" y1="50%" x2="0%" y2="50%" id="linearGradient-1">
            <stop stop-color="#0C66FF" stop-opacity="0" offset="0%"></stop>
            <stop stop-color="#0C66FF" stop-opacity="0.101289336" offset="100%"></stop>
        </linearGradient>
        <linearGradient x1="100%" y1="50%" x2="0%" y2="50%" id="linearGradient-2">
            <stop stop-color="#0C66FF" stop-opacity="0" offset="0%"></stop>
            <stop stop-color="#0C66FF" stop-opacity="0.101289336" offset="100%"></stop>
        </linearGradient>
        <linearGradient x1="50%" y1="40.4296875%" x2="49.148234%" y2="60.1802977%" id="linearGradient-3">
            <stop stop-color="#0C66FF" stop-opacity="0.493498689" offset="0%"></stop>
            <stop stop-color="#0C66FF" stop-opacity="0.0122377622" offset="100%"></stop>
        </linearGradient>
    </defs>
    <g id="官网web" stroke="none" stroke-width="1" fill="none" fill-rule="evenodd">
        <g id="首页交互" transform="translate(-834.000000, -142.000000)">
            <g id="编组-7" transform="translate(814.000000, 68.000000)">
                <g id="编组-11" transform="translate(20.000000, 74.000000)">
                    <rect id="矩形备份-26" fill="#0C66FF" opacity="0.1" x="4" y="4" width="26" height="18"></rect>
                    <rect id="矩形备份-27" fill="url(#linearGradient-1)" x="16" y="0" width="14" height="15"></rect>
                    <rect id="矩形备份-28" fill="url(#linearGradient-2)" x="0" y="2.14634146" width="17" height="12.3414634"></rect>
                    <polygon id="路径-19备份-2" fill-opacity="0.2" fill="#0C66FF" fill-rule="nonzero" points="0 17 28 17 28 17.5 0 17.5"></polygon>
                    <path d="M0.5,18 C0.776142375,18 1,17.7761424 1,17.5 C1,17.2238576 0.776142375,17 0.5,17 C0.223857625,17 0,17.2238576 0,17.5 C0,17.7761424 0.223857625,18 0.5,18 Z" id="椭圆形备份-7" fill="#0C66FF"></path>
                    <circle id="椭圆形备份-8" fill-opacity="0.5" fill="#0C66FF" opacity="0.800000012" cx="3.85365854" cy="2.68292683" r="1"></circle>
                    <circle id="椭圆形备份-9" fill-opacity="0.2" fill="#0C66FF" cx="5.19512195" cy="6.17073171" r="1"></circle>
                    <path d="M2.5,17.75 C2.63807119,17.75 2.75,17.6380712 2.75,17.5 C2.75,17.3619288 2.63807119,17.25 2.5,17.25 C2.36192881,17.25 2.25,17.3619288 2.25,17.5 C2.25,17.6380712 2.36192881,17.75 2.5,17.75 Z" id="椭圆形备份-10" fill-opacity="0.8" fill="#0C66FF"></path>
                    <path d="M25.2682927,17.5365854 C25.4164666,17.5365854 25.5365854,17.4164666 25.5365854,17.2682927 C25.5365854,17.1201187 25.4164666,17 25.2682927,17 C25.1201187,17 25,17.1201187 25,17.2682927 C25,17.4164666 25.1201187,17.5365854 25.2682927,17.5365854 Z" id="椭圆形备份-11" fill-opacity="0.8" fill="#0C66FF" opacity="0.400000006"></path>
                    <path d="M25.0250827,6.18902439 L7.90174656,6.18902439 C7.53086602,6.18902439 7.19546585,6.33472738 6.95254364,6.56914547 C6.70633947,6.80673061 6.55487805,7.13518085 6.55487805,7.49749415 L6.55487805,18.2586034 C6.55487805,18.6209167 6.70633947,18.9493669 6.95254364,19.1869521 C7.19546585,19.4213702 7.53086602,19.5670732 7.90174656,19.5670732 L25.0250827,19.5670732 C25.3959632,19.5670732 25.7313634,19.4213702 25.9742856,19.1869521 C26.2204898,18.9493669 26.3719512,18.6209167 26.3719512,18.2586034 L26.3719512,7.49749415 C26.3719512,7.13518085 26.2204898,6.80673061 25.9742856,6.56914547 C25.7313634,6.33472738 25.3959632,6.18902439 25.0250827,6.18902439 Z" id="矩形备份-29" stroke="#0C66FF" stroke-width="0.5" fill-rule="nonzero"></path>
                    <path d="M8.87804878,7.51219512 L24.0487805,7.51219512 C24.6010652,7.51219512 25.0487805,7.95991037 25.0487805,8.51219512 L25.0487805,15.0243902 L25.0487805,15.0243902 L7.87804878,15.0243902 L7.87804878,8.51219512 C7.87804878,7.95991037 8.32576403,7.51219512 8.87804878,7.51219512 Z" id="矩形备份-30" fill="url(#linearGradient-3)"></path>
                    <path d="M16.61393,11.9768956 L18.0512251,13.6195186 C18.1239615,13.7026459 18.115538,13.8289984 18.0324107,13.9017349 C17.9959524,13.9336359 17.9491544,13.9512195 17.9007098,13.9512195 L15.0261195,13.9512195 C14.9156625,13.9512195 14.8261195,13.8616765 14.8261195,13.7512195 C14.8261195,13.7027749 14.8437031,13.6559769 14.8756042,13.6195186 L16.3128993,11.9768956 C16.3856357,11.8937683 16.5119882,11.8853448 16.5951156,11.9580812 C16.6017977,11.963928 16.6080831,11.9702134 16.61393,11.9768956 Z" id="三角形备份-2" fill="#0C66FF" transform="translate(16.463415, 12.878049) rotate(-270.000000) translate(-16.463415, -12.878049) "></path>
                    <rect id="矩形" stroke="#0C66FF" x="8.91463415" y="8.54878049" width="2.2195122" height="1" rx="0.5"></rect>
                    <rect id="矩形备份-47" stroke="#0C66FF" x="8.91463415" y="17.402439" width="2.2195122" height="1" rx="0.5"></rect>
                    <rect id="矩形备份-44" stroke="#0C66FF" x="13.2073171" y="8.54878049" width="2.2195122" height="1" rx="0.5"></rect>
                    <rect id="矩形备份-48" stroke="#0C66FF" x="13.2073171" y="17.402439" width="2.2195122" height="1" rx="0.5"></rect>
                    <rect id="矩形备份-45" stroke="#0C66FF" x="17.5" y="8.54878049" width="2.2195122" height="1" rx="0.5"></rect>
                    <rect id="矩形备份-49" stroke="#0C66FF" x="17.5" y="17.402439" width="2.2195122" height="1" rx="0.5"></rect>
                    <rect id="矩形备份-46" stroke="#0C66FF" x="21.7926829" y="8.54878049" width="2.2195122" height="1" rx="0.5"></rect>
                    <rect id="矩形备份-50" stroke="#0C66FF" x="21.7926829" y="17.402439" width="2.2195122" height="1" rx="0.5"></rect>
                </g>
            </g>
        </g>
    </g>
</svg>