<?xml version="1.0" encoding="UTF-8"?>
<svg width="120px" height="82px" viewBox="0 0 120 82" version="1.1" xmlns="http://www.w3.org/2000/svg" xmlns:xlink="http://www.w3.org/1999/xlink">
    <!-- Generator: Sketch 63.1 (92452) - https://sketch.com -->
    <title>编组 26备份</title>
    <desc>Created with Sketch.</desc>
    <defs>
        <linearGradient x1="100%" y1="50%" x2="0%" y2="50%" id="linearGradient-1">
            <stop stop-color="#0C66FF" stop-opacity="0" offset="0%"></stop>
            <stop stop-color="#0C66FF" stop-opacity="0.14" offset="100%"></stop>
        </linearGradient>
        <linearGradient x1="54.5785284%" y1="0%" x2="54.5785284%" y2="100%" id="linearGradient-2">
            <stop stop-color="#0C66FF" stop-opacity="0" offset="0%"></stop>
            <stop stop-color="#0C66FF" stop-opacity="0.101289336" offset="100%"></stop>
        </linearGradient>
        <linearGradient x1="50.8507651%" y1="104.635595%" x2="50.8507651%" y2="16.9830487%" id="linearGradient-3">
            <stop stop-color="#0C66FF" stop-opacity="0" offset="0%"></stop>
            <stop stop-color="#0C66FF" stop-opacity="0.4" offset="100%"></stop>
            <stop stop-color="#0C66FF" stop-opacity="0.309058129" offset="100%"></stop>
        </linearGradient>
        <filter x="-34.1%" y="-39.5%" width="168.2%" height="178.9%" filterUnits="objectBoundingBox" id="filter-4">
            <feGaussianBlur stdDeviation="5" in="SourceGraphic"></feGaussianBlur>
        </filter>
        <filter x="-349.4%" y="-349.4%" width="798.8%" height="798.8%" filterUnits="objectBoundingBox" id="filter-5">
            <feGaussianBlur stdDeviation="2" in="SourceGraphic"></feGaussianBlur>
        </filter>
        <filter x="-349.4%" y="-349.4%" width="798.7%" height="798.8%" filterUnits="objectBoundingBox" id="filter-6">
            <feGaussianBlur stdDeviation="2" in="SourceGraphic"></feGaussianBlur>
        </filter>
        <filter x="-349.4%" y="-349.4%" width="798.7%" height="798.8%" filterUnits="objectBoundingBox" id="filter-7">
            <feGaussianBlur stdDeviation="2" in="SourceGraphic"></feGaussianBlur>
        </filter>
        <filter x="-349.4%" y="-349.4%" width="798.8%" height="798.8%" filterUnits="objectBoundingBox" id="filter-8">
            <feGaussianBlur stdDeviation="2" in="SourceGraphic"></feGaussianBlur>
        </filter>
        <filter x="-349.4%" y="-349.4%" width="798.8%" height="798.8%" filterUnits="objectBoundingBox" id="filter-9">
            <feGaussianBlur stdDeviation="2" in="SourceGraphic"></feGaussianBlur>
        </filter>
        <filter x="-349.4%" y="-349.4%" width="798.8%" height="798.8%" filterUnits="objectBoundingBox" id="filter-10">
            <feGaussianBlur stdDeviation="2" in="SourceGraphic"></feGaussianBlur>
        </filter>
        <filter x="-465.8%" y="-465.8%" width="1031.7%" height="1031.7%" filterUnits="objectBoundingBox" id="filter-11">
            <feGaussianBlur stdDeviation="2" in="SourceGraphic"></feGaussianBlur>
        </filter>
    </defs>
    <g id="官网web" stroke="none" stroke-width="1" fill="none" fill-rule="evenodd">
        <g id="首页" transform="translate(-460.000000, -2035.000000)">
            <g id="编组-26备份" transform="translate(460.000000, 2035.000000)">
                <polygon id="矩形备份-10" fill="url(#linearGradient-1)" points="16 20.3095975 46 0 46 82 16 61.6904025"></polygon>
                <polygon id="矩形备份-17" fill="url(#linearGradient-1)" points="0 20.3095975 30 0 30 82 0 61.6904025"></polygon>
                <polygon id="矩形备份-21" fill="url(#linearGradient-1)" transform="translate(89.000000, 41.000000) scale(-1, 1) translate(-89.000000, -41.000000) " points="74 20.3095975 104 0 104 82 74 61.6904025"></polygon>
                <polygon id="矩形备份-36" fill="url(#linearGradient-1)" transform="translate(105.000000, 41.000000) scale(-1, 1) translate(-105.000000, -41.000000) " points="90 20.3095975 120 0 120 82 90 61.6904025"></polygon>
                <path d="M60,11.0360445 L33.8463919,58.5 L86.1536081,58.5 L60,11.0360445 Z" id="三角形" stroke="#0C66FF"></path>
                <path d="M60,24.0360445 L33.8463919,71.5 L86.1536081,71.5 L60,24.0360445 Z" id="三角形" stroke="#0C66FF" transform="translate(60.000000, 47.500000) scale(1, -1) translate(-60.000000, -47.500000) "></path>
                <polygon id="矩形备份-11" fill="url(#linearGradient-2)" points="40 66 80 66 67.0967742 78 52.9032258 78"></polygon>
                <polygon id="三角形" fill="url(#linearGradient-3)" filter="url(#filter-4)" points="60 10 82 48 38 48"></polygon>
                <path d="M82.5,65.5 C83.3284271,65.5 84,64.8284271 84,64 C84,63.1715729 83.3284271,62.5 82.5,62.5 C81.6715729,62.5 81,63.1715729 81,64 C81,64.8284271 81.6715729,65.5 82.5,65.5 Z" id="椭圆形" fill="#0C66FF"></path>
                <circle id="椭圆形备份-5" fill-opacity="0.5" fill="#0C66FF" cx="25.0429338" cy="15.0268336" r="1"></circle>
                <circle id="椭圆形备份-6" fill-opacity="0.2" fill="#0C66FF" cx="18.529517" cy="32.7710197" r="2"></circle>
                <polyline id="路径-35" stroke="#0C66FF" stroke-width="0.5" opacity="0.520089286" stroke-linecap="round" stroke-linejoin="round" points="30 29 38 41.5405405 30 53"></polyline>
                <circle id="椭圆形备份-26" fill="#0C66FF" cx="33" cy="49" r="1"></circle>
                <path d="M32,33 C32.5522847,33 33,32.5522847 33,32 C33,31.4477153 32.5522847,31 32,31 C31.4477153,31 31,31.4477153 31,32 C31,32.5522847 31.4477153,33 32,33 Z" id="椭圆形备份-3" fill-opacity="0.8" fill="#0C66FF"></path>
                <path d="M35,46.5 C35.2761424,46.5 35.5,46.2761424 35.5,46 C35.5,45.7238576 35.2761424,45.5 35,45.5 C34.7238576,45.5 34.5,45.7238576 34.5,46 C34.5,46.2761424 34.7238576,46.5 35,46.5 Z" id="椭圆形备份-27" fill-opacity="0.8" fill="#0C66FF"></path>
                <path d="M70,71.5 C70.5522847,71.5 71,71.0522847 71,70.5 C71,69.9477153 70.5522847,69.5 70,69.5 C69.4477153,69.5 69,69.9477153 69,70.5 C69,71.0522847 69.4477153,71.5 70,71.5 Z" id="椭圆形备份-28" fill-opacity="0.8" fill="#0C66FF"></path>
                <circle id="椭圆形备份-4" fill="#0C66FF" cx="101.035778" cy="1.93202147" r="1"></circle>
                <circle id="椭圆形" stroke="#0C66FF" fill="#9BC0FF" cx="60" cy="11" r="1.5"></circle>
                <circle id="椭圆形备份-12" fill="#0C66FF" cx="61" cy="71" r="2"></circle>
                <circle id="椭圆形备份" stroke="#0C66FF" fill="#9BC0FF" cx="34" cy="58" r="1.5"></circle>
                <circle id="椭圆形备份-13" fill="#0C66FF" cx="34" cy="23" r="2"></circle>
                <circle id="椭圆形备份-2" stroke="#0C66FF" fill="#9BC0FF" cx="86" cy="58" r="1.5"></circle>
                <circle id="椭圆形备份-14" fill="#0C66FF" cx="88" cy="23" r="2"></circle>
                <line x1="57.7638799" y1="26.3275989" x2="48.9807979" y2="41.4498589" id="路径-27" stroke="#0C66FF" stroke-width="0.5" opacity="0.471935454" stroke-linecap="round" stroke-linejoin="round"></line>
                <line x1="71.0733611" y1="26.3275989" x2="62.2902791" y2="41.4498589" id="路径-27备份" stroke="#0C66FF" stroke-width="0.5" opacity="0.471935454" stroke-linecap="round" stroke-linejoin="round" transform="translate(66.681820, 33.888729) scale(-1, 1) translate(-66.681820, -33.888729) "></line>
                <line x1="64.0531562" y1="37.0237891" x2="70.5331552" y2="54.2117982" id="路径-28备份" stroke="#0C66FF" stroke-width="0.5" opacity="0.471935454" stroke-linecap="round" stroke-linejoin="round" transform="translate(67.293156, 45.617794) scale(-1, 1) translate(-67.293156, -45.617794) "></line>
                <line x1="49.5210038" y1="37.0237891" x2="56.0010028" y2="54.2117982" id="路径-28" stroke="#0C66FF" stroke-width="0.5" opacity="0.471935454" stroke-linecap="round" stroke-linejoin="round"></line>
                <line x1="44.1323951" y1="26.1073345" x2="78.9087815" y2="53.5849732" id="路径-31" stroke-opacity="0.0972465035" stroke="#0C66FF" stroke-width="0.5" stroke-linecap="round" stroke-linejoin="round"></line>
                <line x1="42.3712778" y1="26.3220036" x2="75.6449808" y2="53.5849732" id="路径-31备份" stroke-opacity="0.0972465035" stroke="#0C66FF" stroke-width="0.5" stroke-linecap="round" stroke-linejoin="round" transform="translate(58.922677, 39.953488) scale(-1, 1) translate(-58.922677, -39.953488) "></line>
                <line x1="74.7387316" y1="41.4498589" x2="44.7717596" y2="55.1949911" id="路径-30" stroke-opacity="0.0322333916" stroke="#0C66FF" stroke-width="0.5" stroke-linecap="round" stroke-linejoin="round"></line>
                <line x1="45.2065086" y1="40.6368704" x2="73.3043308" y2="56.2356821" id="路径-32" stroke-opacity="0.0322333916" stroke="#0C66FF" stroke-width="0.5" stroke-linecap="round" stroke-linejoin="round"></line>
                <line x1="40" y1="30.0332851" x2="74.7813314" y2="39.3208565" id="路径-33" stroke-opacity="0.0322333916" stroke="#0C66FF" stroke-width="0.5" stroke-linecap="round" stroke-linejoin="round"></line>
                <line x1="78.9087815" y1="29.2200358" x2="47.5932413" y2="39.9534884" id="路径-34" stroke-opacity="0.0322333916" stroke="#0C66FF" stroke-width="0.5" stroke-linecap="round" stroke-linejoin="round"></line>
                <circle id="椭圆形备份-15" fill="#0C66FF" opacity="0.614025298" filter="url(#filter-5)" cx="59.2486583" cy="23.4722719" r="1"></circle>
                <circle id="椭圆形备份-17" fill="#0C66FF" filter="url(#filter-6)" cx="65.4740608" cy="23.4722719" r="1"></circle>
                <circle id="椭圆形备份-18" fill="#0C66FF" filter="url(#filter-7)" cx="57.5313059" cy="47.3005367" r="1"></circle>
                <circle id="椭圆形备份-19" fill="#0C66FF" opacity="0.537923177" filter="url(#filter-8)" cx="52.8085868" cy="34.4203936" r="1"></circle>
                <circle id="椭圆形备份-20" fill="#0C66FF" opacity="0.537923177" filter="url(#filter-9)" cx="71.9141324" cy="34.4203936" r="1"></circle>
                <circle id="椭圆形备份-16" fill="#0C66FF" filter="url(#filter-10)" cx="67.1914132" cy="47.3005367" r="1"></circle>
                <circle id="椭圆形备份-21" fill="#0C66FF" filter="url(#filter-11)" cx="62.6833631" cy="33.9910555" r="1"></circle>
                <path d="M56,42.5 C56.2761424,42.5 56.5,42.2761424 56.5,42 C56.5,41.7238576 56.2761424,41.5 56,41.5 C55.7238576,41.5 55.5,41.7238576 55.5,42 C55.5,42.2761424 55.7238576,42.5 56,42.5 Z" id="椭圆形备份-22" fill="#0C66FF" opacity="0.571521577"></path>
                <path d="M66.5,37.5 C66.7761424,37.5 67,37.2761424 67,37 C67,36.7238576 66.7761424,36.5 66.5,36.5 C66.2238576,36.5 66,36.7238576 66,37 C66,37.2761424 66.2238576,37.5 66.5,37.5 Z" id="椭圆形备份-23" fill="#0C66FF" opacity="0.571521577"></path>
                <circle id="椭圆形备份-24" fill="#0C66FF" opacity="0.901436942" cx="75.3488372" cy="23.4722719" r="1"></circle>
                <path d="M46,28 C46.2761424,28 46.5,27.7761424 46.5,27.5 C46.5,27.2238576 46.2761424,27 46,27 C45.7238576,27 45.5,27.2238576 45.5,27.5 C45.5,27.7761424 45.7238576,28 46,28 Z" id="椭圆形备份-25" fill="#0C66FF" opacity="0.680826823"></path>
                <polyline id="路径-36" stroke="#0C66FF" stroke-width="0.5" stroke-linecap="round" stroke-linejoin="round" points="68.6384849 73.6326792 72.7728086 64 86.9308487 64"></polyline>
                <path d="M71,69 C71.5522847,69 72,68.5522847 72,68 C72,67.4477153 71.5522847,67 71,67 C70.4477153,67 70,67.4477153 70,68 C70,68.5522847 70.4477153,69 71,69 Z" id="椭圆形备份-29" fill-opacity="0.8" fill="#0C66FF" opacity="0.733956473"></path>
                <line x1="53" y1="28" x2="67.5321524" y2="28" id="路径-29" stroke="#0C66FF" stroke-width="0.5" opacity="0.471935454" stroke-linecap="round"></line>
                <line x1="53" y1="52" x2="67.5321524" y2="52" id="路径-29备份" stroke="#0C66FF" stroke-width="0.5" opacity="0.471935454" stroke-linecap="round" stroke-linejoin="round"></line>
            </g>
        </g>
    </g>
</svg>