<?xml version="1.0" encoding="UTF-8"?>
<svg width="120px" height="82px" viewBox="0 0 120 82" version="1.1" xmlns="http://www.w3.org/2000/svg" xmlns:xlink="http://www.w3.org/1999/xlink">
    <!-- Generator: Sketch 63.1 (92452) - https://sketch.com -->
    <title>编组 25备份</title>
    <desc>Created with Sketch.</desc>
    <defs>
        <linearGradient x1="100%" y1="50%" x2="15.0197016%" y2="50%" id="linearGradient-1">
            <stop stop-color="#0C66FF" stop-opacity="0" offset="0%"></stop>
            <stop stop-color="#0C66FF" stop-opacity="0.101289336" offset="100%"></stop>
        </linearGradient>
        <linearGradient x1="100%" y1="50%" x2="0%" y2="50%" id="linearGradient-2">
            <stop stop-color="#0C66FF" stop-opacity="0" offset="0%"></stop>
            <stop stop-color="#0C66FF" stop-opacity="0.101289336" offset="100%"></stop>
        </linearGradient>
        <linearGradient x1="100%" y1="50%" x2="0%" y2="50%" id="linearGradient-3">
            <stop stop-color="#0C66FF" stop-opacity="0" offset="0%"></stop>
            <stop stop-color="#0C66FF" stop-opacity="0.101289336" offset="100%"></stop>
        </linearGradient>
        <linearGradient x1="0%" y1="52.4037685%" x2="100%" y2="52.4037685%" id="linearGradient-4">
            <stop stop-color="#0C66FF" stop-opacity="0.3046875" offset="0%"></stop>
            <stop stop-color="#0C66FF" stop-opacity="0" offset="100%"></stop>
        </linearGradient>
        <path d="M43.9189189,0 L6.08108108,0 C2.72259274,0 0,2.69545973 0,6.02047782 L0,14 L15,14 C18.3137085,14 21,16.6862915 21,20 L21,56 L21,56 L43.9189189,56 C47.2774073,56 50,53.3045403 50,49.9795222 L50,6.02047782 C50,2.69545973 47.2774073,0 43.9189189,0 Z" id="path-5"></path>
    </defs>
    <g id="官网web" stroke="none" stroke-width="1" fill="none" fill-rule="evenodd">
        <g id="首页" transform="translate(-1340.000000, -1675.000000)">
            <g id="编组-25备份" transform="translate(1340.000000, 1675.000000)">
                <rect id="矩形" fill="url(#linearGradient-1)" x="21" y="0" width="68" height="80"></rect>
                <rect id="矩形备份-14" fill="url(#linearGradient-2)" transform="translate(101.000000, 41.000000) scale(-1, 1) translate(-101.000000, -41.000000) " x="82" y="8" width="38" height="66"></rect>
                <rect id="矩形备份-15" fill="url(#linearGradient-3)" transform="translate(103.000000, 41.000000) scale(-1, 1) translate(-103.000000, -41.000000) " x="95" y="18" width="16" height="46"></rect>
                <rect id="矩形备份-10" fill="url(#linearGradient-2)" x="0" y="8" width="38" height="66"></rect>
                <circle id="椭圆形" fill="#0C66FF" cx="8" cy="71" r="1"></circle>
                <circle id="椭圆形备份-5" fill-opacity="0.5" fill="#0C66FF" cx="74.2762063" cy="46.7221298" r="1"></circle>
                <path d="M58,81 L78,81 C80.209139,81 82,79.209139 82,77 L82,72 C82,69.790861 83.790861,68 86,68 L105.5,68 L105.5,68" id="路径-11备份" stroke="#0C66FF" stroke-width="0.5" stroke-linecap="round" stroke-linejoin="round"></path>
                <circle id="椭圆形备份-14" fill="#0C66FF" cx="65" cy="81" r="1"></circle>
                <circle id="椭圆形备份-15" fill="#0C66FF" cx="98" cy="68" r="1"></circle>
                <circle id="椭圆形备份-6" fill-opacity="0.2" fill="#0C66FF" cx="68.8851913" cy="34.5424293" r="2.19633943"></circle>
                <circle id="椭圆形备份-3" fill-opacity="0.8" fill="#0C66FF" cx="10.5" cy="69.5" r="1"></circle>
                <g id="编组-10" transform="translate(27.000000, 19.000000)">
                    <path d="M43.9189189,0 L6.08108108,0 C2.72259274,0 0,2.69545973 0,6.02047782 L0,49.9795222 C0,53.3045403 2.72259274,56 6.08108108,56 L43.9189189,56 C47.2774073,56 50,53.3045403 50,49.9795222 L50,6.02047782 C50,2.69545973 47.2774073,0 43.9189189,0 Z" id="路径" stroke="#0C66FF" fill-rule="nonzero"></path>
                    <path d="M8,4 L28,4 L28,4 L28,52 L8,52 C5.790861,52 4,50.209139 4,48 L4,8 C4,5.790861 5.790861,4 8,4 Z" id="矩形" fill="url(#linearGradient-4)"></path>
                    <path d="M20.5,9.5 L7.5,9.5 L7.5,12.4966722 L20.5,12.4966722 L20.5,9.5 Z" id="路径" stroke="#0C66FF" fill-opacity="0.2" fill="#0C66FF" fill-rule="nonzero"></path>
                    <path d="M30.5,16.5 L7.5,16.5 L7.5,19.4966722 L30.5,19.4966722 L30.5,16.5 Z" id="路径" stroke="#0C66FF" fill-opacity="0.2" fill="#0C66FF" fill-rule="nonzero"></path>
                    <path d="M26.5,23.5 L7.5,23.5 L7.5,26.4966722 L26.5,26.4966722 L26.5,23.5 Z" id="路径" stroke="#0C66FF" fill-opacity="0.2" fill="#0C66FF" fill-rule="nonzero"></path>
                    <path d="M38.5,30.5 L7.5,30.5 L7.5,33.4966722 L38.5,33.4966722 L38.5,30.5 Z" id="路径" stroke="#0C66FF" fill-opacity="0.2" fill="#0C66FF" fill-rule="nonzero"></path>
                    <path d="M30.5,37.5 L7.5,37.5 L7.5,40.4966722 L30.5,40.4966722 L30.5,37.5 Z" id="路径" stroke="#0C66FF" fill-opacity="0.2" fill="#0C66FF" fill-rule="nonzero"></path>
                    <path d="M36.5,44.5 L7.5,44.5 L7.5,47.4966722 L36.5,47.4966722 L36.5,44.5 Z" id="路径" stroke="#0C66FF" fill-opacity="0.2" fill="#0C66FF" fill-rule="nonzero"></path>
                </g>
                <g id="编组-6" transform="translate(56.000000, 5.000000)">
                    <mask id="mask-6" fill="white">
                        <use xlink:href="#path-5"></use>
                    </mask>
                    <use id="路径" stroke="#0C66FF" fill-rule="nonzero" xlink:href="#path-5"></use>
                    <g id="编组-10" mask="url(#mask-6)">
                        <path d="M43.9189189,0 L6.08108108,0 C2.72259274,0 0,2.69545973 0,6.02047782 L0,14 L15,14 C18.3137085,14 21,16.6862915 21,20 L21,56 L21,56 L43.9189189,56 C47.2774073,56 50,53.3045403 50,49.9795222 L50,6.02047782 C50,2.69545973 47.2774073,0 43.9189189,0 Z" id="路径" stroke="#0C66FF" fill-rule="nonzero"></path>
                        <path d="M8,4 L28,4 L28,4 L28,52 L8,52 C5.790861,52 4,50.209139 4,48 L4,8 C4,5.790861 5.790861,4 8,4 Z" id="矩形" fill="url(#linearGradient-4)"></path>
                        <path d="M20.5,8.5 L7.5,8.5 L7.5,11.4966722 L20.5,11.4966722 L20.5,8.5 Z" id="路径" stroke="#0C66FF" fill-opacity="0.2" fill="#0C66FF" fill-rule="nonzero"></path>
                        <path d="M30.5,16.5 L7.5,16.5 L7.5,19.4966722 L30.5,19.4966722 L30.5,16.5 Z" id="路径" stroke="#0C66FF" fill-opacity="0.2" fill="#0C66FF" fill-rule="nonzero"></path>
                        <path d="M26.5,23.5 L7.5,23.5 L7.5,26.4966722 L26.5,26.4966722 L26.5,23.5 Z" id="路径" stroke="#0C66FF" fill-opacity="0.2" fill="#0C66FF" fill-rule="nonzero"></path>
                        <path d="M38.5,30.5 L7.5,30.5 L7.5,33.4966722 L38.5,33.4966722 L38.5,30.5 Z" id="路径" stroke="#0C66FF" fill-opacity="0.2" fill="#0C66FF" fill-rule="nonzero"></path>
                        <path d="M30.5,37.5 L7.5,37.5 L7.5,40.4966722 L30.5,40.4966722 L30.5,37.5 Z" id="路径" stroke="#0C66FF" fill-opacity="0.2" fill="#0C66FF" fill-rule="nonzero"></path>
                        <path d="M36.5,44.5 L7.5,44.5 L7.5,47.4966722 L36.5,47.4966722 L36.5,44.5 Z" id="路径" stroke="#0C66FF" fill-opacity="0.2" fill="#0C66FF" fill-rule="nonzero"></path>
                    </g>
                </g>
                <rect id="矩形备份-11" fill="url(#linearGradient-3)" x="9" y="18" width="16" height="46"></rect>
                <path d="M25,15 L45,15 C47.209139,15 49,13.209139 49,11 L49,6 C49,3.790861 50.790861,2 53,2 L72.5,2 L72.5,2" id="路径-11" stroke="#0C66FF" stroke-width="0.5" stroke-linecap="round" stroke-linejoin="round"></path>
                <path d="M65.5,3.5 C66.3284271,3.5 67,2.82842712 67,2 C67,1.17157288 66.3284271,0.5 65.5,0.5 C64.6715729,0.5 64,1.17157288 64,2 C64,2.82842712 64.6715729,3.5 65.5,3.5 Z" id="椭圆形备份-4" fill="#0C66FF"></path>
                <path d="M69,3 C69.5522847,3 70,2.55228475 70,2 C70,1.44771525 69.5522847,1 69,1 C68.4477153,1 68,1.44771525 68,2 C68,2.55228475 68.4477153,3 69,3 Z" id="椭圆形备份-12" fill="#0C66FF" opacity="0.704659598"></path>
                <circle id="椭圆形备份-13" fill="#0C66FF" opacity="0.704659598" cx="31" cy="15" r="1"></circle>
            </g>
        </g>
    </g>
</svg>