<?xml version="1.0" encoding="UTF-8"?>
<svg width="120px" height="83px" viewBox="0 0 120 83" version="1.1" xmlns="http://www.w3.org/2000/svg" xmlns:xlink="http://www.w3.org/1999/xlink">
    <!-- Generator: Sketch 63.1 (92452) - https://sketch.com -->
    <title>编组 20备份</title>
    <desc>Created with Sketch.</desc>
    <defs>
        <linearGradient x1="100%" y1="50%" x2="0%" y2="50%" id="linearGradient-1">
            <stop stop-color="#0C66FF" stop-opacity="0" offset="0%"></stop>
            <stop stop-color="#0C66FF" stop-opacity="0.101289336" offset="100%"></stop>
        </linearGradient>
        <linearGradient x1="100%" y1="51.8380433%" x2="0%" y2="51.8380433%" id="linearGradient-2">
            <stop stop-color="#0C66FF" stop-opacity="0.1" offset="0%"></stop>
            <stop stop-color="#0C66FF" stop-opacity="0.350005463" offset="100%"></stop>
        </linearGradient>
        <linearGradient x1="0%" y1="52.4037685%" x2="100%" y2="52.4037685%" id="linearGradient-3">
            <stop stop-color="#0C66FF" stop-opacity="0.3046875" offset="0%"></stop>
            <stop stop-color="#0C66FF" stop-opacity="0" offset="100%"></stop>
        </linearGradient>
        <linearGradient x1="0%" y1="40.8125398%" x2="54.0720622%" y2="40.8125398%" id="linearGradient-4">
            <stop stop-color="#0C66FF" offset="0%"></stop>
            <stop stop-color="#0C66FF" stop-opacity="0.249207823" offset="100%"></stop>
        </linearGradient>
        <filter x="-59.7%" y="-47.6%" width="219.4%" height="194.4%" filterUnits="objectBoundingBox" id="filter-5">
            <feGaussianBlur stdDeviation="2" in="SourceGraphic"></feGaussianBlur>
        </filter>
        <linearGradient x1="50%" y1="0%" x2="50%" y2="100%" id="linearGradient-6">
            <stop stop-color="#0C66FF" stop-opacity="0.380845717" offset="0%"></stop>
            <stop stop-color="#0C66FF" stop-opacity="0" offset="100%"></stop>
        </linearGradient>
        <filter x="-3.7%" y="-37.5%" width="107.3%" height="175.0%" filterUnits="objectBoundingBox" id="filter-7">
            <feGaussianBlur stdDeviation="1" in="SourceGraphic"></feGaussianBlur>
        </filter>
    </defs>
    <g id="官网web" stroke="none" stroke-width="1" fill="none" fill-rule="evenodd">
        <g id="首页" transform="translate(-460.000000, -1314.000000)">
            <g id="编组-20备份" transform="translate(460.000000, 1315.000000)">
                <rect id="矩形备份-10" fill="url(#linearGradient-1)" x="0" y="0" width="40" height="20"></rect>
                <rect id="矩形备份-11" fill="url(#linearGradient-1)" x="80" y="26" width="40" height="20"></rect>
                <rect id="矩形" fill="#0C66FF" opacity="0.1" x="0" y="50" width="120" height="32"></rect>
                <line x1="108" y1="0" x2="7" y2="71" id="路径-19" stroke-opacity="0.2" stroke="#0C66FF"></line>
                <circle id="椭圆形" fill="#0C66FF" cx="13" cy="67" r="2"></circle>
                <circle id="椭圆形备份-3" fill-opacity="0.8" fill="#0C66FF" cx="17" cy="64" r="1"></circle>
                <circle id="椭圆形备份-5" fill-opacity="0.5" fill="#0C66FF" cx="25" cy="16" r="1"></circle>
                <circle id="椭圆形备份-6" fill-opacity="0.2" fill="#0C66FF" cx="28" cy="28" r="2"></circle>
                <circle id="椭圆形备份-4" fill="#0C66FF" cx="98" cy="7" r="2"></circle>
                <path d="M32,5 L88,5 C90.209139,5 92,6.790861 92,9 L92,73 C92,75.209139 90.209139,77 88,77 L32,77 C29.790861,77 28,75.209139 28,73 L28,9 C28,6.790861 29.790861,5 32,5 Z" id="矩形备份-3" fill="url(#linearGradient-2)" opacity="0.399786086"></path>
                <path d="M84,48 L84,64 C84,66.209139 82.209139,68 80,68 L40,68 C37.790861,68 36,66.209139 36,64 L36,47 L36,47 M36,35 L36,18 C36,15.790861 37.790861,14 40,14 L80,14 C82.209139,14 84,15.790861 84,18 L84,35 L84,35" id="形状" stroke="#0C66FF"></path>
                <path d="M44,18 L61,18 L61,18 L61,64 L44,64 C41.790861,64 40,62.209139 40,60 L40,22 C40,19.790861 41.790861,18 44,18 Z" id="矩形备份-20" fill="url(#linearGradient-3)"></path>
                <path d="M51.3005251,28.025641 L47.2564103,26.5897436 L57.3076923,26.6742081 L54.7758324,28.025641 L54.8461538,28.025641 L54.8461538,39.3076923 L52.5897436,39.3076923 L52.5897436,28.025641 L51.3005251,28.025641 Z" id="形状结合备份" fill="url(#linearGradient-4)" filter="url(#filter-5)"></path>
                <path d="M59.5,24.5 L47.5,24.5 L47.5,26.5 L52.5,26.5 L52.5,38.5 L54.5,38.5 L54.5,26.5 L59.5,26.5 L59.5,24.5 Z" id="路径" stroke="#0C66FF" fill-rule="nonzero"></path>
                <path d="M72.5,24.5 L63.5,24.5 L63.5,26.5 L72.5,26.5 L72.5,24.5 Z" id="路径" stroke="#0C66FF" fill-rule="nonzero"></path>
                <path d="M72.5,30.5 L63.5,30.5 L63.5,32.5 L72.5,32.5 L72.5,30.5 Z" id="路径备份" stroke="#0C66FF" fill-rule="nonzero"></path>
                <path d="M72.5,36.5 L63.5,36.5 L63.5,38.5 L72.5,38.5 L72.5,36.5 Z" id="路径备份-2" stroke="#0C66FF" fill-rule="nonzero"></path>
                <rect id="矩形备份-12" fill="url(#linearGradient-6)" filter="url(#filter-7)" x="19" y="43" width="82" height="8"></rect>
                <rect id="矩形备份-13" fill="#0C66FF" x="19" y="42" width="82" height="1"></rect>
                <path d="M72.5,46.5 L47.5,46.5 L47.5,48.5 L72.5,48.5 L72.5,46.5 Z" id="路径备份-3" stroke="#0C66FF" fill-rule="nonzero"></path>
                <path d="M72.5,52.5 L52.5,52.5 L52.5,54.5 L72.5,54.5 L72.5,52.5 Z" id="路径备份-4" stroke="#0C66FF" fill-rule="nonzero"></path>
                <path d="M72.5,58.5 L47.5,58.5 L47.5,60.5 L72.5,60.5 L72.5,58.5 Z" id="路径备份-5" stroke="#0C66FF" fill-rule="nonzero"></path>
            </g>
        </g>
    </g>
</svg>