<?xml version="1.0" encoding="UTF-8"?>
<svg width="120px" height="82px" viewBox="0 0 120 82" version="1.1" xmlns="http://www.w3.org/2000/svg" xmlns:xlink="http://www.w3.org/1999/xlink">
    <!-- Generator: Sketch 63.1 (92452) - https://sketch.com -->
    <title>编组 22备份</title>
    <desc>Created with Sketch.</desc>
    <defs>
        <linearGradient x1="100%" y1="51.8380433%" x2="0%" y2="51.8380433%" id="linearGradient-1">
            <stop stop-color="#0C66FF" stop-opacity="0.1" offset="0%"></stop>
            <stop stop-color="#0C66FF" stop-opacity="0.350005463" offset="100%"></stop>
        </linearGradient>
        <linearGradient x1="100%" y1="50%" x2="0%" y2="50%" id="linearGradient-2">
            <stop stop-color="#0C66FF" stop-opacity="0" offset="0%"></stop>
            <stop stop-color="#0C66FF" stop-opacity="0.101289336" offset="100%"></stop>
        </linearGradient>
        <linearGradient x1="100%" y1="50%" x2="0%" y2="50%" id="linearGradient-3">
            <stop stop-color="#0C66FF" stop-opacity="0" offset="0%"></stop>
            <stop stop-color="#0C66FF" stop-opacity="0.101289336" offset="100%"></stop>
        </linearGradient>
        <linearGradient x1="100%" y1="50%" x2="0%" y2="50%" id="linearGradient-4">
            <stop stop-color="#0C66FF" stop-opacity="0" offset="0%"></stop>
            <stop stop-color="#0C66FF" stop-opacity="0.101289336" offset="100%"></stop>
        </linearGradient>
        <linearGradient x1="0%" y1="52.4037685%" x2="100%" y2="52.4037685%" id="linearGradient-5">
            <stop stop-color="#0C66FF" stop-opacity="0.3046875" offset="0%"></stop>
            <stop stop-color="#0C66FF" stop-opacity="0" offset="100%"></stop>
        </linearGradient>
        <linearGradient x1="74.2596176%" y1="65.3989809%" x2="45.9853074%" y2="39.7076287%" id="linearGradient-6">
            <stop stop-color="#0C66FF" stop-opacity="0.255162806" offset="0%"></stop>
            <stop stop-color="#0C66FF" stop-opacity="0" offset="100%"></stop>
        </linearGradient>
        <circle id="path-7" cx="10.7179487" cy="10.7179487" r="10"></circle>
        <linearGradient x1="50%" y1="0%" x2="50%" y2="100%" id="linearGradient-9">
            <stop stop-color="#0C66FF" stop-opacity="0.477982955" offset="0%"></stop>
            <stop stop-color="#0C66FF" stop-opacity="0.0680179196" offset="100%"></stop>
        </linearGradient>
    </defs>
    <g id="官网web" stroke="none" stroke-width="1" fill="none" fill-rule="evenodd">
        <g id="首页" transform="translate(-1340.000000, -1315.000000)">
            <g id="编组-22备份" transform="translate(1340.000000, 1315.000000)">
                <rect id="矩形备份-32" fill="#0C66FF" opacity="0.1" x="0" y="50" width="54" height="32"></rect>
                <polygon id="矩形备份-33" fill="url(#linearGradient-1)" opacity="0.399786086" points="17 32 97 32 97 72 17 72"></polygon>
                <rect id="矩形备份-34" fill="url(#linearGradient-2)" x="12.9230769" y="0" width="34" height="40"></rect>
                <rect id="矩形备份-35" fill="url(#linearGradient-3)" x="71" y="57" width="42" height="22"></rect>
                <circle id="椭圆形备份-30" fill="#0C66FF" cx="18.8461538" cy="55.1538462" r="1"></circle>
                <circle id="椭圆形备份-31" fill-opacity="0.5" fill="#0C66FF" cx="27" cy="17" r="1"></circle>
                <circle id="椭圆形备份-32" fill-opacity="0.2" fill="#0C66FF" cx="32" cy="28" r="2"></circle>
                <circle id="椭圆形备份-33" fill-opacity="0.2" fill="#0C66FF" cx="102" cy="43" r="2"></circle>
                <circle id="椭圆形备份-34" fill-opacity="0.8" fill="#0C66FF" cx="24.2948718" cy="57.525641" r="1"></circle>
                <rect id="矩形备份-38" fill="url(#linearGradient-4)" x="92" y="0" width="28" height="34"></rect>
                <circle id="椭圆形备份-35" fill="#0C66FF" cx="97" cy="26" r="1"></circle>
                <path d="M42,20 L60,20 L60,20 L60,66 L42,66 C40.8954305,66 40,65.1045695 40,64 L40,22 C40,20.8954305 40.8954305,20 42,20 Z" id="矩形备份-43" fill="url(#linearGradient-5)"></path>
                <path d="M61.5,24.5 L44.5,24.5 L44.5,26.5 L61.5,26.5 L61.5,24.5 Z" id="路径" stroke="#0C66FF" fill-rule="nonzero"></path>
                <path d="M73.5,31.5 L44.5,31.5 L44.5,33.5 L73.5,33.5 L73.5,31.5 Z" id="路径备份" stroke="#0C66FF" fill-rule="nonzero"></path>
                <path d="M53.5,38.5 L44.5,38.5 L44.5,40.5 L53.5,40.5 L53.5,38.5 Z" id="路径备份-2" stroke="#0C66FF" fill-rule="nonzero"></path>
                <path d="M77.5,45.5 L44.5,45.5 L44.5,47.5 L77.5,47.5 L77.5,45.5 Z" id="路径备份-3" stroke="#0C66FF" fill-rule="nonzero"></path>
                <polygon id="路径备份-3" fill="#0C66FF" fill-rule="nonzero" opacity="0.300000012" points="77 46 77 48 45 48 45 46"></polygon>
                <polygon id="路径备份-4" fill="#0C66FF" fill-rule="nonzero" opacity="0.300000012" points="63 53 63 55 45 55 45 53"></polygon>
                <path d="M63.5,52.5 L44.5,52.5 L44.5,54.5 L63.5,54.5 L63.5,52.5 Z" id="路径备份-4" stroke="#0C66FF" fill-rule="nonzero"></path>
                <path d="M55.5,59.5 L44.5,59.5 L44.5,61.5 L55.5,61.5 L55.5,59.5 Z" id="路径备份-5" stroke="#0C66FF" fill-rule="nonzero"></path>
                <path d="M65.6181614,40.7179487 C71.0858979,40.7179487 75.5183741,45.1754227 75.5183741,50.6739955 C75.5183741,53.0367709 74.6999257,55.2073094 73.3325795,56.91454 L79.7179487,63.8007701 L77.6735561,65.7179487 L71.2906925,58.834777 C69.6842116,59.9661657 67.7282801,60.6300424 65.6181614,60.6300424 C60.1504249,60.6300424 55.7179487,56.1725684 55.7179487,50.6739955 C55.7179487,45.1754227 60.1504249,40.7179487 65.6181614,40.7179487 Z" id="路径" stroke="#0C66FF" fill="#FFFFFF" fill-rule="nonzero"></path>
                <circle id="椭圆形备份-12" fill="url(#linearGradient-6)" cx="65.7179487" cy="50.7179487" r="8"></circle>
                <g id="编组-2" transform="translate(55.000000, 40.000000)">
                    <mask id="mask-8" fill="white">
                        <use xlink:href="#path-7"></use>
                    </mask>
                    <use id="椭圆形备份-12" fill="url(#linearGradient-6)" xlink:href="#path-7"></use>
                    <path d="M22.5,4.5 L-0.5,4.5 L-0.5,8.5 L22.5,8.5 L22.5,4.5 Z" id="路径备份-3" stroke="#0C66FF" fill-rule="nonzero" mask="url(#mask-8)"></path>
                    <path d="M11.5,11.5 L-11.5,11.5 L-11.5,15.5 L11.5,15.5 L11.5,11.5 Z" id="路径备份-13" stroke="#0C66FF" fill-rule="nonzero" mask="url(#mask-8)"></path>
                </g>
                <path d="M66,43 C67.817297,43 69.4930666,43.5680792 70.836285,44.525153 L65.8906678,51 L58.0175267,51.0004407 C58.0059035,50.8350346 58,50.6681636 58,50.5 C58,46.3578644 61.581722,43 66,43 Z" id="形状结合" fill="url(#linearGradient-9)"></path>
                <path d="M78,15.5 L42,15.5 C40.2054991,15.5 38.5810471,16.2222944 37.4051129,17.389582 C36.2278383,18.5582001 35.5,20.1727201 35.5,21.9558824 L35.5,64.0441176 C35.5,65.8272799 36.2278383,67.4417999 37.4051129,68.610418 C38.5810471,69.7777056 40.2054991,70.5 42,70.5 L78,70.5 C79.7945009,70.5 81.4189529,69.7777056 82.5948871,68.610418 C83.7721617,67.4417999 84.5,65.8272799 84.5,64.0441176 L84.5,21.9558824 C84.5,20.1727201 83.7721617,18.5582001 82.5948871,17.389582 C81.4189529,16.2222944 79.7945009,15.5 78,15.5 Z" id="路径" stroke="#0C66FF" fill-rule="nonzero"></path>
                <line x1="13" y1="57.5" x2="105.5" y2="23" id="路径-5" stroke-opacity="0.2" stroke="#0C66FF"></line>
            </g>
        </g>
    </g>
</svg>