<?xml version="1.0" encoding="UTF-8"?>
<svg width="112px" height="82px" viewBox="0 0 112 82" version="1.1" xmlns="http://www.w3.org/2000/svg" xmlns:xlink="http://www.w3.org/1999/xlink">
    <!-- Generator: Sketch 63.1 (92452) - https://sketch.com -->
    <title>编组 24备份</title>
    <desc>Created with Sketch.</desc>
    <defs>
        <linearGradient x1="100%" y1="50%" x2="0%" y2="50%" id="linearGradient-1">
            <stop stop-color="#0C66FF" stop-opacity="0" offset="0%"></stop>
            <stop stop-color="#0C66FF" stop-opacity="0.101289336" offset="100%"></stop>
        </linearGradient>
        <linearGradient x1="56.4852121%" y1="12.2002559%" x2="34.6090277%" y2="89.4689693%" id="linearGradient-2">
            <stop stop-color="#0C66FF" stop-opacity="0" offset="0%"></stop>
            <stop stop-color="#0C66FF" stop-opacity="0.101289336" offset="100%"></stop>
        </linearGradient>
        <linearGradient x1="0%" y1="52.4037685%" x2="100%" y2="52.4037685%" id="linearGradient-3">
            <stop stop-color="#0C66FF" stop-opacity="0.3046875" offset="0%"></stop>
            <stop stop-color="#0C66FF" stop-opacity="0" offset="100%"></stop>
        </linearGradient>
        <linearGradient x1="56.7335973%" y1="12.2002559%" x2="34.0195497%" y2="89.4689693%" id="linearGradient-4">
            <stop stop-color="#0C66FF" stop-opacity="0" offset="0%"></stop>
            <stop stop-color="#0C66FF" stop-opacity="0.101289336" offset="100%"></stop>
        </linearGradient>
        <linearGradient x1="50%" y1="0%" x2="50%" y2="100%" id="linearGradient-5">
            <stop stop-color="#0C66FF" stop-opacity="0.1" offset="0%"></stop>
            <stop stop-color="#0C66FF" stop-opacity="0.178267045" offset="100%"></stop>
        </linearGradient>
        <linearGradient x1="50%" y1="0%" x2="50%" y2="100%" id="linearGradient-6">
            <stop stop-color="#0C66FF" stop-opacity="0.2" offset="0%"></stop>
            <stop stop-color="#0C66FF" stop-opacity="0.178267045" offset="100%"></stop>
        </linearGradient>
        <filter x="-60.0%" y="-46.2%" width="220.0%" height="192.3%" filterUnits="objectBoundingBox" id="filter-7">
            <feGaussianBlur stdDeviation="2" in="SourceGraphic"></feGaussianBlur>
        </filter>
    </defs>
    <g id="官网web" stroke="none" stroke-width="1" fill="none" fill-rule="evenodd">
        <g id="首页" transform="translate(-904.000000, -1675.000000)">
            <g id="编组-24备份" transform="translate(905.000000, 1675.000000)">
                <rect id="矩形" fill="#0C66FF" opacity="0.1" x="59" y="58" width="50" height="24"></rect>
                <circle id="椭圆形" fill="#0C66FF" cx="18.5" cy="72.5" r="1.5"></circle>
                <circle id="椭圆形备份-5" fill-opacity="0.5" fill="#0C66FF" cx="18" cy="19" r="1"></circle>
                <circle id="椭圆形备份-6" fill-opacity="0.2" fill="#0C66FF" cx="22" cy="31" r="3"></circle>
                <circle id="椭圆形备份-3" fill-opacity="0.8" fill="#0C66FF" cx="15" cy="67" r="1"></circle>
                <rect id="矩形备份-11" fill="url(#linearGradient-1)" x="71" y="45" width="40" height="20"></rect>
                <circle id="椭圆形备份-4" fill="#0C66FF" cx="89" cy="5" r="1"></circle>
                <path d="M58.9782235,-3.71979873 L91.9782235,15.1948354 C94.4656963,16.620582 96,19.2684637 96,22.1355658 L96,59.8644342 C96,62.7315363 94.4656963,65.379418 91.9782235,66.8051646 L58.9782235,85.7197987 C56.5141069,87.1321583 53.4858931,87.1321583 51.0217765,85.7197987 L18.0217765,66.8051646 C15.5343037,65.379418 14,62.7315363 14,59.8644342 L14,22.1355658 C14,19.2684637 15.5343037,16.620582 18.0217765,15.1948354 L51.0217765,-3.71979873 C53.4858931,-5.13215826 56.5141069,-5.13215826 58.9782235,-3.71979873 Z" id="多边形" fill="url(#linearGradient-2)" transform="translate(55.000000, 41.000000) rotate(-270.000000) translate(-55.000000, -41.000000) "></path>
                <polyline id="路径" stroke-opacity="0.2" stroke="#0C66FF" stroke-linecap="round" stroke-linejoin="round" transform="translate(11.945568, 38.945568) rotate(-270.000000) translate(-11.945568, -38.945568) " points="50.8911352 29.5506486 14 50.6955676 -27 27.1955676"></polyline>
                <polyline id="路径备份-8" stroke-opacity="0.2" stroke="#0C66FF" stroke-linecap="round" stroke-linejoin="round" transform="translate(97.945568, 38.945568) scale(-1, 1) rotate(-270.000000) translate(-97.945568, -38.945568) " points="136.891135 29.5506486 100 50.6955676 59 27.1955676"></polyline>
                <path d="M39,14 L55,14 L55,14 L55,60 L39,60 C36.790861,60 35,58.209139 35,56 L35,18 C35,15.790861 36.790861,14 39,14 Z" id="矩形" fill="url(#linearGradient-3)"></path>
                <polygon id="路径" stroke="#0C66FF" fill-rule="nonzero" points="59 19 59 21 39 21 39 19"></polygon>
                <polygon id="路径" stroke="#0C66FF" fill-rule="nonzero" points="63 26 63 28 39 28 39 26"></polygon>
                <polygon id="路径" stroke="#0C66FF" fill-rule="nonzero" points="49 33 49 35 39 35 39 33"></polygon>
                <polygon id="路径" stroke="#0C66FF" fill-rule="nonzero" points="57 40 57 42 39 42 39 40"></polygon>
                <polygon id="路径" stroke="#0C66FF" fill-rule="nonzero" points="67 47 67 49 39 49 39 47"></polygon>
                <polygon id="路径" stroke="#0C66FF" fill-rule="nonzero" points="53 54 53 56 39 56 39 54"></polygon>
                <path d="M67,64 C60.3333333,64 50.3333333,64 37,64 C33.6862915,64 31,61.3334606 31,58.0441176 L31,15.9558824 C31,12.6665394 33.6862915,10 37,10 L73,10 C76.3137085,10 79,12.6665394 79,15.9558824 C79,27.753268 79,36.6013072 79,42.5" id="路径" stroke="#0C66FF" stroke-linecap="round" fill-rule="nonzero"></path>
                <path d="M26.4513062,5.37885974 L37.4513062,11.5663597 C39.0256911,12.4519512 40,14.1178709 40,15.9242374 L40,28.0757626 C40,29.8821291 39.0256911,31.5480488 37.4513062,32.4336403 L26.4513062,38.6211403 C24.9292385,39.4773033 23.0707615,39.4773033 21.5486938,38.6211403 L10.5486938,32.4336403 C8.9743089,31.5480488 8,29.8821291 8,28.0757626 L8,15.9242374 C8,14.1178709 8.9743089,12.4519512 10.5486938,11.5663597 L21.5486938,5.37885974 C23.0707615,4.52269665 24.9292385,4.52269665 26.4513062,5.37885974 Z" id="多边形备份" fill="url(#linearGradient-4)" transform="translate(24.000000, 22.000000) rotate(-270.000000) translate(-24.000000, -22.000000) "></path>
                <path d="M79.75,48.8556624 C79.2858984,48.5877132 78.7141016,48.5877132 78.25,48.8556624 L71.4557714,52.7783122 C70.9916698,53.0462614 70.7057714,53.5414519 70.7057714,54.0773503 L70.7057714,61.9226497 C70.7057714,62.4585481 70.9916698,62.9537386 71.4557714,63.2216878 L78.25,67.1443376 C78.4820508,67.2783122 78.7410254,67.3452995 79,67.3452995 C79.2589746,67.3452995 79.5179492,67.2783122 79.75,67.1443376 L86.5442286,63.2216878 C87.0083302,62.9537386 87.2942286,62.4585481 87.2942286,61.9226497 L87.2942286,54.0773503 C87.2942286,53.5414519 87.0083302,53.0462614 86.5442286,52.7783122 L79.75,48.8556624 Z" id="多边形" stroke="#0C66FF" fill="url(#linearGradient-5)"></path>
                <path d="M70.5,52 C71.3284271,52 72,52.6715729 72,53.5 C72,54.3284271 71.3284271,55 70.5,55 C69.6715729,55 69,54.3284271 69,53.5 C69,52.6715729 69.6715729,52 70.5,52 Z" id="路径" stroke="#0C66FF" fill="#FFFFFF" fill-rule="nonzero"></path>
                <path d="M87.5,52 C88.3284271,52 89,52.6715729 89,53.5 C89,54.3284271 88.3284271,55 87.5,55 C86.6715729,55 86,54.3284271 86,53.5 C86,52.6715729 86.6715729,52 87.5,52 Z" id="路径备份-6" stroke="#0C66FF" fill="#FFFFFF" fill-rule="nonzero"></path>
                <path d="M79.5,66 C80.3284271,66 81,66.6715729 81,67.5 C81,68.3284271 80.3284271,69 79.5,69 C78.6715729,69 78,68.3284271 78,67.5 C78,66.6715729 78.6715729,66 79.5,66 Z" id="路径备份-7" stroke="#0C66FF" fill="#FFFFFF" fill-rule="nonzero"></path>
                <path d="M79.75,53.8556624 C79.5179492,53.7216878 79.2589746,53.6547005 79,53.6547005 C78.7410254,53.6547005 78.4820508,53.7216878 78.25,53.8556624 L75.7858984,55.2783122 C75.3217968,55.5462614 75.0358984,56.0414519 75.0358984,56.5773503 L75.0358984,59.4226497 C75.0358984,59.9585481 75.3217968,60.4537386 75.7858984,60.7216878 L78.25,62.1443376 C78.4820508,62.2783122 78.7410254,62.3452995 79,62.3452995 C79.2589746,62.3452995 79.5179492,62.2783122 79.75,62.1443376 L82.2141016,60.7216878 C82.6782032,60.4537386 82.9641016,59.9585481 82.9641016,59.4226497 L82.9641016,56.5773503 C82.9641016,56.0414519 82.6782032,55.5462614 82.2141016,55.2783122 L79.75,53.8556624 Z" id="多边形" stroke="#0C66FF" fill="url(#linearGradient-6)"></path>
                <polygon id="路径-25" fill-opacity="0.371803977" fill="#0C66FF" filter="url(#filter-7)" points="86.9067733 57 89 57.1220914 88.8127909 65.0744795 79.2465428 70 79 67.6216284 86.6057087 63.1420128 86.9067733 61.8842729"></polygon>
                <polyline id="路径-9" stroke="#0C66FF" stroke-linecap="round" stroke-linejoin="round" points="77 57 79 58 81 57"></polyline>
                <line x1="79" y1="58" x2="79" y2="60" id="路径-10" stroke="#0C66FF" stroke-linecap="round"></line>
            </g>
        </g>
    </g>
</svg>