<?xml version="1.0" encoding="UTF-8"?>
<svg width="120px" height="83px" viewBox="0 0 120 83" version="1.1" xmlns="http://www.w3.org/2000/svg" xmlns:xlink="http://www.w3.org/1999/xlink">
    <!-- Generator: Sketch 63.1 (92452) - https://sketch.com -->
    <title>编组 23备份</title>
    <desc>Created with Sketch.</desc>
    <defs>
        <linearGradient x1="100%" y1="50%" x2="0%" y2="50%" id="linearGradient-1">
            <stop stop-color="#0C66FF" stop-opacity="0" offset="0%"></stop>
            <stop stop-color="#0C66FF" stop-opacity="0.101289336" offset="100%"></stop>
        </linearGradient>
        <linearGradient x1="100%" y1="50%" x2="0%" y2="50%" id="linearGradient-2">
            <stop stop-color="#0C66FF" stop-opacity="0" offset="0%"></stop>
            <stop stop-color="#0C66FF" stop-opacity="0.101289336" offset="100%"></stop>
        </linearGradient>
        <linearGradient x1="100%" y1="50%" x2="0%" y2="50%" id="linearGradient-3">
            <stop stop-color="#0C66FF" stop-opacity="0" offset="0%"></stop>
            <stop stop-color="#0C66FF" stop-opacity="0.101289336" offset="100%"></stop>
        </linearGradient>
        <linearGradient x1="100%" y1="51.8380433%" x2="0%" y2="51.8380433%" id="linearGradient-4">
            <stop stop-color="#0C66FF" stop-opacity="0.350005463" offset="0%"></stop>
            <stop stop-color="#0C66FF" stop-opacity="0.1" offset="100%"></stop>
        </linearGradient>
        <linearGradient x1="100%" y1="51.8380433%" x2="0%" y2="51.8380433%" id="linearGradient-5">
            <stop stop-color="#0C66FF" stop-opacity="0.350005463" offset="0%"></stop>
            <stop stop-color="#0C66FF" stop-opacity="0.1" offset="100%"></stop>
        </linearGradient>
        <linearGradient x1="0%" y1="52.4037685%" x2="100%" y2="52.4037685%" id="linearGradient-6">
            <stop stop-color="#0C66FF" stop-opacity="0.3046875" offset="0%"></stop>
            <stop stop-color="#0C66FF" stop-opacity="0" offset="100%"></stop>
        </linearGradient>
        <linearGradient x1="37.8137683%" y1="69.2047954%" x2="112.943928%" y2="69.2047954%" id="linearGradient-7">
            <stop stop-color="#0C66FF" stop-opacity="0.542422421" offset="0%"></stop>
            <stop stop-color="#0C66FF" stop-opacity="0" offset="100%"></stop>
        </linearGradient>
        <filter x="-41.4%" y="-33.8%" width="193.2%" height="180.5%" filterUnits="objectBoundingBox" id="filter-8">
            <feGaussianBlur stdDeviation="2" in="SourceGraphic"></feGaussianBlur>
        </filter>
        <filter x="-81.2%" y="-62.2%" width="262.5%" height="224.5%" filterUnits="objectBoundingBox" id="filter-9">
            <feGaussianBlur stdDeviation="2" in="SourceGraphic"></feGaussianBlur>
        </filter>
        <filter x="-365.6%" y="-365.6%" width="831.3%" height="831.2%" filterUnits="objectBoundingBox" id="filter-10">
            <feGaussianBlur stdDeviation="2" in="SourceGraphic"></feGaussianBlur>
        </filter>
        <filter x="-150.0%" y="-150.0%" width="400.0%" height="400.0%" filterUnits="objectBoundingBox" id="filter-11">
            <feGaussianBlur stdDeviation="2" in="SourceGraphic"></feGaussianBlur>
        </filter>
        <filter x="-365.6%" y="-365.6%" width="831.3%" height="831.2%" filterUnits="objectBoundingBox" id="filter-12">
            <feGaussianBlur stdDeviation="2" in="SourceGraphic"></feGaussianBlur>
        </filter>
    </defs>
    <g id="官网web" stroke="none" stroke-width="1" fill="none" fill-rule="evenodd">
        <g id="首页" transform="translate(-460.000000, -1674.000000)">
            <g id="编组-23备份" transform="translate(460.000000, 1674.000000)">
                <path d="M88,35 C88,40.3431373 88,48.3578431 88,59.0441176 C88,62.3334606 85.3137085,65 82,65 L46,65 C42.6862915,65 40,62.3334606 40,59.0441176 L40,16.9558824 C40,13.6665394 42.6862915,11 46,11 C55.7777778,11 63.1111111,11 68,11" id="路径" stroke="#0C66FF" fill-rule="nonzero"></path>
                <rect id="矩形" fill="#0C66FF" opacity="0.1" x="0" y="48.8142973" width="50" height="34"></rect>
                <line x1="28.5" y1="0" x2="100.5" y2="77" id="路径-6" stroke="#0C66FF" opacity="0.200000003"></line>
                <rect id="矩形备份-10" fill="url(#linearGradient-1)" x="0" y="1.22455366" width="38" height="36"></rect>
                <rect id="矩形备份-14" fill="url(#linearGradient-2)" x="11" y="31" width="38" height="12"></rect>
                <rect id="矩形备份-15" fill="url(#linearGradient-2)" x="0" y="21" width="38" height="12"></rect>
                <circle id="椭圆形" fill="#0C66FF" cx="93" cy="69" r="1"></circle>
                <circle id="椭圆形备份-5" fill-opacity="0.5" fill="#0C66FF" cx="28" cy="18" r="1"></circle>
                <circle id="椭圆形备份-6" fill-opacity="0.2" fill="#0C66FF" cx="31" cy="30" r="2"></circle>
                <circle id="椭圆形备份-3" fill-opacity="0.8" fill="#0C66FF" cx="11.5" cy="69.5" r="1"></circle>
                <rect id="矩形备份-11" fill="url(#linearGradient-3)" x="42.2564103" y="64" width="78" height="18"></rect>
                <polygon id="矩形" fill="url(#linearGradient-4)" opacity="0.399786086" points="78 -1.14283583e-14 120 -1.14283583e-14 120 72 78 72"></polygon>
                <circle id="椭圆形备份-19" fill-opacity="0.207468313" fill="#0C66FF" cx="111" cy="15" r="2"></circle>
                <circle id="椭圆形备份-6" fill-opacity="0.422721809" fill="#0C66FF" cx="112.5" cy="16.5" r="1.5"></circle>
                <polygon id="矩形备份-2" fill="url(#linearGradient-5)" opacity="0.399786086" points="66.0512821 39.583528 107.692308 39.583528 107.692308 53.9425024 66.0512821 53.9425024"></polygon>
                <path d="M49,15 L65,15 L65,15 L65,61 L49,61 C46.790861,61 45,59.209139 45,57 L45,19 C45,16.790861 46.790861,15 49,15 Z" id="矩形" fill="url(#linearGradient-6)"></path>
                <path d="M79.454451,8.18203315 L79.2820513,18.3333333 L79.2820513,18.3333333 L70.2388631,18.3333333 C69.6865783,18.3333333 69.2388631,17.8856181 69.2388631,17.3333333 C69.2388631,17.0870351 69.3297582,16.8494002 69.4941279,16.6659732 L77.70986,7.49769249 C78.0784328,7.0863866 78.7106494,7.05174459 79.1219553,7.4203174 C79.3380484,7.61395934 79.4593781,7.8919139 79.454451,8.18203315 Z" id="三角形" fill="url(#linearGradient-7)" filter="url(#filter-8)"></path>
                <path d="M83.2119355,4.39325593 C83.3062792,4.46352744 83.3929229,4.54184117 83.4706691,4.62711447 L93.5649144,15.6986571 C94.2342627,16.4328098 94.1184237,17.5184046 93.3061808,18.1234009 C92.9649047,18.3775993 92.5364442,18.5166085 92.0942185,18.5166085 L85.0173758,18.5166085 L85.0173758,27.4108655 C85.0173758,28.840805 83.7375406,30 82.1587839,30 C80.5800272,30 79.300192,28.840805 79.300192,27.4108655 L79.300192,18.5166085 L71.9057279,18.5166085 C70.8532235,18.5166085 70,17.745415 70,16.7940997 C70,16.3943902 70.1537952,16.0071225 70.4350321,15.6986571 L80.5292774,4.62711447 C81.1986257,3.89296169 82.3996927,3.78825965 83.2119355,4.39325593 Z" id="路径" stroke="#0C66FF" fill-rule="nonzero"></path>
                <polygon id="路径" stroke="#0C66FF" fill-rule="nonzero" points="67 20 67 22 49 22 49 20"></polygon>
                <polygon id="路径" stroke="#0C66FF" fill-rule="nonzero" points="71 27 71 29 49 29 49 27"></polygon>
                <polygon id="路径" stroke="#0C66FF" fill-rule="nonzero" points="59 34 59 36 49 36 49 34"></polygon>
                <polygon id="路径" stroke="#0C66FF" fill-rule="nonzero" points="65 41 65 43 49 43 49 41"></polygon>
                <polygon id="路径" stroke="#0C66FF" fill-rule="nonzero" points="77 48 77 50 49 50 49 48"></polygon>
                <polygon id="路径" stroke="#0C66FF" fill-rule="nonzero" points="63 55 63 57 49 57 49 55"></polygon>
                <circle id="椭圆形备份-4" fill="#0C66FF" cx="34.1153846" cy="5.80147674" r="1.5"></circle>
                <circle id="椭圆形备份-18" fill="#0C66FF" opacity="0.647437686" cx="31.3589744" cy="3.04506648" r="1"></circle>
                <polygon id="路径-21" fill-opacity="0.4" fill="#0C66FF" filter="url(#filter-9)" points="92.3846154 19 92.3846154 21.3281497 88.0075997 21.3281497 86.6535729 27.8079899 85 28.6410256 85 19"></polygon>
                <path d="M82.0852624,10.035443 L85.9800396,14.8527482 C85.9929791,14.8687526 86,14.8884172 86,14.9086548 C86,14.9591033 85.9572759,15 85.9045732,15 L78.0954312,15 C78.07421,15 78.0535942,14.9932289 78.0368434,14.9807573 C77.9952429,14.9497841 77.9877498,14.892394 78.0201069,14.8525728 L81.9344717,10.0352677 C81.939382,10.0292247 81.9450665,10.0237966 81.9513914,10.019111 C81.9930703,9.9882347 82.0530064,9.99554677 82.0852624,10.035443 Z" id="路径" stroke="#0C66FF" stroke-width="0.5" fill-rule="nonzero"></path>
                <circle id="椭圆形备份-12" fill="#0C66FF" filter="url(#filter-10)" cx="81.6410256" cy="7.58352802" r="1"></circle>
                <circle id="椭圆形备份-14" fill="#0C66FF" filter="url(#filter-11)" cx="86" cy="15" r="2"></circle>
                <circle id="椭圆形备份-16" fill="#0C66FF" filter="url(#filter-12)" cx="77.3333333" cy="13.1219896" r="1"></circle>
                <circle id="椭圆形备份-13" fill="#0C66FF" cx="82" cy="9" r="1"></circle>
                <circle id="椭圆形备份-15" fill="#0C66FF" cx="87" cy="15" r="1"></circle>
                <circle id="椭圆形备份-17" fill="#0C66FF" cx="77" cy="15" r="1"></circle>
            </g>
        </g>
    </g>
</svg>