<?xml version="1.0" encoding="UTF-8"?>
<svg width="20px" height="20px" viewBox="0 0 20 20" version="1.1" xmlns="http://www.w3.org/2000/svg" xmlns:xlink="http://www.w3.org/1999/xlink">
    <!-- Generator: Sketch 61.2 (89653) - https://sketch.com -->
    <title>形状</title>
    <desc>Created with Sketch.</desc>
    <g id="官网组建规范" stroke="none" stroke-width="1" fill="none" fill-rule="evenodd">
        <g transform="translate(-498.000000, -4254.000000)" fill="#0C66FF" fill-rule="nonzero" id="形状">
            <path d="M502.264568,4255.80864 C501.334826,4256.45903 500.528138,4257.2598 499.86599,4258.18753 C498.535834,4260.04885 497.879545,4262.32618 498.018225,4264.59765 C498.047524,4265.08788 498.469424,4265.46093 498.959687,4265.43163 C499.44995,4265.40234 499.823019,4264.98046 499.79372,4264.49023 C499.557378,4260.60158 502.121981,4257.05473 505.893686,4256.05473 C508.78448,4255.28911 511.825674,4256.15043 513.880482,4258.25589 L512.493682,4259.00198 L516.804481,4261.66603 L516.958787,4256.6016 L515.499717,4257.38676 C514.359025,4256.09379 512.905815,4255.11919 511.265094,4254.54888 C509.384125,4253.89849 507.370335,4253.82428 505.438581,4254.33599 C504.293983,4254.63872 503.225561,4255.13482 502.264568,4255.80864 Z M499.03977,4271.3984 L500.498839,4270.6152 C501.639531,4271.90816 503.092741,4272.88276 504.733462,4273.45112 C506.614432,4274.10151 508.628221,4274.17572 510.559975,4273.66401 C511.311972,4273.46479 512.030764,4273.18354 512.708538,4272.82222 C513.062074,4272.63472 513.403891,4272.42378 513.733989,4272.19331 C514.663731,4271.54293 515.468465,4270.7441 516.130613,4269.81833 C517.460769,4267.95896 518.119011,4265.68358 517.982284,4263.41407 C517.952986,4262.92383 517.531086,4262.55079 517.040823,4262.58009 C516.55056,4262.60938 516.177491,4263.03126 516.20679,4263.52149 C516.437272,4267.40232 513.870716,4270.94527 510.10487,4271.94527 C507.214076,4272.71089 504.172882,4271.84957 502.118075,4269.74411 L503.504875,4268.99802 L499.194075,4266.33397 L499.03977,4271.3984 Z"></path>
        </g>
    </g>
</svg>