<?xml version="1.0" encoding="UTF-8"?>
<svg width="20px" height="20px" viewBox="0 0 20 20" version="1.1" xmlns="http://www.w3.org/2000/svg" xmlns:xlink="http://www.w3.org/1999/xlink">
    <!-- Generator: Sketch 61.2 (89653) - https://sketch.com -->
    <title>↳🎨 Color</title>
    <desc>Created with Sketch.</desc>
    <g id="官网组建规范" stroke="none" stroke-width="1" fill="none" fill-rule="evenodd">
        <g transform="translate(-632.000000, -4254.000000)" fill="#FFFFFF" id="↳🎨-Color">
            <path d="M640.5,4254 C645.19442,4254 649,4257.80558 649,4262.5 C649,4264.48652 648.318533,4266.31388 647.17662,4267.76106 L651.707107,4272.29289 C652.097631,4272.68342 652.097631,4273.31658 651.707107,4273.70711 C651.316582,4274.09763 650.683418,4274.09763 650.292893,4273.70711 L650.292893,4273.70711 L645.761057,4269.17662 C644.313884,4270.31853 642.486525,4271 640.5,4271 C635.80558,4271 632,4267.19442 632,4262.5 C632,4257.80558 635.80558,4254 640.5,4254 Z M640.5,4256 C636.910149,4256 634,4258.91015 634,4262.5 C634,4266.08985 636.910149,4269 640.5,4269 C642.270413,4269 643.87551,4268.2922 645.047752,4267.14413 L645.092893,4267.09289 C645.10902,4267.07677 645.125561,4267.06131 645.142481,4267.04651 C646.292198,4265.87551 647,4264.27041 647,4262.5 C647,4258.91015 644.089851,4256 640.5,4256 Z"></path>
        </g>
    </g>
</svg>