<?xml version="1.0" encoding="UTF-8"?>
<svg width="20px" height="20px" viewBox="0 0 20 20" version="1.1" xmlns="http://www.w3.org/2000/svg" xmlns:xlink="http://www.w3.org/1999/xlink">
    <!-- Generator: Sketch 57.1 (83088) - https://sketch.com -->
    <title>编组</title>
    <desc>Created with Sketch.</desc>
    <defs>
        <polygon id="path-1" points="0 0.0957142857 19.9047619 0.0957142857 19.9047619 19.9998095 0 19.9998095"></polygon>
    </defs>
    <g id="切图" stroke="none" stroke-width="1" fill="none" fill-rule="evenodd">
        <g id="画板" transform="translate(0.000000, -20.000000)">
            <g id="编组" transform="translate(0.000000, 20.000000)">
                <mask id="mask-2" fill="white">
                    <use xlink:href="#path-1"></use>
                </mask>
                <g id="Clip-2"></g>
                <path d="M13.5742857,10.9121905 C13.3604762,10.9121905 13.1447619,10.698381 13.1447619,10.4798095 C13.1447619,10.2640952 13.3604762,10.0469524 13.5742857,10.0469524 C13.8980952,10.0469524 14.1152381,10.2640952 14.1152381,10.4798095 C14.1152381,10.698381 13.8980952,10.9121905 13.5742857,10.9121905 L13.5742857,10.9121905 Z M11.1957143,10.9121905 C10.98,10.9121905 10.7628571,10.698381 10.7628571,10.4798095 C10.7628571,10.2640952 10.98,10.0469524 11.1957143,10.0469524 C11.522381,10.0469524 11.7371429,10.2640952 11.7371429,10.4798095 C11.7371429,10.698381 11.522381,10.9121905 11.1957143,10.9121905 L11.1957143,10.9121905 Z M12.3880952,8.31504762 C10.3304762,8.31504762 8.71047619,9.72457143 8.71047619,11.4531429 C8.71047619,13.1850476 10.3309524,14.5912381 12.3880952,14.5912381 C12.8185714,14.5912381 13.2528571,14.4826667 13.6852381,14.3745714 L14.8714286,15.0240952 L14.5466667,13.9431429 C15.4142857,13.2917143 16.0614286,12.4288571 16.0614286,11.4531429 C16.0614286,9.72457143 14.3309524,8.31552381 12.3880952,8.31552381 L12.3880952,8.31504762 Z M6.76238095,7.9912381 C6.43904762,7.9912381 6.11142857,7.77361905 6.11142857,7.44980952 C6.11142857,7.12457143 6.43904762,6.91028571 6.76238095,6.91028571 C7.08714286,6.91028571 7.30285714,7.12457143 7.30285714,7.44980952 C7.30285714,7.77409524 7.08714286,7.9912381 6.76238095,7.9912381 L6.76238095,7.9912381 Z M9.78904762,6.91028571 C10.1142857,6.91028571 10.3304762,7.12457143 10.3304762,7.44980952 C10.3304762,7.77361905 10.1142857,7.9912381 9.78904762,7.9912381 C9.4652381,7.9912381 9.13952381,7.77361905 9.13952381,7.44980952 C9.14,7.12457143 9.4652381,6.91028571 9.78904762,6.91028571 L9.78904762,6.91028571 Z M12.1147619,8.08314286 C12.2547619,8.08314286 12.3933333,8.09314286 12.5309524,8.10838095 C12.1566667,6.366 10.2938095,5.0712381 8.16761905,5.0712381 C5.79095238,5.0712381 3.84333333,6.69219048 3.84333333,8.74933333 C3.84333333,9.93647619 4.49142857,10.9121905 5.57380952,11.668381 L5.14142857,12.9693333 L6.65333333,12.2117143 C7.19428571,12.3188571 7.62761905,12.4288571 8.16761905,12.4288571 C8.30380952,12.4288571 8.43809524,12.4221905 8.57142857,12.4112381 C8.48428571,12.1169524 8.43904762,11.8121905 8.43809524,11.5050476 C8.43809524,9.61552381 10.0604762,8.08314286 12.1147619,8.08314286 L12.1147619,8.08314286 Z M9.95238095,19.4469524 C4.76952381,19.4469524 0.552857143,15.2302857 0.552857143,10.0479048 C0.552857143,4.86504762 4.76952381,0.648380952 9.95238095,0.648380952 C15.1347619,0.648380952 19.3519048,4.86504762 19.3519048,10.0479048 C19.3519048,15.2302857 15.1347619,19.4469524 9.95238095,19.4469524 L9.95238095,19.4469524 Z M9.95238095,0.0955238095 C4.45571429,0.0955238095 0,4.5512381 0,10.0479048 C0,15.5445714 4.45571429,19.9998095 9.95238095,19.9998095 C15.4490476,19.9998095 19.9047619,15.5445714 19.9047619,10.0479048 C19.9047619,4.5512381 15.4490476,0.0955238095 9.95238095,0.0955238095 L9.95238095,0.0955238095 Z" id="Fill-1" fill="#999999" mask="url(#mask-2)"></path>
            </g>
        </g>
    </g>
</svg>